<svg width="399" height="294" viewBox="0 0 399 294" fill="none" xmlns="http://www.w3.org/2000/svg">
<path d="M199.593 235.204C193.781 235.204 188.099 236.928 183.266 240.158C178.434 243.388 174.667 247.979 172.443 253.351C170.219 258.723 169.637 264.634 170.771 270.336C171.904 276.039 174.703 281.277 178.813 285.388C182.923 289.499 188.159 292.299 193.86 293.433C199.56 294.568 205.469 293.986 210.839 291.761C216.209 289.536 220.798 285.768 224.028 280.933C227.257 276.099 228.98 270.415 228.98 264.601C228.98 256.804 225.884 249.327 220.373 243.814C214.862 238.301 207.387 235.204 199.593 235.204ZM199.593 274.4C197.656 274.4 195.762 273.825 194.151 272.749C192.54 271.672 191.284 270.141 190.543 268.351C189.802 266.56 189.608 264.59 189.986 262.689C190.364 260.788 191.296 259.042 192.666 257.672C194.036 256.301 195.782 255.368 197.682 254.99C199.582 254.612 201.552 254.806 203.342 255.548C205.132 256.289 206.662 257.545 207.738 259.157C208.814 260.768 209.389 262.663 209.389 264.601C209.389 267.2 208.357 269.692 206.52 271.53C204.683 273.368 202.191 274.4 199.593 274.4ZM395.782 101.759C393.854 103.5 391.314 104.403 388.72 104.271C386.126 104.139 383.691 102.981 381.95 101.054C358.982 75.4174 330.87 54.9117 299.447 40.8733C268.025 26.835 233.997 19.5793 199.583 19.5793C165.169 19.5793 131.142 26.835 99.7193 40.8733C68.2967 54.9117 40.1847 75.4174 17.2161 101.054C16.3639 102.043 15.3226 102.852 14.1534 103.433C12.9842 104.014 11.7107 104.355 10.4078 104.437C9.10487 104.518 7.79878 104.338 6.56628 103.908C5.33379 103.477 4.19976 102.805 3.23083 101.929C2.2619 101.054 1.47763 99.9942 0.92411 98.8114C0.370586 97.6287 0.0589755 96.3472 0.00759133 95.0423C-0.0437928 93.7374 0.166084 92.4353 0.624892 91.2127C1.0837 89.9901 1.78218 88.8715 2.67929 87.9228C27.4846 60.2562 57.8383 38.1276 91.763 22.9785C125.688 7.82953 162.422 0 199.573 0C236.725 0 273.459 7.82953 307.384 22.9785C341.309 38.1276 371.662 60.2562 396.468 87.9228C398.21 89.849 399.117 92.3884 398.988 94.983C398.859 97.5775 397.706 100.015 395.782 101.759ZM341.043 143.778C342.732 145.753 343.567 148.318 343.365 150.909C343.163 153.501 341.94 155.905 339.966 157.595C337.991 159.284 335.427 160.119 332.837 159.917C330.246 159.715 327.843 158.492 326.154 156.517C310.552 138.179 291.154 123.451 269.302 113.35C247.45 103.25 223.665 98.0189 199.593 98.0189C175.521 98.0189 151.736 103.25 129.884 113.35C108.032 123.451 88.6342 138.179 73.0322 156.517C72.1961 157.495 71.1755 158.298 70.0289 158.882C68.8822 159.465 67.6319 159.817 66.3494 159.917C65.0668 160.017 63.7771 159.864 62.5539 159.465C61.3307 159.067 60.1979 158.431 59.2202 157.595C58.2426 156.758 57.4392 155.737 56.8559 154.59C56.2727 153.443 55.921 152.192 55.8209 150.909C55.7209 149.626 55.8744 148.336 56.2728 147.113C56.6711 145.889 57.3065 144.756 58.1427 143.778C75.5839 123.289 97.2652 106.833 121.688 95.5482C146.11 84.2636 172.691 78.4192 199.593 78.4192C226.495 78.4192 253.076 84.2636 277.498 95.5482C301.921 106.833 323.602 123.289 341.043 143.778ZM285.776 199.927C286.548 200.956 287.109 202.128 287.429 203.374C287.748 204.621 287.819 205.918 287.637 207.192C287.455 208.466 287.024 209.691 286.368 210.799C285.713 211.906 284.846 212.873 283.817 213.646C282.788 214.418 281.617 214.979 280.37 215.299C279.124 215.618 277.827 215.689 276.554 215.507C275.281 215.325 274.055 214.894 272.948 214.238C271.842 213.582 270.875 212.715 270.103 211.686C261.891 200.733 251.242 191.843 239.001 185.72C226.759 179.597 213.26 176.409 199.573 176.409C185.887 176.409 172.388 179.597 160.146 185.72C147.905 191.843 137.256 200.733 129.044 211.686C128.272 212.715 127.305 213.582 126.198 214.238C125.092 214.894 123.866 215.325 122.593 215.507C121.319 215.689 120.023 215.618 118.777 215.299C117.53 214.979 116.359 214.418 115.33 213.646C114.301 212.873 113.434 211.906 112.779 210.799C112.123 209.691 111.692 208.466 111.51 207.192C111.328 205.918 111.399 204.621 111.718 203.374C112.038 202.128 112.599 200.956 113.371 199.927C123.408 186.54 136.423 175.674 151.385 168.19C166.347 160.707 182.845 156.811 199.573 156.811C216.302 156.811 232.8 160.707 247.762 168.19C262.724 175.674 275.739 186.54 285.776 199.927ZM386.398 205.806V253.979C386.398 256.578 385.366 259.07 383.529 260.908C381.691 262.745 379.2 263.778 376.602 263.778C374.004 263.778 371.512 262.745 369.675 260.908C367.838 259.07 366.806 256.578 366.806 253.979V205.806C366.806 203.207 367.838 200.715 369.675 198.877C371.512 197.04 374.004 196.007 376.602 196.007C379.2 196.007 381.691 197.04 383.529 198.877C385.366 200.715 386.398 203.207 386.398 205.806ZM383.459 277.34C384.401 278.214 385.149 279.276 385.655 280.458C386.162 281.639 386.414 282.914 386.398 284.199C386.441 285.486 386.172 286.763 385.614 287.923C385.186 289.141 384.442 290.223 383.459 291.059C382.631 292.059 381.538 292.806 380.305 293.214C379.147 293.756 377.88 294.024 376.602 293.998C375.314 294.013 374.038 293.759 372.854 293.253C371.67 292.747 370.604 292 369.725 291.059C368.741 290.227 368.003 289.143 367.59 287.923C367.031 286.763 366.762 285.486 366.806 284.199C366.79 282.916 367.042 281.643 367.544 280.462C368.047 279.281 368.79 278.218 369.725 277.34C371.072 275.965 372.799 275.025 374.685 274.641C376.57 274.257 378.528 274.446 380.305 275.184C381.538 275.592 382.631 276.339 383.459 277.34Z" fill="#FF3939"/>
</svg>
