<svg width="260" height="194" viewBox="0 0 260 194" fill="none" xmlns="http://www.w3.org/2000/svg">
<path d="M208.683 69.7951C193.997 46.4295 168.145 32 140.715 32C128.591 32 117.001 34.7945 106.563 39.759C102.813 41.5401 99.2063 43.5873 95.7856 45.9109C91.762 48.6507 88.0196 51.7693 84.5481 55.1882C74.0116 65.5642 66.1982 78.8336 62.5742 93.9455C53.782 94.8702 45.7382 98.0809 38.951 102.926C34.5447 106.072 30.677 109.904 27.5001 114.295C25.092 117.632 23.0735 121.272 21.5325 125.166C19.2565 130.925 18 137.21 18 143.809C18 171.484 40.3532 194 67.8238 194H197.879C199.518 194 201.14 193.915 202.749 193.788C234.853 191.264 260 163.865 260 131.416C260 101.135 238.084 75.0189 208.683 69.7951ZM197.879 167.584H67.8238C54.8048 167.584 44.2209 156.918 44.2209 143.806C44.2209 135.023 48.9456 127.308 56.0817 123.193C58.3441 121.89 60.83 120.948 63.5022 120.45C64.0915 120.341 64.6741 120.239 65.2735 120.174C66.1135 120.082 66.9602 120.027 67.8204 120.027C72.159 120.027 76.4332 121.259 80.1689 123.593C80.8903 124.04 81.6963 124.258 82.499 124.258C82.5126 124.258 82.5261 124.258 82.5397 124.258C82.5464 124.258 82.5532 124.258 82.5668 124.258C85.0087 124.258 86.9934 122.262 86.9934 119.798C86.9934 119.382 86.9324 118.976 86.8274 118.591C86.6276 116.68 86.5294 114.8 86.5294 112.995C86.5294 109.9 86.8545 106.809 87.3761 103.755C87.4878 103.107 87.5488 102.445 87.6809 101.803C90.1601 89.834 96.5443 79.4648 105.269 71.8492C114.887 63.4556 127.344 58.4092 140.712 58.4092C156.549 58.4092 171.563 65.4038 181.91 77.6019C185.72 82.0921 188.761 87.1419 190.959 92.5977C191.626 94.2799 193.235 95.3888 195.02 95.3888C195.132 95.3888 195.244 95.382 195.359 95.3751L195.809 95.3478C196.585 95.2898 197.357 95.2625 198.133 95.2625C203.054 95.2625 207.982 96.3612 212.594 98.463C225.468 104.321 233.782 117.257 233.782 131.416C233.779 151.36 217.671 167.584 197.879 167.584Z" fill="#FF3939"/>
<path d="M43.3583 32.002L61.7183 13.658C63.2343 12.148 64.0683 10.138 64.0683 8.002C64.0683 5.866 63.2343 3.856 61.7183 2.344C60.2103 0.834 58.1943 0.002 56.0583 0.002C53.9203 0.002 51.9083 0.834 50.3943 2.344L32.0303 20.688L13.6683 2.344C12.1563 0.832 10.1442 0 8.00225 0C5.86625 0 3.85425 0.832 2.34225 2.344C-0.77975 5.464 -0.78175 10.538 2.34225 13.658L20.7062 32.002L2.34425 50.346C-0.77975 53.47 -0.77975 58.544 2.34425 61.662C3.85625 63.172 5.86825 64.004 8.00625 64.004C10.1442 64.004 12.1563 63.172 13.6683 61.66L32.0303 43.316L50.3923 61.658C51.9063 63.168 53.9162 64.002 56.0522 64.002C58.1923 64.002 60.2043 63.17 61.7163 61.658C64.8403 58.534 64.8403 53.46 61.7163 50.344L43.3583 32.002ZM58.8843 58.83C57.3723 60.34 54.7363 60.342 53.2203 58.83L33.4463 39.074C32.6623 38.288 31.3963 38.288 30.6143 39.074L10.8363 58.832C9.32225 60.342 6.68625 60.342 5.17225 58.832C3.61225 57.272 3.61225 54.734 5.17225 53.174L24.9503 33.416C25.3263 33.04 25.5362 32.536 25.5362 32.002C25.5362 31.472 25.3263 30.962 24.9503 30.588L5.17025 10.83C3.61025 9.27 3.61025 6.732 5.17025 5.172C5.92825 4.416 6.93425 4 8.00225 4C9.07425 4 10.0783 4.416 10.8363 5.172L30.6143 24.93C31.3963 25.712 32.6623 25.712 33.4463 24.93L53.2243 5.174C54.7383 3.662 57.3723 3.662 58.8883 5.172C59.6423 5.928 60.0603 6.934 60.0603 8.002C60.0603 9.07 59.6423 10.074 58.8883 10.83L39.1103 30.588C38.3263 31.37 38.3263 32.632 39.1103 33.416L58.8883 53.172C60.4483 54.732 60.4483 57.268 58.8843 58.83Z" fill="#FF3939"/>
</svg>
