<svg width="65" height="65" viewBox="0 0 65 65" fill="none" xmlns="http://www.w3.org/2000/svg">
<path d="M31.4163 1.01012L19.2943 13.1322C18.6882 13.7383 18.6882 14.5464 19.2943 15.1525C19.9004 15.7586 20.7085 15.7586 21.3146 15.1525L31.0123 5.45488L31.0123 42.2251C31.0123 43.0333 31.6184 43.6394 32.4265 43.6394C32.8306 44.0434 33.2347 43.6394 33.4367 43.4373C33.6387 43.2353 34.0428 42.8312 34.0428 42.4272L33.8408 5.45488L43.5384 15.1525C44.1445 15.7586 44.9526 15.7586 45.5588 15.1525C46.1649 14.5464 46.1649 13.7383 45.5588 13.1322L33.4367 1.01012C32.8306 0.404018 32.0224 0.404018 31.4163 1.01012Z" fill="#00ACD5"/>
<path d="M30.8102 48.4882L30.8102 62.6306C30.8102 63.4387 31.4163 64.0448 32.2244 64.0448C32.8305 64.2469 33.2346 63.8428 33.4366 63.6408C33.6387 63.4387 34.0427 63.0347 34.0427 62.6306L34.0427 48.4882C34.0427 47.6801 33.4366 47.0739 32.6285 47.0739C31.8204 47.0739 31.0122 47.8821 30.8102 48.4882Z" fill="#FFE239"/>
</svg>
