<svg width="200" height="200" viewBox="0 0 200 200" fill="none" xmlns="http://www.w3.org/2000/svg">
<rect width="200" height="200" rx="50" fill="#00ACD5"/>
<path d="M84.0154 70.245V62.7784C84.0154 60.695 82.3229 59.0058 80.2331 59.0058C78.1454 59.0058 76.4507 60.695 76.4507 62.7784V70.245C77.6837 70.0491 78.9479 69.9439 80.2331 69.9439C81.5205 69.9439 82.7846 70.048 84.0154 70.245Z" fill="#FFE239"/>
<path d="M99.5921 79.8205L104.896 74.5302C106.372 73.0568 106.372 70.6679 104.896 69.1945C103.42 67.7211 101.025 67.7211 99.5466 69.1945L94.2448 74.4837C96.2981 75.9693 98.1026 77.7725 99.5921 79.8205Z" fill="#FFE239"/>
<path d="M60.8741 79.8205C62.3657 77.7726 64.1714 75.9704 66.2235 74.4848L60.9218 69.1956C59.4435 67.7222 57.0485 67.7222 55.5724 69.1956C54.0941 70.669 54.0941 73.0579 55.5724 74.5313L60.8741 79.8205Z" fill="#FFE239"/>
<path d="M49.1375 97.5666H56.6245C56.4269 96.3367 56.3237 95.0781 56.3237 93.794C56.3237 92.5099 56.4281 91.2512 56.6245 90.0214H49.1375C47.0477 90.0214 45.3552 91.7106 45.3552 93.794C45.3552 95.8773 47.0477 97.5666 49.1375 97.5666Z" fill="#FFE239"/>
<path d="M60.8741 107.766L55.5724 113.058C54.0941 114.53 54.0941 116.92 55.5724 118.392C56.3093 119.13 57.2782 119.498 58.2471 119.498C59.2138 119.498 60.1827 119.13 60.9218 118.392L66.2235 113.103C64.1703 111.618 62.3646 109.814 60.8741 107.766Z" fill="#FFE239"/>
<path d="M63.8884 93.794C63.8884 95.0947 64.0549 96.3533 64.3457 97.5666C64.753 99.2747 65.4277 100.876 66.3267 102.329C67.6685 104.5 69.4998 106.326 71.6739 107.665C71.9714 107.846 72.2633 108.028 72.5718 108.193C75.3808 104.772 79.1265 102.134 83.4682 100.698C85.8244 94.8058 89.7544 89.831 94.6799 86.1713C94.5112 85.858 94.3269 85.558 94.1405 85.2569C92.8009 83.0872 90.9674 81.2596 88.7932 79.9212C87.3349 79.0245 85.7301 78.3504 84.0154 77.9452C82.799 77.6563 81.5382 77.4881 80.233 77.4881C78.9279 77.4881 77.6671 77.6563 76.4507 77.9452C74.7382 78.3504 73.1345 79.0245 71.675 79.9212C69.5009 81.2596 67.6674 83.0872 66.3278 85.2569C65.4277 86.7093 64.7541 88.3111 64.3468 90.0192C64.056 91.2335 63.8884 92.4933 63.8884 93.794Z" fill="#FFE239"/>
<path d="M137.221 99.2791C132.409 91.6985 123.938 87.017 114.949 87.017C110.976 87.017 107.178 87.9236 103.757 89.5343C102.529 90.1121 101.347 90.7763 100.226 91.5302C98.9073 92.4191 97.6809 93.4309 96.5433 94.5401C93.0906 97.9064 90.5302 102.212 89.3427 107.114C86.4615 107.414 83.8257 108.456 81.6015 110.028C80.1576 111.049 78.8902 112.292 77.8492 113.716C77.0601 114.799 76.3986 115.98 75.8936 117.243C75.1478 119.112 74.7361 121.151 74.7361 123.292C74.7361 132.271 82.061 139.576 91.0629 139.576H133.681C134.218 139.576 134.75 139.548 135.277 139.507C145.797 138.688 154.038 129.799 154.038 119.271C154.038 109.447 146.856 100.974 137.221 99.2791ZM133.681 131.005H91.0629C86.7967 131.005 83.3284 127.545 83.3284 123.291C83.3284 120.441 84.8767 117.938 87.2151 116.603C87.9565 116.181 88.7711 115.875 89.6468 115.713C89.8399 115.678 90.0308 115.645 90.2272 115.624C90.5025 115.594 90.7799 115.576 91.0618 115.576C92.4835 115.576 93.8842 115.976 95.1083 116.733C95.3447 116.878 95.6089 116.949 95.8719 116.949C95.8763 116.949 95.8808 116.949 95.8852 116.949C95.8874 116.949 95.8896 116.949 95.8941 116.949C96.6943 116.949 97.3446 116.301 97.3446 115.502C97.3446 115.367 97.3247 115.235 97.2903 115.11C97.2248 114.49 97.1926 113.88 97.1926 113.295C97.1926 112.291 97.2991 111.288 97.4701 110.297C97.5067 110.087 97.5267 109.872 97.5699 109.664C98.3823 105.78 100.474 102.416 103.333 99.9455C106.485 97.2223 110.567 95.5851 114.948 95.5851C120.137 95.5851 125.057 97.8544 128.448 101.812C129.697 103.269 130.693 104.907 131.413 106.677C131.632 107.223 132.159 107.583 132.744 107.583C132.781 107.583 132.817 107.58 132.855 107.578L133.003 107.569C133.257 107.551 133.51 107.542 133.764 107.542C135.377 107.542 136.992 107.898 138.503 108.58C142.722 110.481 145.446 114.677 145.446 119.271C145.445 125.742 140.167 131.005 133.681 131.005Z" fill="#FFE239"/>
</svg>
