<svg width="63" height="53" fill="none" xmlns="http://www.w3.org/2000/svg"><path d="M39.26 45.148a1.96 1.96 0 00-1.964 1.983v3.886c0 1.096.87 1.983 1.963 1.983a1.96 1.96 0 001.963-1.983v-3.886c0-1.096-.87-1.983-1.963-1.983zm-15.704 0a1.96 1.96 0 00-1.963 1.983v3.886c0 1.096.871 1.983 1.963 1.983a1.96 1.96 0 001.963-1.983v-3.886a1.968 1.968 0 00-1.963-1.983zm23.555-3.926a1.96 1.96 0 00-1.963 1.983v3.887c0 1.095.87 1.982 1.963 1.982a1.96 1.96 0 001.963-1.982v-3.887c0-1.096-.87-1.983-1.963-1.983zm-15.704 0a1.96 1.96 0 00-1.962 1.983v3.887c0 1.095.871 1.982 1.962 1.982a1.96 1.96 0 001.963-1.982v-3.887c0-1.096-.87-1.983-1.963-1.983zm-15.703 0a1.96 1.96 0 00-1.963 1.983v3.887c0 1.095.871 1.982 1.963 1.982a1.96 1.96 0 001.963-1.982v-3.887a1.968 1.968 0 00-1.963-1.983z" fill="#0500FF"/><path d="M54.15 16.12c-1.817-4.831-6.481-8.268-11.946-8.268-1.259 0-2.474.182-3.624.522C35.467 3.347 29.902 0 23.556 0 13.929 0 6.097 7.703 5.893 17.28 2.369 19.32 0 23.13 0 27.481 0 33.983 5.274 39.26 11.778 39.26h39.259c6.501 0 11.778-5.286 11.778-11.777 0-5.428-3.67-9.998-8.665-11.362zm-3.107 19.213H11.772c-4.325 0-7.846-3.515-7.846-7.851a7.861 7.861 0 016.06-7.648 13.58 13.58 0 01-.171-2.167c0-7.59 6.152-13.741 13.74-13.741 6.207 0 11.453 4.116 13.156 9.766a8.788 8.788 0 015.493-1.914 8.835 8.835 0 018.78 7.852h.059c4.324 0 7.846 3.515 7.846 7.852 0 4.328-3.512 7.851-7.846 7.851z" fill="#8987FF"/></svg>