<svg width="41" height="53" fill="none" xmlns="http://www.w3.org/2000/svg"><path d="M0 32.498c0-2.438.664-5.236 1.992-8.394a47.15 47.15 0 015.146-9.17c4.315-5.708 8.078-10.03 11.232-12.94L20.445 0c.691.72 1.466 1.385 2.296 1.995 1.134 1.163 2.877 3.075 5.201 5.79s4.343 5.126 6.003 7.342a49.244 49.244 0 015.008 9.004C40.308 27.317 41 30.116 41 32.526c0 2.77-.526 5.402-1.605 7.924-1.079 2.52-2.517 4.71-4.343 6.538-1.826 1.828-4.011 3.297-6.557 4.377A20.402 20.402 0 0120.445 53c-2.767 0-5.395-.526-7.913-1.58-2.517-1.052-4.703-2.465-6.529-4.294-1.826-1.8-3.292-3.989-4.37-6.51C.552 38.095 0 35.38 0 32.498zm6.252-8.117c0 2.3.47 4.128 1.439 5.513.968 1.357 2.435 2.05 4.399 2.05 1.992 0 3.458-.693 4.454-2.05.968-1.358 1.466-3.186 1.494-5.513-.028-2.328-.526-4.156-1.494-5.541-.968-1.358-2.462-2.05-4.454-2.05-1.964 0-3.43.692-4.399 2.05-.968 1.385-1.439 3.213-1.439 5.54zm4.344 0v-.97c0-.222.027-.527.055-.914.028-.388.056-.693.139-.887.083-.194.138-.443.249-.665.11-.221.248-.416.414-.499.194-.11.388-.166.637-.166.387 0 .691.111.913.333.221.221.387.581.47 1.052.083.5.138.887.166 1.247.028.36.028.831.028 1.44 0 .638 0 1.109-.028 1.442-.028.332-.083.747-.166 1.246-.083.471-.249.831-.47 1.053-.222.222-.526.332-.913.332a1.21 1.21 0 01-.637-.166.929.929 0 01-.414-.498 3.984 3.984 0 01-.25-.665 5.448 5.448 0 01-.138-.887c-.027-.388-.055-.693-.055-.886v-.942zm1.632 21.471h3.652l13.805-29.755H25.95L12.228 45.852zm11.896-8.284c.028 2.328.553 4.156 1.522 5.541.968 1.358 2.462 2.05 4.426 2.05 1.992 0 3.458-.692 4.427-2.05.968-1.357 1.438-3.214 1.466-5.54-.028-2.328-.498-4.157-1.466-5.514-.969-1.358-2.435-2.05-4.427-2.05-1.964 0-3.458.692-4.426 2.05-.996 1.357-1.494 3.186-1.522 5.513zm4.344 0c0-.637 0-1.108.027-1.44.028-.333.083-.748.166-1.247.083-.499.25-.831.47-1.053.222-.222.526-.332.914-.332.249 0 .47.055.664.166.193.11.332.277.442.526.11.25.194.471.277.665.083.194.11.499.138.887l.028.886v1.912l-.028.887-.138.886-.277.665-.442.526-.664.167c-.388 0-.692-.111-.913-.333-.222-.221-.388-.582-.47-1.053a15.88 15.88 0 01-.167-1.246c-.027-.333-.027-.832-.027-1.469z" fill="#000"/></svg>