<svg width="75" height="75" fill="none" xmlns="http://www.w3.org/2000/svg"><circle cx="37.5" cy="37.5" r="37" stroke="#fff"/><path d="M40.977 5.273V14h-1.022l-4.756-6.852h-.085V14h-1.057V5.273h1.023l4.772 6.869h.086v-6.87h1.04zM61.97 42v-8.727h5.268v.937h-4.21v2.95h3.937v.937h-3.937v2.965h4.278V42h-5.335zM39.503 63.455a1.338 1.338 0 00-.622-1.006c-.363-.239-.81-.358-1.338-.358-.386 0-.724.062-1.014.187a1.62 1.62 0 00-.673.516 1.237 1.237 0 00-.239.746c0 .233.055.433.166.6.114.165.259.303.435.414.176.108.36.197.554.268.193.069.37.124.532.167l.887.238c.227.06.48.142.758.247.282.105.55.249.806.43.258.18.471.41.639.691.168.281.251.627.251 1.036 0 .471-.123.897-.37 1.278-.245.38-.603.683-1.074.908-.469.224-1.038.336-1.709.336-.625 0-1.166-.1-1.624-.302a2.587 2.587 0 01-1.073-.844 2.407 2.407 0 01-.44-1.257h1.092c.028.33.139.602.332.818.196.213.443.372.741.478.302.102.625.153.972.153a2.86 2.86 0 001.087-.196c.32-.134.575-.318.762-.554a1.31 1.31 0 00.282-.835c0-.29-.081-.526-.243-.708a1.782 1.782 0 00-.64-.443 6.703 6.703 0 00-.856-.298l-1.074-.307c-.682-.196-1.221-.476-1.62-.84-.397-.363-.596-.839-.596-1.427 0-.489.132-.915.397-1.279.267-.366.625-.65 1.074-.852a3.627 3.627 0 011.512-.307c.563 0 1.063.101 1.5.303a2.6 2.6 0 011.04.818c.259.347.395.74.41 1.18h-1.024zM7.642 42l-2.386-8.727H6.33l1.823 7.108h.086l1.858-7.108h1.193l1.858 7.108h.085l1.824-7.108h1.074L13.744 42h-1.09l-1.927-6.955h-.068L8.733 42H7.642zm22.905-11.453a2.667 2.667 0 10-3.771-3.771 2.667 2.667 0 003.77 3.77zm16.145 15.438L29.015 28.308l-.707.707 17.677 17.677.707-.707z" fill="#fff"/></svg>