<svg width="101" height="101" fill="none" xmlns="http://www.w3.org/2000/svg"><path d="M63.42 50.606V38.08H50.894v12.526H63.42zm-31.316 0H44.63V38.08H32.104v12.526z" fill="#fff"/><path d="M7.051 75.036v-43.22h68.896v12.527h6.264V19.914c0-3.804-3.035-6.888-6.784-6.888h-2.612v3.133a6.272 6.272 0 01-6.262 6.263 6.272 6.272 0 01-6.264-6.263v-3.132H22.71v3.132a6.271 6.271 0 01-6.263 6.263 6.272 6.272 0 01-6.263-6.263v-3.132h-2.61c-3.748 0-6.786 3.083-6.786 6.887v55.123c0 3.791 3.038 6.887 6.787 6.887H44.63v-6.265H7.574c-.284 0-.523-.293-.523-.623z" fill="#000"/><path d="M13.314 16.159V3.632A3.13 3.13 0 0116.446.5a3.13 3.13 0 013.131 3.132v12.527a3.13 3.13 0 01-3.131 3.13 3.13 3.13 0 01-3.132-3.13zm53.239 3.131a3.13 3.13 0 003.131-3.131V3.632A3.13 3.13 0 0066.553.5a3.13 3.13 0 00-3.133 3.132v12.527a3.13 3.13 0 003.133 3.131zm18.789 56.369h-9.395v-9.395c0-1.73-1.4-3.13-3.132-3.13-1.731 0-3.13 1.4-3.13 3.13v12.528a3.13 3.13 0 003.13 3.131h12.527a3.13 3.13 0 003.132-3.131 3.13 3.13 0 00-3.132-3.133z" fill="#fff"/><path fill-rule="evenodd" clip-rule="evenodd" d="M101 75.659c0 13.837-11.217 25.054-25.053 25.054-13.835 0-25.053-11.217-25.053-25.054 0-13.835 11.218-25.053 25.053-25.053C89.783 50.606 101 61.824 101 75.66zm-25.053-18.79c10.362 0 18.79 8.43 18.79 18.79 0 10.362-8.428 18.79-18.79 18.79-10.361 0-18.79-8.428-18.79-18.79 0-10.36 8.429-18.79 18.79-18.79z" fill="#000"/><path d="M32.104 69.397H44.63V56.869H32.104v12.528zm-18.79 0H25.84V56.869H13.314v12.528zM25.84 38.08H13.315v12.526H25.84V38.08z" fill="#fff"/></svg>