<svg width="40" height="40" fill="none" xmlns="http://www.w3.org/2000/svg"><path fill-rule="evenodd" clip-rule="evenodd" d="M12.902 17.188h2.839c.478 1.255.943 2.361 1.733 3.29-1.419-.452-2.524-1.105-3.467-2.035-.477-.327-.79-.781-1.105-1.256zm1.105-10.554c.943-.956 2.048-1.735 3.467-2.061-.79.954-1.255 2.06-1.733 3.161h-2.839a42.58 42.58 0 011.105-1.104v.004zm13.077 1.1h-3.151c-.313-1.104-.943-2.36-1.57-3.315 1.418.477 2.687 1.105 3.63 2.211.313.301.79.782 1.094 1.105h-.003zm-2.36 4.398c0-1.27-.156-2.536-.465-3.769H27.4c.64 1.106 1.118 2.513 1.118 3.769h-3.795zm0 .625h3.792c0 1.432-.478 2.688-1.118 3.945v-.15h-3.141c.313-1.107.464-2.362.464-3.794l.002-.001zm-4.422 3.794v-3.787h3.794c0 1.432-.163 2.688-.479 3.794l-3.315-.007zm0 .625h3.014c-.477 1.406-1.117 2.663-1.896 3.618-.313 0-.791 0-1.118.15v-3.768zm-4.725-4.422h4.11v3.794H16.22c-.313-1.107-.478-2.362-.642-3.794zm-.625-.625h-3.468c.151-1.256.478-2.663 1.107-3.769h2.988c-.313 1.256-.625 2.513-.625 3.769h-.002zm4.736-3.762v3.769h-4.11c.163-1.256.327-2.513.642-3.769h3.468zm0-.633h-3.319c.465-1.255 1.268-2.36 2.048-3.467.313 0 .79-.15 1.27-.15v3.617zm3.93.63c.315 1.231.476 2.497.48 3.768h-3.796V8.367l3.317-.004zm-3.316-.63V4.12c.327 0 .804 0 1.117.151.782.93 1.42 2.212 1.897 3.467l-3.014-.004zm-8.818 5.03h3.468c0 1.432.312 2.688.625 3.794h-2.989c-.629-1.106-.955-2.362-1.106-3.794h.002zm6.933 8.04c-.781-1.106-1.583-2.211-2.048-3.617h3.319v3.768c-.479-.15-.956-.15-1.27-.15zm7.578-2.362a9.609 9.609 0 01-3.63 2.212c.625-1.106 1.255-2.212 1.57-3.467h3.152c-.301.478-.782.929-1.094 1.255h.002zM20 40a31.346 31.346 0 002.2-3.768c3.956-6.457 10.414-18.116 10.414-23.77C32.614 5.678 26.934 0 20 0 13.066 0 7.387 5.678 7.387 12.463c0 5.653 6.457 17.312 10.403 23.769A31.03 31.03 0 0020 40z" fill="#5B5B5F"/></svg>