<svg width="55" height="149" fill="none" xmlns="http://www.w3.org/2000/svg"><path d="M19.2 9.112c.704-.731 1.405-1.283 1.169-.98 1.372-1.553 1.506-1.482 1.52-1.846.854-1.025 1.974-1.907.977-.768l2.6-2.815-1.646 1.592c.244-.484 1.873-1.898 2.619-2.75l.031-.037.135-.1c.268-.198.53-.355.67-.452a3.928 3.928 0 00-.715.384l-.1.066-.08.08-2.502 2.528.098-.195c-.615.72-1.933 1.994-2.405 2.425.047-.095-.037-.089.475-.61-3.549 3.527-.698 1.208-3.586 4.192.18-.188.41-.413.74-.714zm-3.362 2.649l-1.052 1.417L12.67 15.2c.04.087-1.418 1.646-.341.68.19-.21.565-.623.89-.936-.095.367-2.686 2.821-1.94 2.35 1.602-1.673 1.883-1.894 2.78-3.013 1.514-1.488 2.639-2.55 3.39-3.201.424-.466.404-.613.953-1.195l-.38.39-.265-.144c-.429.515-.896.94-1.416 1.47l2.185-2.664c-.973.59-3.242 3.084-4.273 3.956 1.352-1.008-.854 1.025 1.586-1.133zm13.324 104.93c-.005-.728-.074-.943-.108-1.048l.003 4.102v.765a25.193 25.193 0 01-.077 1.981 22.224 22.224 0 01-.127 1.229c.055-.118.171-.741.241-1.15.07-.408.12-.597.082.171.074-.337.125-1.031.118-1.677-.009-.639-.06-1.266-.109-1.418l.116.595c-.149-1.891.144-3.182.232-1.95l-.002-.159-.572-5.236c-.034 1.922.196 1.481.203 3.795zM36.24 9.928c.77.733.882.806.816.7a20.88 20.88 0 00-.816-.7zm-7.416 101.744l-.179-1.64c.048.657.113 1.234.179 1.64zm2.591 11.511c.01.004.016.023.033-.021l-.01-.393-.017-.392-.001.02-.005.786zm-3.263-48.741l-.013-.538c.002.196.007.373.013.538zm-7.657 69.319s.797-.612 1.541-1.28a29.808 29.808 0 001.443-1.381c-.325.431 1.042-.927.505-.273.218-.216 1.176-1.277.876-1.023l-.278.298-.282.294c.65-.838.715-1.054.911-1.385.184-.338.523-.776 1.467-2.212-.682.821-1.173 1.403-1.57 1.907-.399.5-.706.918-1.064 1.361-.256.285-.482.514-.712.745 0 0-.536.626-1.115 1.219a28.572 28.572 0 01-1.191 1.158l-.263.287-.268.285zM35.563 14.465l-.041-.015c.03.02.04.021.041.015zm-.208-.075l.167.06c-.166-.112-.722-.617-.167-.06zm-6.377 97.885c-.044-.05-.098-.261-.154-.603l.134 1.224.02-.621zm.519 2.784l.034 3.073.122 1.133c-.046-1.176-.078-2.552-.156-4.206z" fill="#202020"/><path d="M28.012 79.296c-.036-6.366.28 1.563.347-1.361-.033-1.768-.165-2.391-.207-3.493.113 5.049-.437-.684-.367 4.408-.24-.725-.261-3.673-.196-5.4.23-1.956.17 1.708.396 2.151-.038-2.043-.08-1.683-.209-2.55.054-3.209-.284-6.638.037-8.554-.051-2.322-.162-2.17-.284-3.505-.247-.266-.13 3.454-.325 4.314.021-.178.063-.526.098-.425l-.052 2.008c.086-1.906.247.264.267 1.283.005.741.015 2.214-.053 2.011l-.053-1.121c-.078 1.444.18 3.186.046 4.71-.055.08-.081-.497-.116-.584.17 1.709.16 3.357.279 5.886l-.245-1.466c.271 2.023.194 6.605.05 9.78.042-.352.071-.987.119-.606.058 1.865-.11 3.274-.24 2.41.204 1.822-.17 6.942.094 9.425l1.247 11.415a26.414 26.414 0 01-.067-1.356c.215-1.038.189-1.597.392.221-.114-1.785-.287-1.103-.296-3.785.108 1.052.356 1.318.381-1.252-.215-6.423-.828-10.68-1.14-16.68.165-.22.119-4.93.158-7.22.178.874.229 2.573.265 4.336l.024-4.424-.35-.576z" fill="#202020"/><path d="M28.57 94.21c.015-.16.023-.326.031-.496a4.43 4.43 0 00-.031.497zm-.237-9.377c.006.022.011.015.018.022l-.013-.559-.005.537zm1.02 25.936l.108 1.045-.043-.813c-.023-.27-.045-.399-.065-.232zm-.293 1.285l-.068-.204-.014.425c.037.044.067-.004.082-.221zm.453-57.084l-.036-.61c.003.368.018.527.036.61z" fill="#202020"/><path d="M28.294 72.205c.016 2.214.248.265.25 3.397l.014-.92c.106 2.248.058 6.197.066 8.867-.098-.302-.12 1.619-.273 1.307.036 1.825.07 3.632.228 4.573-.051 1.13.088 2.848.022 4.285.093-.606.314 2.047.2-1.451.013.282.034.105.047.384.13-2.254-.09-3.157-.093-5.099.092-1.16.148 1.898.185.803-.086-2.424.11-7.607-.235-7.446-.023-1.764.052-2.008.115-2.534-.367-2.79.158-10.357-.311-10.331.018 1.018.008 2.679.109 4.174l-.324-.009zm1.034 34.847l.005-.431-.005.431zm-5.007 26.116l.093-.443.084-.442a25.742 25.742 0 002.184-5.126c.44-1.49.777-2.945.926-5.04.064-.318.058.193.048.453a28.06 28.06 0 00.077-2.471l-.004-2.887c-.006-1.912-.025-3.713-.095-4.893.002-1.031.1-3.738.19-2.713a23.375 23.375 0 01-.044-1.653c.11-.152.032 1.292.122 1.325.007-.458.029-.636-.006-.741.094.77.374-.799.366 2.791-.257 1.39-.03-2.49-.313-1.669-.003 1.191.107 1.052.142 1.154-.006 1.517-.078 1.477-.142 1.396.088.582-.035 2.49.099 3.292.022 2.951-.213-.16-.21 1.767l.287 1.11-.027 1.602-.01.584-.015.476-.023.463c-.024 1.075-.05 1.575-.019 1.802.027.226.098.177.168.146.07-.03.142-.042.163.267.017.307.003.942-.228 2.182-.02-.679-.611 1.259-1.514 3.374.247-.644.525-1.587.75-2.59.231-1.002.407-2.062.566-2.933-.301 1.215-.157.367-.054-.63.105-1 .115-2.153-.037-1.515.034.612.004 1.431-.108 2.286-.11.856-.303 1.746-.533 2.508l.098-.512c-.207.817-.347 1.548-.56 2.349a11.77 11.77 0 01-1.065 2.701c-.514 1.048-.499.808-.458.598-.415.89-.843 1.664-.898 1.632zm1.177-2.235s.178-.344.343-.695c.166-.35.32-.706.32-.706-.185.322-.411.852-.663 1.401zM3.956 30.815a2.999 2.999 0 01-.878-.201c.18.082.513.18.878.201zM24.6 125.34l.106-.445.095-.447-.2.892zm-.388-21.524l-.067-1.425c.004.562.03 1.003.067 1.425zm-10.74-81.09l.035-.032.149-.17-.184.202zm11.413 37.171c.024-.217.046-.46.064-.794-.029.04-.05.336-.064.794zm-.66 44.182l.005-.087-.018-.176.013.263zm-4.165 28.825l-.33.457a5.66 5.66 0 00.33-.457zm1.403-.538l-.304.481.304-.481zm-10.347 15.126l.678-.207c.337-.107.67-.224.67-.224l-1.348.431zm8.171-12.723c-.04.061-.078.121-.102.164.11-.128.152-.198.102-.164zM5.714 23.15l-.055.057v.047l.055-.104zm1.962-2.554l.8-.833a21.77 21.77 0 00-.8.833zm17.672 20.221c.042-.348.091-1.164.139-.783-.06-.666-.206-.622-.14.783zM3.775 27.938a.247.247 0 01-.1-.104c-.008-.026-.016-.012-.02-.077l.005.078v-.028.003l.002.002.002.006.004.012a.8.8 0 00.018.04.238.238 0 00.041.058c.027.026.045.03.048.01zm-.121-.181c-.005.014-.01-.008-.011-.026a.604.604 0 01.001-.16.401.401 0 00-.004.163c.003.02.008.035.014.023zm24.081 21.907c-.02.086-.035.22-.04.402.038-.053.047-.198.04-.402zM9.168 19.136c.098-.195 3.54-3.848.531-.889-.035-.266 1.845-1.984 2.603-2.817-.613.543.19-.384-.039-.263-.376.413-.802.926-1.465 1.567-.369.231.574-.805 1.373-1.552-1.032.872 1.088-1.329-.32-.042-2.828 2.934-4.81 5.025-6.615 7.271 1.606-1.678 3.398-3.56 4.806-4.846l-.436.697c-1.637 1.407-2.491 2.432-4 3.918l3.432-3.295c1.684-1.466.655-.388-.563.878.307-.304.592-.572.693-.627zm-1.121 3.412l.06-.053c.044-.054.103-.118.128-.155l-.188.208zm1.91 121.383l.351-.163c-.298.113-.39.154-.35.163zM5.408 23.922l.003-.003a.175.175 0 01-.003.003zM5.2 140.715c-.018-.007-.023-.014-.064-.021-.194.018-.1.024.063.021zm22.435-32.84s-.032.156-.062.402c.017.095.037 0 .062-.402zm-.273 9.757l-.02.179.02-.179zm-2.846-74.508c-.002.483.002.846.01 1.151.005-.352.004-.733-.01-1.15zM4.108 144.685zm22.595-51.688l.02.3.01-.178-.03-.122z" fill="#202020"/><path d="M26.838 87.905c.021.174.043.254.062.351-.076-1.817.007-5.156-.19-5.551.005.616-.11 3.814-.225 3.269.049 1.267-.089 3.14-.057 3.822.108-2.08.166-.225.232 1.18-.057 1.276-.158-.24-.194.859l.022 2.954.026-2.573.189.782-.018-.263c-.088-4.355.276-.37.153-4.83z" fill="#202020"/><path d="M26.9 88.256c.012.273.027.512.047.698-.003-.411-.023-.57-.047-.698zm.312-17.79c-.01-.224-.018-.466-.03-.77l.03.77zm2.393 50.969c-.029.037-.095.679-.168 1.302-.072.623-.149 1.229-.074 1.217a25.88 25.88 0 00.25-2.227l-.008-.292zm-3.238-99.431l-.003.85.022.165c.022-.173-.005-.732-.019-1.015zm.049 63.186c.023.465.046.672.069.784a5.904 5.904 0 00-.069-.784zm.297-63.345c.041-.36.105-.89.16-.966.001-.736-.075-1.253-.102-2.003a36.66 36.66 0 01-.058 2.969zm.055-3.03l.003.06-.003-.06z" fill="#202020"/><path d="M29.683 119.939l-.03-.674.039.351.044-1.745-.023-.719c.005.113.02.2.036.255l.017-.56c-.15-1.389-.26-4.848-.348-5.846a75.88 75.88 0 01-.09-3.949c-.002.939.027 2.186.11 1.812.087-1.907.337-2.835.122-6.126l.003 1.931-.322-4.34c.134-1.52.16 2.166.277 2.768-.159-3.375.266-6.183-.014-7.747.166-.22.443-.59.426-2.806-.19 1.597-.121-1.328-.323-.017-.095-.766.06-2.471-.065-2.599l.07.207c.261-3.782-.15-5.02-.285-6.638-.068-4.528.04-6.608.012-10.301.11-.145.416-1.15.405-2.633-.15-.689-.22-4.03-.413-4.372-.08 2.65.162 2.168.206 3.753-.201 1.32-.2.12-.32 1.923.079-1.455-.105-6.575.084-8.169l.027.563c.115-2.544.591-3.03.303-7.268l-.118-2.022c.02.097.042.108.059.16.02-3.31.24-2.406.066-6.06.013.282.035.105.048.391.108-2.083-.11-4.183-.154-5.758.16-.962.157.228.273.822.063-3.664-.213-7.619-.409-9.895l.094-2.362c.067 1.401.236 3.113.333 2.686-.032-1.299-.108-1.047-.078-2.885.103.314.199 1.084.328 1.948.172-3.8-.364-.849-.05-3.508.003-1.194-.147-1.888-.271-2.018l.162-2.163c-.158-.24-.167-2.91-.19-4.66-.068-.214-.17 1.409-.108 2.072-.124-.13-.182-1.992-.18-3.19.166-.219.154-2.178.15-3.906-.003-.864-.004-1.67.02-2.172.025-.565.075-.765.172-.367l-.096-7.102 4.466 4.357 1.86 1.792 1.44 1.357c.762.892 2.446 2.582 1.325 1.68 3.06 3.063 4.879 4.401 7.854 7.503.222.281-1.376-1.371-1.346-1.185 1.04.946 1.918 1.874 2.93 2.943.506.535 1.045 1.104 1.654 1.729l.97.98.534.527c.098.096.172.17.26.232a1.4 1.4 0 00.286.16c-.28-.124-.407-.242-.545-.347a1.433 1.433 0 00-.25-.157c-.003-.023.079.039.217.157l.113.098a1.528 1.528 0 00.422.256c.23.092.515.127.778.075.265-.048.5-.181.658-.33l.097-.076c.018-.012.017-.007.003.01a1.068 1.068 0 01-.166.16c-.152.125-.37.21-.225.177a1.41 1.41 0 00.834-.94 1.423 1.423 0 00-.23-1.217c-.115-.154-.324-.339-.489-.511a826.52 826.52 0 00-.521-.519l-1.032-1.018a387.63 387.63 0 00-4.049-3.899c-2.681-2.553-5.372-5.09-8.327-8.056 1.688 1.694 2.482 2.178 2.564 2.132l-1.654-1.659c-.715-.56-1.958-1.804-3.057-2.786-.098-.157-.573-.694-.02-.215-1.558-1.714-2.906-2.92-4.356-4.21-.725-.645-1.476-1.31-2.29-2.07-.408-.38-.831-.783-1.276-1.22l-.167-.165-.006-.006c-.025-.01.352-.127.113.04-.045.069-.012.02-.023.034l-.006-.003-.02-.013-.047-.03-.098-.058-.046-.027-.009-.006-.002-.001.117-.212c-.236.423-.068.116-.121.21l-.004-.002-.007-.004-.013-.007-.08-.043-.006-.002c.002-.008-.008.015.006-.022.02.022-.023-.101.047.04l-.005-.002-.01-.003-.062-.02-.113-.035a1.019 1.019 0 00-.664.028l.214-.082c.118-.03.304-.064.514-.012l.119.029c-.033-.018.01-.001.032.007.07.03.13.06.214.104l.115.06.004.003h.002c-.064.02.127-.02-.073-.06l.002.002.014.012.026.024.055.048.223.196.948.834 2.584 2.27-1.092-1.31 2.276 1.993c-1.188-1.36-2.495-2.27-2.531-2.542.302.236.94.896 1.025.853-1.178-1.27-1.362-1.279-2.305-2.176 2.663 2.185 7.413 6.942 10.03 9.442.421.384-.403-.287-.498-.334 1.052 1.036 1.604 1.737 2.96 3.01.916.715-.549-.697-1.186-1.355.177.001.498.332 1.232 1.04.04.274 3.918 4.001 4.704 5.074 3.891 3.817-.312-.92 3.398 2.893l.99 1.257 1.817 1.67.479.445.138.135a2.481 2.481 0 01.429.62c.293.595.338 1.318.102 1.963a2.56 2.56 0 01-3.43 1.471 2.577 2.577 0 01-.664-.417c-.063-.054-.138-.128-.17-.159l-.48-.478-.936-.947.525.517c.404.29-.134-.32-.358-.603-1.81-1.925-3.652-3.44-4.649-4.706-2.272-1.987-5.93-5.433-8.438-7.795-.48-.834 3.327 3.027 4.45 3.93l-2.217-2.216c1.373 1.368 1.981 1.842 2.903 2.563-1.91-1.976-2.703-2.46-4.59-4.257.191.095-.025-.18-.873-1.031l-.359-.124c-.006-.025-.091-.128-.346-.398l-.523-.5-.972-.923-1.142-1.071c.48.58.466.77.973 1.28-.07-.138.004-.105.172.039.083.072.188.17.309.286l.6.595c-.82-.665.76.891.68.936l-1.327-1.324-.816-.8a46.35 46.35 0 00-1.255-1.184l-.304-.52-.56-.575.019 1.704c.008.532.011 1-.007 1.375l-.08-.364c-.013.43-.016.874-.015 1.31l.004 1.952c0 1.324-.013 2.61-.087 3.829.174 2.45.32 5.534.502 7.536.197 1.072-.247 7.189.03 9.95-.02.187-.148-1.896-.223-2.839-.03 1.837.215 3.298.007 3.874.07-4.123-.165.222-.224-1.636.004 1.93.04 3.966.115 4.913-.001-3.124.287 1.11.197-2.053.174 2.45.244 5.795.176 8.716-.09-.029-.13.33-.168 1.42l.13.878c-.023 1.366-.154-2.643-.2.108.223 2.83-.126 8.524.285 9.763-.162 2.157-.164-4.105-.363-.854-.149-1.891.022-4.5-.184-5.124.059 1.854-.173.677-.175 1.873l.126 2.068.008-.458c.194 3.47.1 8.967.134 13.398.206 3.754.505 6.337.482 10.84-.12-1.33-.116 3.738-.338.904-.107 2.083.02 4.14.109 4.18.03-1.832.028-.644.073-2.188.109 1.042.103 3.444.032 4.431.008-.457-.012-.283-.047-.384-.073 2.188.108 1.049.154 2.63-.152.502-.041 3.492-.12 4.936l.218 2.094c-.143-1.15-.053 2.007-.184 2.337.1 1.502.277 2.761.239 5.048-.075-.945-.108 2.086-.252 2.126-.139 3.916.394 6.485.187 10.194-.034-.115-.129-.864-.165.22.02.43.027 1.008.028 1.616 0 .629-.027 1.265-.053 1.747l-.002-.03v.05c-.024.473-.038.771-.004.786a26.054 26.054 0 01-.108 2.302c-.088.833-.227 1.872-.667 3.471.116-.09.373-.81.585-1.669.216-.859.375-1.854.44-2.457l-.006-.53-.014-.529c.184-.479.242-1.228.243-1.944.004-.713-.052-1.413-.01-1.749.074.439.128 1.204.112 2.067a23.184 23.184 0 01-.244 2.935c-.294 2.105-.938 4.332-1.517 5.971.506-.936 1.144-2.515 1.594-4.399.46-1.88.71-4.058.694-6.082 0 0-.025.446-.066.89-.039.444-.092.886-.092.886s.034-.528.047-1.055l.01-.725v-.308l-.029.297-.07.7c-.056.508-.133 1.012-.133 1.012.038-.495.058-.976.064-1.444l-.003-1.294-.01-2.466c.003 1.936-.225 2.69-.19 1.595.163-2.158-.106-2.248-.096-3.897-.014.918-.018 2.112-.112 1.342.199-3.251.07-4.13.281-7.087-.276.367-.027-3.694-.253-4.137l-.023 1.372-.167-2.91c.225-2.686.23 2.378.389-1.709.028-3.77-.263-3.673-.284-6.638.163.977.304 3.328.299 5.72l.079-1.448c.095.766.075 4.075.065 5.726-.188-2.729-.058 1.277-.205 2.519.159.228.134-1.524.26.544-.002-1.938-.016-2.221.044-4.687-.072 5.329.55 4.792.416 9.443-.071-2.143-.228.748-.304 1.006.02 1.009.056 3.055.096 3.897l.229-.762c.05 1.355-.048 2.268-.127 3.233l-.117 1.668-.126 2.195c.039.231.152-.521.206-1.257.058-.736.061-1.452.064-1.141-.036 2.364-.387 3.961-.826 5.434-.456 1.471-1.008 2.84-1.909 4.704-.04.24.142.262-.402 1.628.078-.473-.45.463.17-1.05-.629 1.233-1.355 2.705-1.995 3.754.818-1.193.693-.927.35-.282-.345.643-.985 1.613-1.118 1.85-.944 1.18.191-.436.665-1.23-.706.986-1.758 1.966-2.053 2.611-.072-.032.417-.721 1.024-1.662a47.792 47.792 0 001.846-3.11s-.188.32-.385.634l-.403.623c.478-.906.605-1.05 1.314-2.34-.773 1.22-.83 1.017-.75.683.108-.153-.02.108.083-.038.602-1.009.932-1.851.75-1.636.132-.518-.06-.159-.355.4-.294.56-.716 1.312-.959 1.625a28.184 28.184 0 01-.91 1.52s-.707 1.343-1.583 2.604a28.984 28.984 0 01-1.88 2.44 16.595 16.595 0 01-2.414 2.013c-.722.492-1.406.892-2.267 1.37l-.378.423c-1.987 1.161-4.03 1.885-2.767 1.122.097.016.367-.119.813-.329.049-.049.144-.114.266-.191l.087-.077c-2.146 1.149-3.609 1.615-3.733 1.677.96-.391 1.428-.646 1.618-.769.19-.126.099-.131-.09-.098-.379.07-1.157.262-.89.005 0 0-.949.384-1.928.688a27.19 27.19 0 01-1.98.541c2.449-.475.086.162-.79.341-.136-.061-.952.086-1.926.204-.973.124-2.104.204-2.828.19l.106-.035-.166-.005a77.941 77.941 0 00-.179-.012c-.107-.008-.182-.02-.266-.033a3.223 3.223 0 01-2.613-2.467 3.214 3.214 0 012.364-3.818c-.036-.002.164-.095.537-.155l.148-.02.04-.004c-.008-.001.01-.002.013-.004l.043-.007.187-.033.392-.077a17.93 17.93 0 001.676-.405c-1.23.096-1.482.041-1.45.01.031-.037.342-.096.241-.143.253-.001.706-.037.757-.064.342-.077-.477-.021-.548-.076-.317.03-.655.052-.956.066l-.255.009-.153.004a4.027 4.027 0 00-1.524.341 3.999 3.999 0 00-1.795 1.572 3.94 3.94 0 00-.575 2.168c.018.721.247 1.411.593 1.959.347.55.805.969 1.283 1.251a3.642 3.642 0 001.76.513c.06.002.141.004.183.002l.067-.008.008-.001h.061l.017-.003.034-.005.067-.011.124-.021-.176-.016-.135-.006-.091-.007-.212-.018-.166-.022a3.999 3.999 0 01-1.507-.538c-.72-.44-1.384-1.165-1.616-2.256a3.87 3.87 0 001.405 2.035 3.75 3.75 0 001.952.73l.116.007.075.003h.137l.187-.003a30.925 30.925 0 003.418-.235l.428.011.429.004s.64-.12 1.27-.275c.633-.15 1.256-.333 1.256-.333-.516.169-.609.246-.905.362-.297.111-.794.285-2.151.5.182.04.858-.063 1.686-.251.829-.185 1.804-.464 2.613-.693l.382-.217.377-.223c-.14.103.641-.13 1.154-.297.51-.168.776-.218-.397.307 0 0-.965.402-1.962.724a28.5 28.5 0 01-2.016.576l.584-.063.584-.076s-.862.23-1.738.398c-.874.175-1.76.288-1.76.288l.411-.101.41-.107c-1.41.242-2.233.275-2.747.281-.516.001-.728-.038-.94-.074a5.215 5.215 0 00-.357-.05l-.116-.011-.064-.004-.034-.003a69.46 69.46 0 00-.095-.003l-.271-.022a4.174 4.174 0 01-2.42-1.074 4.125 4.125 0 01-1.33-3.413 4.048 4.048 0 011.305-2.77 4.18 4.18 0 012.394-1.08c.078-.007.157-.015.236-.018l.172-.006.193-.007c.905-.039 2.016-.094 3.41-.322-1.005.202-1.058.225-.943.266.113.035.39.056.011.174 1.058-.098 1.75-.282 2.3-.468.551-.19.964-.385 1.466-.601.272-.031.506-.062.45-.002-.056.055-.4.22-1.312.48-.08.151.522-.026 1.157-.263.637-.232 1.302-.531 1.433-.451 1.45-.647 2.375-1.284 3.07-1.832.694-.555 1.161-1.037 1.637-1.543a86.32 86.32 0 001.617-1.796c.651-.756 1.493-1.716 2.508-3.218l-.056.285c1.163-1.998 1.821-3.705 2.294-5.41.232-.855.406-1.714.522-2.628a18.087 18.087 0 00.14-2.166l-.01-.836.262-3.788c.04.847.236 3.125.362 2.062-.066.46-.11.928-.14 1.402l-.072 1.375c-.052.874-.146 1.762-.358 2.632.04.192.203-.52.278-.833-.065.538-.16.937-.266 1.374l-.39 1.609c.081-.046.505-1.557.262-.401 0 0-.157.466-.339.92-.178.455-.38.898-.38.898-.412 1.231-.484 1.555-.568 1.935-.101.371-.206.818-1.043 2.126.186-.567.583-1.677 1.017-2.768-.3.626-.125.196.036-.253.158-.451.298-.92.028-.351-.275.96-.597 1.633-.995 2.352a32.076 32.076 0 01-1.644 2.579c.167-.267.189-.354.555-.894 0 0-.568.779-1.211 1.493-.637.721-1.345 1.369-1.345 1.369.38-.29-.148.304-.781.905-.629.606-1.373 1.2-1.172 1.17.847-.6 1.38-1.063 1.783-1.427.402-.367.67-.644.948-.936.276-.294.561-.604.96-1.075.396-.472.914-1.1 1.575-2.086-.34.579-.738 1.242-1.12 1.842l-.964 1.504a2.45 2.45 0 00-.192.178c-.387.658.178.156.402.387.7-.897 1.286-1.629 1.87-2.43.577-.803 1.157-1.678 1.697-2.892.03-.263-.184.059-.5.577a86.16 86.16 0 01-1.101 1.777s.304-.493.578-1.002c.276-.509.52-1.031.52-1.031l-.146.438c0-.001.745-1.269 1.283-2.638a21.035 21.035 0 00.903-2.793c-.255 1.083-.286 1.471-.397 2.053.256-.721.51-1.438.737-2.218-.205.128-.287-.002-.14-.727a25.24 25.24 0 00.372-2.514c.076-.757.101-1.398.134-2.043.067-1.254.153-2.188.25-2.934a45.726 45.726 0 01-.012-.471c-.174.678-.312-2.871-.489-4.123.18.062.108-2.083.2-3.248-.206-.62-.49.207-.658 1.626.188 2.733.19 1.531.456 2.822l.178 4.385-.164-.981c-.036 1.095 0 2.168.018 2.946.01.393.014.705 0 .893-.014.195-.042.289-.095.25-.058-.516-.08-1.309-.092-2.068-.013-.766-.028-1.53-.099-2.103l-.078 1.447c-.21-2.553.202-1.309.056-4.401-.182 1.138-.013-.28-.135-1.605-.126 1.064.052 5.444-.256 4.515-.135-1.608.36-5.409.055-7.537l.034.104c.04-3.138-.136-4.241-.247-5.416.1-1.336-.04-3.18-.052-4.627l.09.035-.037-2.042c.163.972-.005 2.393.02 4.147l.166-.218c-.198 2.022.103 3.371.246 4.939-.144-2.282.04-6.445-.285-6.98l.168-1.413-.06-.675c.126-1.053.324.022.361 2.062-.042.354-.063.53-.097.424.074.947.203 1.816.165 4.107l-.088-1.222c-.012 2.852.052 5.446.216 6.423.07-4.119.084-8.168.077-12.036-.377-1.14-.588-2.494-.938-3.075-.064-2.595-.112-6.118.016-8.372l.068.207c.036-1.1.017-2.113-.022-2.958.092-1.162.185.795.234-.014l-.117-3.716c.158.229.159 3.356.17 4.841-.013-.28-.04-.846-.06-.664-.066 1.727.204 4.946-.025 5.701.04.841-.17-1.71-.181 1.14-.087 1.907.12 2.529.188 2.728.09.031.123-2.994.23-1.944-.01-1.485-.126-2.077-.04-3.976.011 1.472.193 3.47.054 4.255.168 2.91.588 2.493.611 1.12-.132.327-.162-5.309-.334-1.492-.17-1.715-.171-4.846-.277-7.09l.034.103-.042-2.784c.047.392.087 1.234.176 1.261l-.24-3.856c.161 2.171.112-1.346.183-2.333-.137-.413-.238-1.92-.316-.474-.1 1.625.074.946.085 2.423l-.217-2.092.021-.179-.177-1.26c.013-2.849.412 1.245.239-2.406l-.241.475c.035-4.227.307-9.655.195-12.642.138.824.359 1.187.49.054-.043 1.288-.034 3.876-.011 5.723-.042.356-.285-2.307-.234-4.314-.395.972.24 5.048-.161 5.283-.14 5.113.385 3.815.15 8.154.18.06.087 1.234.245 1.462.292-1.284-.01-5.801.092-8.618.013.276.04.83.074.94.052-2.014.012-2.846-.054-4.252l-.021.177c-.175-2.457.134-1.52.212-2.967-.026-.56.025-2.571-.106-2.248l.17-2.62-.2.127c-.012-1.477.12-1.8-.001-3.14l-.179-.061-.062 3.669c-.058-1.86-.171-.518-.209-2.562.196 2.283.1-1.614.265-1.84l-.1-1.502.047.384c.092-1.18-.066-1.404-.043-2.78-.1 1.623-.225 2.686-.098 4.755-.1-1.506-.212-4.493-.218-5.226-.075-1.581.061-2.685.081-4.165.072 2.84.542-.994.414 4.696-.035-.106-.027-.566-.006-.744-.228.758.015 3.41.102 4.644.131-.317.164.973.237-1.214-.084.717-.293-1.843-.186-3.924l.282.366.033-3.03.013.284c.181-1.14-.035-3.232.072-5.32-.1-1.505-.02-7.284-.315-4.798.176-1.873-.048-3.516-.086-5.56l-.115 2.548c-.2-3.011-.07-2.144-.391-4.554.077-.244.14-.78.221-.291.015-4.046.094-9.823-.136-12.196l.006-.508.005-.233.007-.07c.01-.094.023-.183.039-.272l.103-.566a6.186 6.186 0 00.054-1.622c-.004-.021-.009-.03-.015-.025-.176.264-.102.443-.583.82-.016 0 .16-.249.272-.427.11-.177.132-.257-.282.173-.328.481-.595.706-.964 1.027l-.137.12-.071.062-.035.032-.085.08c-.24.235-.483.473-.728.71-.484.482-.961.98-1.412 1.496-1.075.966-2.825 2.757-2.577 2.267 1.644-1.589 3.906-3.901 4.196-4.308-.075.148.23-.122.412-.272.104-.089.117-.086.11-.062-.017.035-.156.195-.436.503l.435-.407.173-.155a3.12 3.12 0 00.472-.509c.137-.182.297-.393.736-.77.049-.098-.046-.07-.201.042a2.264 2.264 0 00-.468.446c-.022-.144.523-.729.983-1.238.23-.253.436-.486.537-.633.1-.144.103-.21-.133-.073-.708.693-1.198 1.348-1.552 1.828a7.884 7.884 0 01-.528.658c-.046.05-.094.1-.146.15l-.3.287c-.224.21-.47.43-.747.662.179-.23.397-.475.638-.734l.549-.587c.298-.324.597-.668.921-1.165l-1.078.945-.107.144-.106.144c-.021.029-.032.047-.064.086l-.102.124-.545.665.048-.096c-3.098 2.794-2.555 2.895-5.108 5.614 1.642-1.412-.066.64 1.153-.439-1.742 1.784-3.058 3.057-3.236 2.903 3.163-3.433.013-.362 2.896-3.576-.56.441.484-.968-1.351.83-1.93 2.166.75-.474-1.237 1.622-.135.106-.276.216-.228.12-.853 1.026-1.127 1.066-2.168 2.296l.236-.302c-1.501 1.3-1.418 1.646-2.734 2.743.605-.36-.709.91-1.38 1.735 1.269-1.176 2.107-1.662 4.509-4.083.194-.389-.036-.266.908-1.304l-1.556 1.58c.322-.355.555-.637.846-.967l1.556-1.456c-1.84 1.98-.86 1.207-1.571 2.12-1.79 1.704-1.415 1.468-2.546 2.535-.016-.127-.919.655-2.08 1.708l-1.86 1.704-.47.433-.23.213-.083.076-.081.07a3.03 3.03 0 01-2.187.718 2.978 2.978 0 001.77-.464 3.07 3.07 0 00.411-.313c.025-.026.049-.05.071-.075l.031-.03.007-.009.014-.016.028-.032.096-.111.132-.162c.062-.082.077-.114.056-.108a.756.756 0 00-.16.115l-.137.118-.186.166a2.9 2.9 0 01-1.495.707c-.508.076-.892-.016-.92-.03 0 0-.155-.012-.382-.07a2.83 2.83 0 01-1.164-.62l-.042-.036-.049-.047-.046-.042a3.265 3.265 0 01-.149-.163c-.155-.183-.24-.322-.24-.322.065.102.144.21.22.295.062.074.176.186.191.19.022.01.035.012-.004-.043-.066-.088-.168-.212-.3-.44a2.91 2.91 0 01-.449-1.51L1.26 27.7c0-.042.002-.083.003-.124a3.048 3.048 0 01.621-1.735l.166-.205.268-.325c.2-.234.45-.513.804-.879.186-.03-.912 1.306.025.453.377-.24 1.542-1.041 3.385-3.023.105-.165.584-.678 1.146-1.265-.076.084-.173.187-.204.229L8.83 19.64c-.948 1.216-2.252 2.126-3.205 3.348l.035.22c-.846.846-1.94 2.05-2.403 2.645 1.312-1.269 1.55-1.574 2.967-3.044.283-.121-.674.955-.812 1.11l.143-.288c-.914.808-1.527 1.482-2.182 2.219l-.504.567c-.185.19-.366.45-.461.741a1.87 1.87 0 00.452 1.932c.363.316.133.14.023.096a1.902 1.902 0 001.838.287c.299-.106.562-.318.765-.537l.645-.636c.86-.847 1.708-1.692 2.47-2.617l-.483.617 5.335-5.935-.032-.068c-.278.22.565-.62 1.037-1.052l-.002.003L17.387 16c-.313.252-.701.588-1.123.996-.294.41-2.402 2.424-1.988 2.273-1.032.872-2.451 2.52-3.2 3.17 1.358-1.19-.764 1.011-.914 1.308-.511.345-1.881 1.894-1.827 1.615-.28.222.7-.551 1.175-1.16 1.23-1.44-2.535 2.35-.972.589-1.018 1.096-2.232 2.333-3.45 3.58l-.22.223c-.049.048-.054.051-.081.075a1.11 1.11 0 01-.473.229c-.28.06-.581.01-.823-.138-.505-.29-.7-.96-.484-1.472 0 0-.039.066-.078.176a1.257 1.257 0 00.103 1.037 1.313 1.313 0 01-.174-.938c.037-.183.115-.366.234-.52.057-.077.126-.143.227-.244l.273-.272c.719-.713 1.343-1.322 1.455-1.381l-1.153 1.18-.632.648a1.14 1.14 0 00-.296.58c.043.02.082-.1.178-.261.049-.081.111-.168.2-.256l.414-.42c.565-.578 1.144-1.18 1.234-1.193L7.46 22.54l-1.18 1.165c.663-.815 3.206-3.173 5.04-4.972-.868 1.215-2.736 2.745-4.578 4.726-1.322 1.454 1.025-.69-.247.665.38-.3 1.233-1.162 1.612-1.628l.55-.488c-.507.665-1.427 1.646-2.421 2.696L4.73 26.3l-.715.78-.17.189-.083.093a.422.422 0 00-.117.21c.007-.068.03-.132.028-.168a.57.57 0 00-.206.462.604.604 0 00.104.32c.013.02.03.04.027.04l.05.054.014.013c.017.016.035.03.053.045a.624.624 0 00.757-.013 9.53 9.53 0 00.364-.378l-.257.226-.094.083c-.021.014-.003-.002-.026.014a1.206 1.206 0 01-.144.08.689.689 0 01-.276.073c-.012-.03.15-.023.292-.113a.501.501 0 00.107-.088l.047-.049.008-.009.005-.004-.02.02v-.002l.003-.002.017-.018.033-.037.065-.071c.173-.19.33-.364.436-.492a11.09 11.09 0 01-.597.529l-.018.014-.009.006-.002.002.022-.022h-.001l-.004.003a.325.325 0 01-.07.042c-.006-.006-.009-.014-.014-.018-.032-.016.003-.066-.101-.025a.438.438 0 00.05-.051c-.044.038.1-.107.18-.194l.559-.57 1.285-1.255c.563-.443-.333.498-.153.474.952-1.046 1.595-1.316 2.966-2.867-1.976 1.91.342-.682.96-1.404l-.332.32c.525-.707 1.045-1.234 1.554-1.576-.758.833-1.554 1.577-1.234 1.443a56.446 56.446 0 001.608-1.68l-.474.608 2.593-2.63c.331-.496.906-1.303 1.147-1.785.7-.553 1.511-1.487 2.077-2.11l-.242.31c.61-.54 1.542-1.466 2.34-2.293a49.7 49.7 0 001.036-1.104c.137-.152.252-.283.336-.384l.112-.137c.046-.055.079-.097.096-.124.177-.16.166-.122.034.044l-.117.143-.094.123-.245.31-1.254 1.55c-.366.465-.58.77-.342.59.119-.09.35-.301.731-.673l.69-.685.977-.992c1.587-1.588 2.067-2.184 2.404-2.656.335-.47.498-.789 1.523-1.894 0 0-.122.17.07.007 1.516-1.482 1.734-1.876 3.09-3.306-.903.832-2.31 2.237-2.768 2.761.356-.487 1.768-1.845 3.018-3.093 0 .859.007 1.64.042 2.139-.211-1.814-.08 4.475-.189 2.915-.034 1.138-.05 2.245-.05 3.321l.009 1.59.01.773.015.622a44.17 44.17 0 00.203 3.047c-.265 1.847.035 3.239-.088 6.237.008-.461-.032-1.297-.003-1.942-.168-1.709-.088 3.107-.242.476.027.563.09.04.063-.537-.019-1.009-.092-1.959-.17-1.705l-.148 2.443-.04-.853-.206 3.708c.034.1.076-.247.097-.426-.091 4.3.024 9.218-.004 12.985.474.708.203 9.275.495 12.32-.136-.817-.377-1.263-.475-.758-.02-.679-.212-2.069-.172-3.608.076-.246.163-2.148.25-.924-.055-4.255-.209.576-.385-.68.046 4.715.324 7.48.435 10.456l-.056.075.107 2.247c.031-1.836.3-1.745.206.622l-.014-.288c-.113 1.35.02 4.158.003 6.267l.155 1.43c-.017 2.111-.307 2.202-.48 2.889-.02 3.31.216 5.222.358 7.573-.127 1.063-.156 6.021-.31 3.394.112 2.986.788 2.383.413 7.504l-.122-1.329c.026 4.896.268 11.879.14 14.135-.438-1.806-.445 6.115-.874 6.986.098-.243.13 1.596.183 1.865-.05.403-.1 1.074-.01 1.786.085-1.909.445 1.342.271-2.308.294 1.847.524 4.227.51 8.274l-.18-.061.055-3.202c-.132.323-.122-1.325-.183-2-.1 5.956-.419-.78-.395 5.309.116.588.068.207.114 1.79-.006-.745-.13-.879-.132.321l.143 1.152c-.298 2.126-.194-3.52-.404-1.706-.14-2.351-.215-6.423-.444-5.665-.083 3.84.428 3.455.324 7.469l-.097.428c.07 1.414.205 1.679.247 2.48-.065.067-.121.436-.262 1.364a19.83 19.83 0 01-.428 3.257 32.998 32.998 0 01-.822 3.071 30.937 30.937 0 001.124-3.349c.233-.853.39-1.502.527-2.162a18.126 18.126 0 00.392-3.811 98.16 98.16 0 00-.039-1.981c.019.236.036.68.055 1.216.021.519.043 1.205.033 1.847-.01 1.293-.133 2.496-.035 2.655l-.168-.089c-.252 2.076-.735 4.172-1.925 6.541 0 0 .153-.374.291-.754.14-.378.265-.762.265-.762-.595 1.647-1.36 2.902-2.127 4.016-.775 1.116-1.555 2.098-2.367 3.219a15.108 15.108 0 001.486-1.837c-.997 1.5-2.573 3.153-4.117 4.354 0 0-.734.7-1.536 1.333a24.735 24.735 0 01-1.653 1.208c-.006-.047-.574.247-1.023.438-.448.192-.763.302-.237-.034-1.34.586-2.33.989-3.188 1.333-.858.34-1.585.614-2.412.816-.748.109-.963.107-.86.071.102-.04.521-.127 1.035-.258 1.033-.246 2.421-.738 2.514-.91a27.526 27.526 0 01-5.902 1.218c-.47.045-.923.076-1.366.097l-.327.013-.15.006-.07.003-.01.002a.151.151 0 00-.058.034c-.066.061-.053.147-.01.165.02-.016.038-.014.055-.008.016.006.038.025.032.02.003.001-.025-.016-.019-.009-.002.014-.002.006.003.014.03-.031.004-.001.007-.002-.003.007 0 .006 0-.007-.002-.005.009-.005-.006-.011-.005-.007-.047-.009-.022-.014l.039-.007.019-.003.009-.002.004-.001h.003l-.043-.015.062.007c.153.018.22.036.21.055-.011.019-.1.039-.259.06.065.006-.117.008-.043.013.033.007.01.011.01.016a.094.094 0 01-.033.023c-.237.032.82-.029 1.456-.101.709-.072 1.416-.16 2.085-.172-1.08.23-2.34.326-3.464.322h-.024c.077.001.02.001.037.001H4.14l-.027-.001-.056-.002c.006-.002.035.002.026 0-.007 0-.014-.003-.02-.004-.014-.003-.025-.009-.038-.015a.209.209 0 01-.06-.054.409.409 0 01-.063-.121c.008.087.04.124.082.166a.29.29 0 00.063.044l.033.013c.008.003-.006.001-.013.002-.003 0-.012.001-.008.002l.038.002.038.002h-.029.026l.07.002c.746.023 1.37.034 2.033.02a16.727 16.727 0 002.264-.196 18.125 18.125 0 003.38-.88c.087.03-.836.447.252.089 1.245-.464 1.37-.614 1.296-.65-.078-.045-.367-.015-.013-.23-.917.418-1.621.651-2.233.81-.613.157-1.137.238-1.72.294l.497-.215c.092.037 1.302-.295 1.665-.376l.245-.285c-.036.124.435.07 1.093-.126a10.836 10.836 0 002.184-.942c-.751.293-1.034.371-1.186.389-.152.015-.177-.036-.423-.063.96-.543 1.526-.781 2.127-1.047.594-.271 1.228-.57 2.17-1.374-.098.176-1.892 1.387-.296.413.644-.431.886-.669 1.074-.869.187-.202.319-.369.7-.717-.393.436-.52.628-.653.832-.136.203-.276.42-.743.872-1.15.789-1.41.905-1.638 1.054-.238.134-.448.303-1.658.937 0 0 .539-.214 1.067-.457.53-.239 1.047-.508 1.047-.508-1.018.619-1.392.843-1.508.969-.119.122.01.125-.063.2.94-.42 1.555-.779 1.994-1.068a7.04 7.04 0 00.922-.713c.436-.407.717-.708 1.749-1.517.444-.453-.026-.058-.44.261-.418.318-.765.575-.028-.078.956-.758 1.025-.892 1.132-1.035.097-.154.24-.318 1.162-1.314l-.26.383c.664-.518 1.127-1.219 1.716-1.976.308-.431 0-.292-.047-.471-.026-.09.015-.257.214-.617.197-.361.559-.912 1.111-1.815-.066.203-.08.285-.064.295 0 0-.23 1.078-.586 2.157a25.013 25.013 0 01-.81 2.148 26.327 26.327 0 004.085-6.035 26.088 26.088 0 002.354-7.484c.222-.605.18.352.017 1.419-.159 1.068-.47 2.227-.363 2.086 0 0-.178.59-.389 1.17a25.52 25.52 0 01-.444 1.149c-.028-.085.416-1.294.657-2.256.245-.961.36-1.645-.006-.6-.509 2.093-1.134 3.545-1.802 4.927a36.688 36.688 0 01-2.576 4.407c.508-.413 1.314-1.523 2.06-2.866.757-1.34 1.435-2.908 1.99-4.139a57.194 57.194 0 01-1.134 2.795 25.928 25.928 0 002.55-7.711l.018-.654c-.272 1.931-.67 3.224-.717 3.389.69-2.497.636-4.703.436-4.874l-.04.45v-.46l-.007-.459c.041-.594.055-1.185.067-1.788zM40.17 13.461c.125.095.229.165.314.209-.089-.045-.028.044-.314-.21zM7.777 142.258a21.528 21.528 0 01-3.138.263l-.657.003a2.18 2.18 0 00-2.07 2.126 2.196 2.196 0 00.556 1.51c.362.409.88.675 1.426.729.271.021.466.009.68.011l.63-.013a28.04 28.04 0 01-1.123-.056 2.105 2.105 0 01-1.174-.454c-.648-.513-.85-1.317-.729-1.91a1.814 1.814 0 01.814-1.217c.33-.205.61-.236.749-.235.142.007.153.036.033.083-.116.055-.385.13-.692.416a1.565 1.565 0 00-.432 1.57 1.522 1.522 0 001.447 1.093c.27-.001.572-.004.877-.015l.641-.06c-.321.006-.7.012-1.12.011-.204-.006-.453.008-.62-.025a1.443 1.443 0 01-.723-2.489c.123-.133.311-.286.574-.385.252-.104.616-.1.995-.156a21.598 21.598 0 002.354-.428c.766-.183 1.462-.4 1.959-.577.496-.175.797-.306.78-.314-.597.039-1.401.365-2.469.488l.432.031zm2.523.156c.951-.25 1.302-.403 1.456-.484.152-.084.104-.114.231-.206-.641.25-1.293.472-1.947.659.257-.049.389-.056.26.031zm1.548-.728c-.206.073-.384.13-.48.151l.48-.151zm13.306-6.094l-.113.164c.276-.366.543-.742.811-1.141l-.698.977zm-2.684 2.873l-.215.433c.308-.296.616-.605.922-.93-.152.06-.298.135-.707.497zm-10.754 6.056c-.342.208-1.144.495-1.887.717-.742.226-1.422.395-1.485.514-.158.081.397.016 1.014-.096a25.792 25.792 0 002.173-.535c.017-.038.16-.11.4-.217-.75.213-1.268.287-1 .08.998-.135 1.408-.34 1.82-.568.41-.235.827-.493 1.815-.898.276-.212-.275.012-.979.289l-1.871.714zm9.94-132.042a9.81 9.81 0 00-.496.318l1.09-1.24c.876-.85 1.673-1.563 2.394-2.216.727-.659 1.381-1.259 2.11-2.021.013.507.043.982.099 1.451-.066 1.397-.206 2.227-.322 2.922.009-.564.02-1.1.038-1.567a58.117 58.117 0 01-.1-2.118c-.662.691-1.047 1.05-1.335 1.286-.287.235-.47.341-.688.49a6.94 6.94 0 00-.904.743 37.36 37.36 0 00-1.886 1.952zm4.679 20.009c-.014-.284-.049-.386-.049-.386.392 6.144.506 11.203.49 14.516.156-.643.276-3.614.34-5.025l.178 1.25-.14.781.161 2.17c.12-.606.095-2.359.186-3.53-.034-.102-.24-3.854-.35-4.903l-.122 2.998c.05-.81.009-4.787-.036-6.364-.09-.03-.226 2.687-.033 3.029-.132.323-.133-2.81-.274-.828-.14-2.348-.023-6.084.042-7.817l.221-.293c.086-1.902-.267-1.285-.139-3.544.043 2.778.243-.47.26 1.74.083-.706.233-.014.217-2.228-.293-1.843.184-2.334-.075-4.076.092-1.164.177 1.253.216-1.038-.154-2.627-.265-2.474-.478-2.637-.06 2.456.277 2.76.225 4.768l-.365-3.995a16.744 16.744 0 00-.042 1.738 20.791 20.791 0 00-.15-2.068l-.108-.923c-.002 2.265-.007 4.276-.098 4.632l-.104-.312c-.095.801-.02 2.108.056 2.71.01 2.029.155 4.054.021 4.497l-.095-.77c.03 2.493.043 2.771.045 5.908zm-.236 81.729c.38-1.51.714-3.176.648-10.226l.026.555c.238-3.553-.315-6.927-.05-11.25.143 2.098.13 1.985.457 4.3l-.108-2.25c.207.624.1-1.62.11-3.272l.245 1.457c-.07.991-.096 3.56-.04 3.485-.027-.562-.31 3.392-.239 5.541.167-.222.1-4.758.37-2.732-.113-1.786.053-2.007-.006-3.873.114 1.79.227.443.348 1.775l-.056-3.06c.055-.08.123 4.456.327 1.95-.087-1.227.022-4.5-.157-4.56l.055-.075c.039-2.293-.253-1.009-.151-3.825-.09-.033-.152.504-.134 1.513.04.853.163.983.188 2.74-.14.787.018-2.12-.219-.9-.118.606.102 4.637-.164 3.353l.038-2.29c-.18-.058-.169-1.716-.314-1.67-.065-1.4.136-2.72-.02-4.15-.115-.594-.33.443-.237-1.922.265-1.849.213-7.295.176-9.335l-.115-1.785c-.11.151.015 3.41-.128 2.264l-.043-2.784.07.215c.014-.923-.06-1.867-.099-2.708.129.867.078 2.874.264 2.475.036-1.307.106-1.506.07-2.709.013.263.032.489.058.456.08-2.646-.209-2.556-.27-3.219-.243-2.66-.225 2.681-.417 2.341l-.103-7.766c.06.663.12 1.331.198 1.081.086-1.905.144-.043.135-2.718-.255.19-.159-3.367-.306-5.257.104-.883.125-1.064.128.866.166-.221.103-2.813.117-3.734-.04-.534-.065-1.444-.102-2.021-.082.773-.186.443-.257-1.23l-.034-.098c-.046 2.744-.227 7.007-.057 8.727l-.082-.487c-.144 3.175.297 6.91-.016 8.374-.123-.136-.028.638-.207.582l.14 2.338-.081-.486.04 3.977-.034-.105.403 4.553c.078.005.102-.118.16.512.038.632.044 1.112.034 1.54v.003c-.023.975-.135 1.625-.18 2.827l-.02-3.698c-.133-.301-.27.013-.363 1.825-.005-.74-.108-1.051-.123-.134.034.1.084 2.423.19 1.538.049 3.513-.3 9.2-.048 14.533-.151-3.832-.177 3.071-.232-1.183-.212 2.97.209 2.555.176 5.582-.077.258.01-1.648-.14-2.343-.086 5.032.342 8.491.278 13.359l-.166.208.07 3.01zm-.038 9.576a22.125 22.125 0 01-.537 2.768l.078-.266s-.147.682-.342 1.354c-.19.673-.429 1.335-.429 1.335.359-.784.637-1.448.759-1.618.114-.173.11.162-.284 1.322.009-.216-.323.417-.06-.386a35.38 35.38 0 01-1.36 2.765c-.466.855-.797 1.425-.443 1.097.691-1.408.8-1.551.934-1.596.115-.052.233-.015.652-1.186-.373 1.292-1.07 2.433-1.694 3.529.568-1.196-.366.141-1.627 1.618-.247.344-.75.949-1.34 1.568a36.116 36.116 0 01-1.787 1.729c.242-.104.142.059.205.066.058.002.301-.13 1.16-.916-.585.62-1.564 1.53-2.828 2.309.472-.35 1.265-.998 1.173-1-.826.488-1.736 1.113-2.288 1.381-.408.264-.828.517-1.245.749.132-.054.248-.1.336-.123 0 0-.337.228-.684.441-.345.216-.7.418-.7.418.963-.499 1.18-.621 1.18-.572-.002.045-.24.237-.233.282-.025-.177-1.26.615-1.962.888 0 0 .394-.109.786-.233.391-.122.78-.262.78-.262-.334.22-.986.48-1.502.663-.517.184-.895.304-.668.322a19.923 19.923 0 003.73-1.719 21.342 21.342 0 003.119-2.267s-.268.177-.54.345l-.549.33c.69-.55 1.126-.926 1.462-1.195.335-.272.566-.443.809-.624a9.35 9.35 0 00.852-.707 13.73 13.73 0 001.44-1.598c.467-.69 1.327-1.92 1.936-3.072.62-1.147 1.008-2.183.9-2.271-.062.243.249-.294.573-1.083.328-.786.641-1.831.735-2.509.067-.758.268-2.25.301-3.393.042-1.142-.006-1.922-.072-1.246-.027 1.204-.103 2.85-.465 3.771 0 0 .105-.576.176-1.157.075-.58.117-1.163.117-1.163s-.07.378-.153.753c-.081.375-.177.745-.177.745.167-.772.02-.711-.224-.386zm-7.086 20.026l.083-.049-.09.057.007-.008z" fill="#202020"/><path d="M6.696 22.202c.428-.515 1.603-1.676 1.281-1.54.131.074-2.07 2.102-1.282 1.54zm1.496-1.296c.058-.106-.038-.088.482-.616l-1.417 1.47.935-.853zm2.162-.764c.668-.82 1.097-1.335 2.271-2.496.688-.189-1.842 1.981-2.138 2.744 2.163-2.117 2.602-2.992 4.341-4.773-.976.767-4.599 4.27-4.473 4.524zm-.635 1.265l1.134-1.246-.132.103-1.135 1.247.133-.104zm12.945-7.041c.093-.015.305-.226.542-.487.085-.108.136-.207.2-.29-.053.048-.12.103-.19.17a9.244 9.244 0 00-.552.606zm17.491 6.412l9.154 9.004-9.154-9.004zM25.385 42.86c-.104-3.448-.294-4.98-.342-8.492-.222 4.619.347 6.1.12 9.979l.222-1.487zm-.88-1.216c.208-.572.244 2.66.396 2.16-.05-2.324-.198-1.083-.18-3.191l-.216 1.03zm3.433-15.624l.108 1.046-.04-.841-.068-.204zM24.69 57.356l-.047-.38-.066 1.728.113-1.348zm3.694-29.992l.044-1.553-.096-.769.052 2.322zM27.27 41.078l-.067-1.39c.013.276-.073 2.177.066 1.39zm-2.668 26.836l.08 1.69.02-.172-.08-1.686-.02.168zm3.24-15.957c.16-.96.043 2.773.184.798-.024-1.758-.108-1.044-.184-.798zM26.76 72.362c0 .228.005.469.023.7l-.023-.7zm0 0c0-.736.06-1.473.015-1.978-.073.918-.046 1.253-.015 1.978zm.037 8.438l.011-.668c.079.682.067.36.004-.25-.006-.708-.056-.668-.09-.752l-.063-.435.058.58c-.001 1.096.007 1.765.08 1.525zm-2.69 31.344c.059-2.466.088-3.104.212-2.97.04-2.341-.174-1.978-.224-3.39.024 2.649-.033 3.19.012 6.36zm-.012-6.36l-.01-.925c-.003.385.002.671.01.925zm4.056-34.846l.19 1.533-.026-.563-.164-.97zm-4.107 44.866c.008-.457.003-1.191.045-1.55-.124-.132-.052 2.006-.044 1.55zm2.43-9.512c.076-.25.03-1.828.06-2.47-.016.921-.245 1.672-.06 2.47zm-2.032 16.37c.055-.411.176-1.047.26-.763-.01-.307-.065-.667-.118-.673-.056-.007-.078.337-.142 1.436zm2.009-11.863l.043-.352-.08-1.687.037 2.039zm1.831-6.02c-.148-1.898-.357 3.012-.482-.258-.155 4.217.209-.323.185 2.788.05-1.822.237-2.715.297-2.53zm-.297 2.53c-.008.264-.012.551-.013.862l.013-.862zm-4.97 26.172c.147-.24.238-.411.32-.569-.11.193-.213.378-.32.569zm5.092-16.237l-.222-2.845c.147 1.909.14 6.661.358 6.403.049-1.589-.013-3.422-.107-4.196l-.029.638zM9.301 139.81l.513-.191.506-.205s-.325.1-.652.189-.657.166-.657.166c.385-.066-.257.269.29.041zm-.546.017l.256-.058a2.425 2.425 0 00-.256.058zm16.707-11.235c.343-.869.56-1.587.736-2.42-.063.166-.255.806-.446 1.38-.188.576-.369 1.088-.29 1.04zM.244 144.854l-.002-.051a3.053 3.053 0 00-.004-.101v-.087l.001-.046.003-.097.012-.178.018-.156a3.888 3.888 0 012.237-3.019s-.074.031-.197.096a3.927 3.927 0 00-1.629 1.605 3.91 3.91 0 00-.426 1.289l-.024.203-.014.229-.002.075v.122l.002.074c.003.095.012.179.017.248l.028.216-.016-.211a79.863 79.863 0 01-.004-.211zm11.326 3.07l.383-.064s.44-.145.873-.307c.434-.161.861-.336.861-.336l-.381.09s-.428.169-.862.323c-.433.155-.873.294-.873.294zm-7.283-3.135c1.495.013 2.623-.342 2.233-.336 0 0-.71.076-1.423.104-.35.016-.737.023-.972.024l-.033.001c-.003.001-.006 0-.007.002l-.006.001c.009.019.014.037.017.047l.005.015.002.005v.002l.031.002c.129.007.236.003.405-.01.327-.025.748-.064 1.578-.108 0 0-.453.081-.91.143-.23.032-.454.059-.636.078l-.284.03zM32.2 83.995c.115.596.048 3.513-.062 3.665-.048-.391-.094-1.973-.164-.98l.285 2.308c-.178 3.07-.375-2.333-.475-3.85-.037 3.128.15 4.055.15 7.382.024-.981.096-1.602.157-2.12.2-.113.112 2.987.127 5.203.088-1.41.161-.594.24.433.007.185.018.308.031.395l.029.35-.001-.267c.022.02.05-.04.087-.231-.059-1.86.109-3.282.112-4.479-.326 1.183-.076-4.076-.176-5.581l-.033-1.737v-.65c.035-.132.08.053.145 1.045-.064-.828-.042-3.586-.147-3.331l-.004-6.296a6.46 6.46 0 01.053-.537c-.02-.219-.038-.255-.054-.226l-.02-27.43c-.027 1.353-.1 2.524-.137 3.919-.217-2.094-.04 2.288-.244 1.673-.075-.941-.051-2.319-.001-3.14-.104-.305-.195.864-.319.73-.13 3.46.365 3.988.29 7.37-.124-.134-.233-1.179-.216 1.035l-.027-.563c.14 3.545-.28 2.762.06 4.994l-.179-.059c.136 1.608.136 4.737.16 6.5l-.034-.106c.205 4.946.044 2.776.13 8.33l-.21-2.555c-.085 1.916.142 2.347.118 3.723-.034-.099-.165.22-.197-1.079l.318 6.739c.135 1.608.131-.327.207-.577zm-.267 8.525c-.01.357-.014.762-.006 1.24l.006-1.24zm.545-47.387l.002 1.927c.01-.596.014-1.219-.002-1.927zm-.154 57.046c.093-1.168.13.875.198 1.079l-.003-4.185c-.069.019-.146-.396-.209-.311l.014 3.417zm.325-4.318c-.048-.142-.091-.585-.132-1.08l.002 2.291c.052-.014.099-.27.13-1.21zm-3.679.443l-.007-.74-.053-1.121.06 1.861zm.303-11.587c-.105.885-.026 2.564 0 3.125-.003-1.935.038-1.096 0-3.125zm-1.12 2.391l-.06-1.865-.02.174.08 1.69zm3.621-58.218l-.012-.91c-.001.416.004.689.012.91z" fill="#202020"/><path d="M31.944 46.893c.2-4.448.167 2.915.424 1.517l-.085-2.42.07.205-.023-2.952c-.119.606-.126 1.06-.25.93.049-3.942.147-1.243.304-4.135l-.023-4.405.037.356a4.276 4.276 0 00-.038-.662l-.077-14.846c-.099-2.701-.223 1.494-.406-.499.001 3.131-.13 7.783.117 8.05-.035-.106-.103-.313-.133.322l.204 1.81.065-1.726c.203 1.82.158 7.7.032 8.763-.07-3.343-.314-1.666-.18-6.324-.063.21-.174 1.062-.208.014.071 5.457-.041 10.349.17 16.002zm7.747-26.853l-.046-.014c.078.06.107.078.046.014zm-1.273-1.316l-2.053-1.71 2.947 2.919.333.092c-.29-.228-1.38-1.196-1.73-1.641l.503.34zm-4.341-3.79c1.566 1.463 1.625 1.24.864.349 1.456 1.325.581.886 1.689 1.694.07-.134-1.704-1.788-2.116-2.163l-.437.12zm-1.999.599l-.083-.603-.022 1.484.105-.882zm-.083-.603L32 14.7l.003-.236.005-.09.01-.196c-.06.006-.12.017-.163.087l.07.17.071.495zm.08-1.689c.013-.111.023-.232.03-.392l.049.054a2.021 2.021 0 00-.05-.054l-.029.392zm-.051.359l.026.017.025-.376-.05.36zm-.006.578c.07-.007.142-.01.19-.055.05-.048.077-.12.058-.332a1.83 1.83 0 00-.216-.174l-.032.561zm-3.654 61.366l-.08-1.684-.021.178.08 1.683.021-.177zm.128-9.719c-.024-.416-.05-.732-.077-1.019.015.439.039.788.077 1.02zm-.958-7.225c.141-1.981.187 2.733.25-.936.13-.323.3 1.397.235 3.124-.124-.137-.08-1.683-.206-.621.143 1.148.046 1.584.232 1.184.116 1.93.248 2.145.37 3.455-.082-2.333.11-7.233-.13-10.194-.224-1.632-.53-.642-.853-.649-.076.246-.112 4.477.102 4.637zm-.323 3.117c-.016.917-.003 1.197.024 1.76.11-.152-.019-1.019-.024-1.76zm2.436-21.072c-.046-.175-.103-1.834-.183-1.478l.059 2.515c.007-.59.063-.798.124-1.037zm-.1 2.14l-.024-1.103c-.004.276.002.617.024 1.103zm.129-2.26l-.029.12c.01.035.02.029.029-.12zm3.134-26.897c-.01.115.147.197.25.264-.063-.074-.16-.213-.25-.264zm14.371 3.914l-.65-.75c.218.278.33.42.65.75zM34.678 8.468zm-.175-.11c-.53-.426-1.926-1.984-2.536-2.436l.091.043-1.035-.94c.934.919 2.868 2.873 3.48 3.333z" fill="#202020"/></svg>