<svg width="1010" height="1010" fill="none" xmlns="http://www.w3.org/2000/svg"><path d="M919.411 1010c24.191 0 46.931-9.4 64.039-26.505 17.13-17.143 26.54-39.883 26.54-64.093 0-24.174-9.41-46.948-26.54-64.057L800.317 672.213c-17.108-17.109-39.847-26.541-64.039-26.541s-46.948 9.433-64.075 26.505c-35.31 35.364-35.292 92.857 0 128.149l183.133 183.169C872.462 1000.6 895.219 1010 919.411 1010zM736.278 682.398c14.383 0 27.904 5.596 38.072 15.782l183.132 183.132c10.187 10.187 15.782 23.708 15.782 38.09 0 14.383-5.595 27.941-15.782 38.125-20.336 20.337-55.807 20.337-76.179-.034L698.17 774.359c-20.981-20.981-20.981-55.162.019-76.179 10.167-10.186 23.688-15.782 38.089-15.782z" fill="#5C524C"/><path d="M666.752 736.197c1.596 0 3.209-.215 4.806-.644a18.383 18.383 0 0012.965-13.056c2.493-9.575 7.102-17.754 13.665-24.353 6.528-6.492 14.723-11.083 24.335-13.63a18.41 18.41 0 0013.038-12.984c1.703-6.348-.108-13.126-4.753-17.752l-58.748-58.75c-3.659-3.694-8.698-5.667-13.898-5.379-5.183.286-10.025 2.726-13.307 6.742-14.472 17.682-30.773 34.001-48.473 48.456a18.482 18.482 0 00-6.725 13.306 18.415 18.415 0 005.362 13.916l58.749 58.749a18.385 18.385 0 0012.984 5.379zm19.331-75.211c-5.021 3.265-9.665 6.994-13.862 11.191a87.888 87.888 0 00-11.244 13.881l-26.021-26.003a381.16 381.16 0 0025.106-25.107l26.021 26.038z" fill="#5C524C"/><path d="M379.5 759.009c209.261 0 379.5-170.257 379.5-379.509C759 170.239 588.761 0 379.5 0S0 170.239 0 379.5c0 209.252 170.239 379.509 379.5 379.509zm0-722.282c188.996 0 342.772 153.776 342.772 342.773 0 188.987-153.776 342.781-342.772 342.781-188.997 0-342.774-153.794-342.774-342.781 0-188.997 153.777-342.773 342.774-342.773z" fill="#5C524C"/><path d="M578.126 379.823c10.15 0 18.364-8.214 18.364-18.364 0-129.62-105.43-235.066-235.031-235.066-10.149 0-18.364 8.212-18.364 18.363 0 10.15 8.215 18.364 18.364 18.364 109.338 0 198.304 88.966 198.304 198.339 0 10.15 8.214 18.364 18.363 18.364z" fill="#5C524C"/></svg>