<svg width="70" height="70" viewBox="0 0 70 70" fill="none" xmlns="http://www.w3.org/2000/svg">
<path d="M34.6214 44.8948C29.1658 44.8948 24.7268 40.4568 24.7268 35C24.7268 29.5443 29.1647 25.1052 34.6214 25.1052C40.076 25.1052 44.516 29.5443 44.516 35C44.516 40.4568 40.077 44.8948 34.6214 44.8948ZM34.6214 29.4129C31.5415 29.4129 29.0344 31.9189 29.0344 35C29.0344 38.0811 31.5404 40.5871 34.6214 40.5871C37.7025 40.5871 40.2084 38.0811 40.2084 35C40.2084 31.9189 37.7025 29.4129 34.6214 29.4129Z" fill="black"/>
<path d="M34.9058 70H34.6979C30.7672 70 27.2048 67.0406 25.9481 62.9225C24.2615 62.3974 22.6264 61.7193 21.0632 60.8968C19.45 61.8035 17.6656 62.2935 15.9188 62.2935C13.667 62.2935 11.5951 61.4611 10.0842 59.9491L9.89893 59.7531C7.16251 57.0177 6.75005 52.4052 8.7854 48.5994C7.97557 47.0486 7.41343 45.3945 6.88143 43.6617C2.75688 42.4157 0 39.0029 0 35.1325V34.9246C0 31.0402 2.75473 27.6069 6.87497 26.3458C7.43389 24.4957 8.0628 22.8028 8.89525 21.2251C6.80282 17.4548 7.1162 13.0362 9.85046 10.3008L9.98615 10.1511C11.5606 8.57662 13.7489 7.70754 16.1579 7.70754C17.9329 7.71566 19.6783 8.16375 21.2377 9.01169C22.7019 8.25406 24.228 7.6225 25.7995 7.12385C26.8785 2.97446 30.4829 0 34.6979 0H34.9058C39.0616 0 42.4764 2.92277 43.4779 7.13462C45.0694 7.64103 46.6144 8.28345 48.0957 9.05477C49.5962 8.1707 51.3048 7.70164 53.0463 7.69569C55.4822 7.69569 57.7502 8.62185 59.4334 10.304L59.5443 10.4063C62.5295 13.3905 62.887 17.8758 60.6234 21.5568C61.4095 23.058 62.1698 24.5862 62.6663 26.1251C66.8716 27.1202 70 30.6826 70 34.9246V35.1325C70 39.3518 66.8705 42.8938 62.6609 43.8782C62.1892 45.3137 61.5107 46.7762 60.7429 48.2526C62.9646 51.9605 62.5058 56.6418 59.4969 59.6518L59.3397 59.8812C57.7254 61.4923 55.5662 62.4615 53.2886 62.4615H53.2907C51.5666 62.4615 49.8295 61.8703 48.2766 60.9323C46.6936 61.7712 45.0427 62.4185 43.3412 62.9494C42.1749 67.1332 38.802 70 34.9058 70ZM20.9814 56.2359C21.3572 56.2359 21.732 56.3328 22.069 56.5298C24.0166 57.6706 26.1108 58.5402 28.2936 59.1145C29.112 59.3277 29.7291 60.0019 29.8712 60.8354C30.3354 63.5589 32.4547 65.6923 34.6969 65.6923H34.9047C37.3622 65.6923 39.0163 63.2671 39.3792 60.8709C39.4419 60.4547 39.6252 60.066 39.9066 59.7531C40.188 59.4401 40.5551 59.2165 40.9623 59.1102C43.19 58.5241 45.3252 57.6306 47.3064 56.4555C47.6854 56.2308 48.1243 56.1278 48.5637 56.1604C49.0031 56.1929 49.422 56.3595 49.7639 56.6375C50.8289 57.5055 52.0824 57.9826 53.2929 57.9837C53.847 57.9886 54.3965 57.8819 54.9086 57.6701C55.4207 57.4582 55.885 57.1455 56.2738 56.7506L56.417 56.6063C58.1982 54.8251 58.2294 51.8797 56.4881 49.756C56.2122 49.4188 56.045 49.0059 56.0087 48.5718C55.9724 48.1376 56.0685 47.7027 56.2845 47.3243C57.4422 45.2922 58.2833 43.3052 58.7862 41.4142C59.0199 40.5343 59.8943 39.8957 60.8021 39.8203C63.5687 39.5909 65.6902 37.618 65.6902 35.1314V34.9235C65.6902 32.4078 63.5676 30.4123 60.7989 30.1765C59.8932 30.1 59.0759 29.4625 58.8433 28.5837C58.3005 26.5386 57.4077 24.4892 56.2479 22.4948C56.0245 22.1156 55.9227 21.677 55.9562 21.2382C55.9897 20.7994 56.1569 20.3814 56.4353 20.0405C58.21 17.8898 58.2531 15.1986 56.5494 13.4949L56.4374 13.3926C55.9936 12.9468 55.4652 12.5941 54.8832 12.3552C54.3013 12.1163 53.6775 11.9959 53.0484 12.0012C51.8089 12.0012 50.5737 12.4471 49.5711 13.2548C49.2317 13.5285 48.8172 13.6927 48.3824 13.7258C47.9477 13.7589 47.5131 13.6592 47.1362 13.44C45.2229 12.3256 43.1689 11.4726 41.0291 10.9038C40.6038 10.7913 40.2231 10.5511 39.9384 10.2157C39.6536 9.88034 39.4784 9.46579 39.4363 9.02785C39.1682 6.24939 37.3062 4.30769 34.9058 4.30769H34.6979C32.207 4.30769 30.106 6.34846 29.8142 9.05369C29.7671 9.48685 29.59 9.89559 29.306 10.2261C29.0221 10.5565 28.6447 10.7932 28.2236 10.9049C26.1276 11.4615 24.1138 12.291 22.2338 13.3722C21.8749 13.5788 21.4639 13.6774 21.0503 13.656C20.6366 13.6346 20.238 13.4941 19.9023 13.2515C18.8136 12.4665 17.447 12.0174 16.1525 12.0174C14.8936 12.0174 13.7801 12.4385 13.0166 13.202L12.8658 13.3517C11.1428 15.0748 11.6737 17.9469 13.0876 19.8929C13.5949 20.5897 13.6379 21.5223 13.1964 22.2622C12.07 24.1522 11.2138 26.2543 10.5785 28.686C10.3663 29.4991 9.81385 30.114 8.98571 30.2615C6.25467 30.7483 4.30763 32.7535 4.30763 34.9257V35.1335C4.30763 37.2831 6.25252 39.2635 8.9814 39.7417C9.8117 39.8871 10.4234 40.5031 10.6366 41.3194C11.2257 43.5745 12.057 45.6777 13.1652 47.5709C13.3724 47.9301 13.4716 48.3415 13.4508 48.7556C13.43 49.1698 13.29 49.5691 13.0478 49.9057C11.4421 52.1651 11.4163 55.1751 12.9993 56.7571L13.1803 56.952C14.0278 57.7985 15.1413 57.9869 15.9199 57.9869C17.181 57.9869 18.5605 57.5012 19.7052 56.6569C20.0832 56.3769 20.5312 56.2359 20.9814 56.2359Z" fill="black"/>
<path d="M52.9878 29.0656C52.7699 29.0656 52.5571 28.9996 52.3775 28.8761C52.1979 28.7527 52.06 28.5777 51.982 28.3742C49.2467 21.2536 42.2823 16.4699 34.6524 16.4688C34.3668 16.4688 34.0929 16.3553 33.891 16.1534C33.689 15.9514 33.5755 15.6775 33.5755 15.3919C33.5755 15.1062 33.689 14.8323 33.891 14.6304C34.0929 14.4284 34.3668 14.3149 34.6524 14.3149C43.1665 14.3149 50.9396 19.6543 53.9926 27.602C54.0551 27.7651 54.077 27.941 54.0564 28.1144C54.0359 28.2879 53.9735 28.4537 53.8746 28.5977C53.7758 28.7417 53.6434 28.8595 53.4889 28.941C53.3345 29.0225 53.1625 29.0652 52.9878 29.0656ZM16.6229 44.6045C16.4372 44.6046 16.2546 44.5566 16.0929 44.4653C15.9311 44.3739 15.7958 44.2423 15.7 44.0832C15.4857 43.7279 15.3898 43.4651 15.2175 42.9848C15.1346 42.7576 15.029 42.4646 14.8751 42.0619C14.8244 41.9298 14.8002 41.7891 14.8038 41.6478C14.8075 41.5064 14.839 41.3671 14.8965 41.2379C14.954 41.1087 15.0364 40.9921 15.139 40.8948C15.2415 40.7974 15.3623 40.7212 15.4943 40.6705C15.6263 40.6198 15.767 40.5956 15.9084 40.5993C16.0497 40.6029 16.189 40.6344 16.3182 40.6919C16.4474 40.7494 16.564 40.8318 16.6614 40.9344C16.7587 41.037 16.8349 41.1577 16.8856 41.2897C17.0461 41.7097 17.157 42.0156 17.2421 42.2525C17.3993 42.6843 17.4446 42.8049 17.5447 42.9708C17.6434 43.1341 17.6969 43.3208 17.6997 43.5116C17.7025 43.7024 17.6546 43.8906 17.5608 44.0568C17.467 44.223 17.3307 44.3613 17.1659 44.4575C17.0011 44.5538 16.8137 44.6045 16.6229 44.6045ZM34.2141 55.3489C31.1957 55.3513 28.2133 54.6928 25.4764 53.4197C22.7395 52.1466 20.3146 50.2897 18.3718 47.9796C18.1877 47.7612 18.0979 47.4787 18.1221 47.1941C18.1464 46.9095 18.2826 46.6463 18.501 46.4622C18.7193 46.2781 19.0019 46.1883 19.2864 46.2125C19.571 46.2368 19.8343 46.3731 20.0184 46.5914C21.7594 48.6613 23.9323 50.3251 26.3847 51.4659C28.8371 52.6067 31.5094 53.1969 34.2141 53.1951C34.4998 53.1951 34.7737 53.3086 34.9756 53.5105C35.1776 53.7125 35.291 53.9864 35.291 54.272C35.291 54.5576 35.1776 54.8316 34.9756 55.0335C34.7737 55.2355 34.4998 55.3489 34.2141 55.3489Z" fill="black"/>
</svg>
