<svg width="286" height="238" fill="none" xmlns="http://www.w3.org/2000/svg"><mask id="mask0_0_1" style="mask-type:alpha" maskUnits="userSpaceOnUse" x="40" y="40" width="206" height="137"><path d="M202.317 71.78C189.816 52.132 167.81 40 144.46 40c-10.321 0-20.187 2.35-29.072 6.524a69.232 69.232 0 00-9.174 5.173c-3.425 2.303-6.61 4.926-9.566 7.8-8.969 8.725-15.62 19.882-18.705 32.589a42.407 42.407 0 00-20.109 7.55 42.25 42.25 0 00-9.747 9.56 41.944 41.944 0 00-5.08 9.141A42.09 42.09 0 0040 134.013c0 23.27 19.028 42.202 42.412 42.202H193.12a53.68 53.68 0 004.146-.178C224.594 173.914 246 150.876 246 123.593c0-25.462-18.656-47.421-43.683-51.814zm-9.197 82.224H82.412c-11.082 0-20.092-8.969-20.092-19.994 0-7.385 4.022-13.872 10.097-17.332a20.113 20.113 0 016.316-2.306c.502-.092.998-.178 1.508-.233a20.204 20.204 0 012.168-.123c3.693 0 7.332 1.036 10.512 2.998.614.376 1.3.56 1.983.56h.058c2.078 0 3.768-1.679 3.768-3.75 0-.35-.052-.692-.141-1.016a44.84 44.84 0 01-.254-4.705c0-2.602.277-5.201.72-7.769.096-.545.148-1.102.26-1.641 2.11-10.064 7.545-18.783 14.972-25.186 8.187-7.058 18.791-11.301 30.17-11.301 13.481 0 26.262 5.881 35.069 16.138a45.931 45.931 0 017.704 12.609 3.733 3.733 0 003.456 2.346c.096 0 .191-.005.289-.011l.383-.023c.66-.049 1.318-.072 1.978-.072 4.189 0 8.384.924 12.31 2.691 10.959 4.926 18.037 15.803 18.037 27.709-.003 16.769-13.715 30.411-30.563 30.411z" fill="#3941FF"/></mask><g mask="url(#mask0_0_1)"><path fill="#3941FF" d="M40 40h205.37v110.584H40z"/></g><rect x="59.747" y="165.065" width="65.824" height="10.532" rx="5.266" fill="#D9D9D9"/><rect x="142.685" y="165.065" width="102.685" height="10.532" rx="5.266" fill="#D9D9D9"/><rect x="100.558" y="187.445" width="102.685" height="10.532" rx="5.266" fill="#D9D9D9"/><rect x="40" y="8" width="29.922" height="26" rx="2" fill="#E5E5E5"/><rect x="40.5" y="8.5" width="28.922" height="25" rx="1.5" stroke="#000" stroke-opacity=".149"/><path d="M44.844 24v-6h.89v.938h.078c.126-.32.327-.57.606-.747.279-.18.613-.27 1.004-.27.396 0 .725.09.988.27.266.178.473.426.621.747h.063a1.75 1.75 0 01.691-.739c.307-.185.676-.277 1.106-.277.536 0 .975.168 1.316.504.341.333.512.853.512 1.558V24h-.922v-4.016c0-.442-.121-.759-.363-.949a1.345 1.345 0 00-.856-.285c-.422 0-.749.128-.98.383-.232.252-.348.573-.348.96V24h-.938v-4.11c0-.34-.11-.615-.331-.824-.222-.21-.507-.316-.856-.316-.24 0-.464.064-.672.191a1.445 1.445 0 00-.5.532 1.568 1.568 0 00-.187.777V24h-.922zm9.56 0v-6h.922v6h-.922zm.469-7a.655.655 0 01-.465-.184.59.59 0 01-.191-.441.59.59 0 01.191-.441.655.655 0 01.465-.184.64.64 0 01.461.184c.13.122.195.27.195.441a.584.584 0 01-.195.441.642.642 0 01-.461.184zm6.392 2.344l-.828.234a1.54 1.54 0 00-.23-.402 1.119 1.119 0 00-.407-.328c-.172-.086-.392-.13-.66-.13-.367 0-.673.085-.918.255-.242.166-.364.379-.364.636 0 .23.084.41.25.543.167.133.428.244.782.332l.89.22c.537.13.937.329 1.2.597.263.265.394.608.394 1.027 0 .344-.099.651-.297.922-.195.27-.469.484-.82.64-.352.157-.76.235-1.227.235-.612 0-1.118-.133-1.52-.398-.4-.266-.654-.654-.761-1.165l.875-.218c.083.323.24.565.473.726.234.162.54.242.918.242.43 0 .77-.09 1.023-.273.255-.185.383-.406.383-.664a.698.698 0 00-.219-.523c-.146-.144-.37-.25-.672-.32l-1-.235c-.55-.13-.953-.332-1.21-.606-.256-.276-.383-.62-.383-1.035 0-.338.095-.638.285-.898.192-.26.454-.465.785-.613a2.758 2.758 0 011.133-.223c.593 0 1.06.13 1.398.39.341.26.583.605.727 1.032zM65.37 18v.781h-3.11V18h3.11zm-2.203-1.438h.922v5.72c0 .26.038.455.113.585a.587.587 0 00.297.258c.122.042.251.063.387.063.101 0 .185-.006.25-.016l.156-.031.188.828c-.063.023-.15.047-.262.07a1.93 1.93 0 01-.426.04 1.86 1.86 0 01-.766-.169 1.52 1.52 0 01-.617-.512c-.161-.229-.242-.518-.242-.867v-5.968z" fill="#000"/></svg>