<svg width="206" height="153" fill="none" xmlns="http://www.w3.org/2000/svg"><path d="M73.065 21.01V7.06c0-3.893-3.17-7.05-7.083-7.05-3.91 0-7.083 3.157-7.083 7.05v13.95a44.895 44.895 0 0114.167 0zm29.171 17.89l9.933-9.883a7.03 7.03 0 000-9.97c-2.764-2.753-7.25-2.753-10.018 0l-9.929 9.883a44.968 44.968 0 0110.014 9.97zm-72.508 0a45.11 45.11 0 0110.018-9.968l-9.929-9.883c-2.768-2.752-7.253-2.752-10.018 0a7.021 7.021 0 000 9.97l9.929 9.882zM7.748 72.058H21.77a44.303 44.303 0 010-14.098H7.748c-3.913 0-7.083 3.156-7.083 7.049 0 3.892 3.17 7.049 7.083 7.049zm21.98 19.057l-9.929 9.886a7.02 7.02 0 000 9.968 7.07 7.07 0 005.01 2.066c1.81 0 3.624-.689 5.008-2.066l9.929-9.883a45.026 45.026 0 01-10.018-9.971zm5.645-26.106c0 2.43.312 4.782.856 7.049a30.162 30.162 0 003.71 8.897 30.638 30.638 0 0010.014 9.97c.557.339 1.104.678 1.681.986 5.261-6.39 12.276-11.32 20.406-14.002 4.413-11.01 11.773-20.305 20.997-27.142a32.654 32.654 0 00-1.01-1.709 30.618 30.618 0 00-18.962-13.66c-2.278-.54-4.639-.855-7.083-.855s-4.806.314-7.083.854a30.618 30.618 0 00-18.957 13.661 30.106 30.106 0 00-3.71 8.898 30.15 30.15 0 00-.86 7.053z" fill="#FFE239"/><path d="M172.705 75.257c-9.012-14.163-24.876-22.91-41.71-22.91-7.44 0-14.553 1.694-20.959 4.703a49.947 49.947 0 00-6.613 3.73 49.625 49.625 0 00-6.896 5.623c-6.466 6.29-11.261 14.333-13.485 23.494a30.57 30.57 0 00-14.497 5.444 30.455 30.455 0 00-7.028 6.891 30.249 30.249 0 00-3.662 6.59 30.343 30.343 0 00-2.167 11.301c0 16.776 13.717 30.424 30.575 30.424h79.812a38.39 38.39 0 002.989-.128c19.701-1.53 35.134-18.139 35.134-37.808 0-18.356-13.45-34.187-31.493-37.354zm-6.63 59.278H86.263c-7.99 0-14.484-6.466-14.484-14.414 0-5.324 2.9-10.001 7.278-12.495a14.484 14.484 0 014.554-1.663c.362-.066.72-.128 1.087-.167a14.44 14.44 0 011.563-.089c2.663 0 5.286.746 7.578 2.161.443.271.938.403 1.43.403h.042a2.71 2.71 0 002.716-2.703 2.76 2.76 0 00-.102-.732 32.316 32.316 0 01-.182-3.392c0-1.876.199-3.75.52-5.6.068-.394.105-.795.186-1.184 1.522-7.256 5.439-13.541 10.793-18.157 5.903-5.088 13.548-8.147 21.751-8.147 9.719 0 18.933 4.24 25.282 11.634a33.132 33.132 0 015.554 9.09 2.691 2.691 0 002.492 1.692c.068 0 .137-.005.208-.009l.276-.016c.476-.035.95-.052 1.426-.052 3.02 0 6.044.666 8.875 1.94 7.9 3.551 13.003 11.392 13.003 19.976-.003 12.089-9.888 21.924-22.034 21.924z" fill="#39ACFF"/></svg>