<svg width="206" height="167" fill="none" xmlns="http://www.w3.org/2000/svg"><mask id="mask0_19_150" style="mask-type:alpha" maskUnits="userSpaceOnUse" x="0" y="0" width="206" height="137"><path d="M162.317 31.78C149.816 12.132 127.81 0 104.46 0 94.14 0 84.273 2.35 75.388 6.524a69.243 69.243 0 00-9.174 5.173c-3.425 2.304-6.61 4.926-9.566 7.8-8.969 8.725-15.62 19.882-18.705 32.589a42.407 42.407 0 00-20.109 7.55 42.247 42.247 0 00-9.747 9.56 41.954 41.954 0 00-5.08 9.14A42.091 42.091 0 000 94.014c0 23.27 19.028 42.202 42.412 42.202H153.12a53.68 53.68 0 004.146-.178C184.594 133.914 206 110.876 206 83.593c0-25.462-18.656-47.421-43.683-51.814zm-9.197 82.224H42.412c-11.082 0-20.092-8.969-20.092-19.994 0-7.385 4.022-13.872 10.097-17.332a20.087 20.087 0 016.316-2.306c.502-.092.998-.178 1.508-.233a20.1 20.1 0 012.168-.123 20.02 20.02 0 0110.512 2.998c.614.376 1.3.56 1.983.56h.058c2.078 0 3.768-1.679 3.768-3.75 0-.35-.052-.692-.141-1.016a44.858 44.858 0 01-.254-4.705c0-2.602.277-5.201.72-7.769.096-.545.148-1.102.26-1.641 2.11-10.064 7.545-18.783 14.972-25.186 8.187-7.058 18.791-11.301 30.17-11.301 13.481 0 26.262 5.881 35.069 16.137a45.931 45.931 0 017.704 12.61 3.733 3.733 0 003.456 2.346c.096 0 .191-.005.289-.011l.383-.023c.66-.049 1.318-.072 1.978-.072 4.189 0 8.384.924 12.31 2.691 10.959 4.926 18.037 15.802 18.037 27.709-.003 16.769-13.715 30.411-30.563 30.411z" fill="#3941FF"/></mask><g mask="url(#mask0_19_150)"><path fill="#8487DA" d="M0 0h205.37v110.584H0z"/></g><path d="M140.649 112.616c9.03 0 16.351 7.299 16.351 16.306 0 9.006-7.321 16.306-16.351 16.306l-.167-.001-.554.037-6.349.002a14.766 14.766 0 011.626 6.754c0 8.314-6.278 14.98-14.569 14.98-8.197 0-13.156-4.792-14.49-11.43a4.077 4.077 0 013.203-4.798 4.085 4.085 0 014.808 3.196c.617 3.072 2.486 4.879 6.479 4.879 3.661 0 6.399-2.907 6.399-6.827 0-3.741-3.093-6.792-6.931-6.792l-68.02.036A4.08 4.08 0 0148 141.188a4.08 4.08 0 013.53-4.04l.555-.037 67.464.001.555-.037c.349 0 .696.012 1.039.035l18.908.008.296-.032 1.091-.049c4.149-.395 7.392-3.878 7.392-8.115 0-4.502-3.661-8.153-8.181-8.153-4.077 0-7.483 2.983-8.085 6.905l-.15 1.296a4.085 4.085 0 01-4.254 3.274 4.08 4.08 0 01-3.831-4.315c.519-8.583 7.663-15.313 16.32-15.313zm-50.367 40.765a4.08 4.08 0 014.085 4.077 4.08 4.08 0 01-4.085 4.076 4.08 4.08 0 01-4.085-4.076 4.08 4.08 0 014.085-4.077zM102.538 80c12.033 0 21.787 9.735 21.787 21.743 0 11.968-9.69 21.679-21.667 21.743h-50.47a4.08 4.08 0 01-4.085-4.076 4.081 4.081 0 013.53-4.04l.555-.037h50.35l.895-.028c7.104-.461 12.723-6.356 12.723-13.562 0-7.505-6.097-13.59-13.618-13.59-7.52 0-13.617 6.085-13.617 13.59a4.08 4.08 0 01-4.085 4.077 4.08 4.08 0 01-4.085-4.077C80.751 89.735 90.505 80 102.538 80zm39.485 13.592a4.08 4.08 0 014.084 4.076 4.08 4.08 0 01-4.084 4.077 4.08 4.08 0 01-4.085-4.077 4.08 4.08 0 014.085-4.076zm-73.526-8.153a4.08 4.08 0 014.084 4.076 4.08 4.08 0 01-4.084 4.077 4.08 4.08 0 01-4.085-4.077 4.08 4.08 0 014.085-4.076z" fill="#212121"/></svg>