<svg width="63" height="53" viewBox="0 0 63 53" fill="none" xmlns="http://www.w3.org/2000/svg">
<path d="M39.2592 45.1482C38.1737 45.1482 37.2963 46.0178 37.2963 47.1308V51.0174C37.2963 52.1128 38.1659 53 39.2592 53C40.3447 53 41.2222 52.1304 41.2222 51.0174V47.1308C41.2222 46.0354 40.3526 45.1482 39.2592 45.1482Z" fill="#0500FF"/>
<path d="M23.5556 45.1482C22.4701 45.1482 21.5927 46.0178 21.5927 47.1308V51.0174C21.5927 52.1128 22.4642 53 23.5556 53C24.6411 53 25.5186 52.1304 25.5186 51.0174V47.1308C25.5186 46.0354 24.647 45.1482 23.5556 45.1482Z" fill="#0500FF"/>
<path d="M47.1112 41.2222C46.0256 41.2222 45.1482 42.0918 45.1482 43.2048V47.0915C45.1482 48.1868 46.0178 49.0741 47.1112 49.0741C48.1967 49.0741 49.0741 48.2045 49.0741 47.0915V43.2048C49.0741 42.1095 48.2045 41.2222 47.1112 41.2222Z" fill="#0500FF"/>
<path d="M31.4074 41.2222C30.3219 41.2222 29.4445 42.0918 29.4445 43.2048V47.0915C29.4445 48.1868 30.316 49.0741 31.4074 49.0741C32.4929 49.0741 33.3704 48.2045 33.3704 47.0915V43.2048C33.3704 42.1095 32.5008 41.2222 31.4074 41.2222Z" fill="#0500FF"/>
<path d="M15.7037 41.2222C14.6182 41.2222 13.7407 42.0918 13.7407 43.2048V47.0915C13.7407 48.1868 14.6123 49.0741 15.7037 49.0741C16.7892 49.0741 17.6666 48.2045 17.6666 47.0915V43.2048C17.6666 42.1095 16.7951 41.2222 15.7037 41.2222Z" fill="#0500FF"/>
<path d="M54.1503 16.1199C52.3326 11.289 47.6686 7.85185 42.2037 7.85185C40.9454 7.85185 39.7304 8.03441 38.5801 8.374C35.4668 3.34685 29.9018 0 23.5556 0C13.9292 0 6.09696 7.70267 5.89282 17.28C2.3693 19.3195 0 23.1296 0 27.4815C0 33.9828 5.27448 39.2593 11.7778 39.2593H51.037C57.5384 39.2593 62.8148 33.973 62.8148 27.4815C62.8148 22.0539 59.1441 17.4841 54.1503 16.1199ZM51.0429 35.3333H11.7719C7.44748 35.3333 3.92593 31.8177 3.92593 27.4815C3.92593 23.7676 6.51115 20.6464 9.98559 19.8338C9.87174 19.1291 9.81481 18.4047 9.81481 17.6667C9.81481 10.0779 15.9667 3.92593 23.5556 3.92593C29.7624 3.92593 35.0075 8.04226 36.7113 13.6917C38.2209 12.4923 40.1249 11.7778 42.2037 11.7778C46.7499 11.7778 50.4972 15.213 50.984 19.6296H51.0429C55.3673 19.6296 58.8889 23.1453 58.8889 27.4815C58.8889 31.8098 55.3771 35.3333 51.0429 35.3333Z" fill="#8987FF"/>
</svg>
