<svg width="41" height="53" viewBox="0 0 41 53" fill="none" xmlns="http://www.w3.org/2000/svg">
<path d="M0 32.4982C0 30.0601 0.663968 27.2619 1.9919 24.1035C3.31984 20.9451 5.03509 17.8698 7.13765 14.9331C11.4534 9.22582 15.2159 4.90382 18.3698 1.99477L20.4447 0C21.1363 0.720336 21.9109 1.38526 22.7409 1.99477C23.8752 3.15839 25.6181 5.07005 27.942 7.78515C30.2659 10.5003 32.2854 12.9106 33.9453 15.127C35.9096 17.9252 37.5972 20.9451 38.9528 24.1312C40.3084 27.3173 41 30.1155 41 32.5259C41 35.2964 40.4744 37.9284 39.3954 40.4496C38.3165 42.9707 36.8779 45.1594 35.052 46.988C33.226 48.8165 31.0405 50.2849 28.4953 51.3654C25.9501 52.4459 23.2665 53 20.4447 53C17.6781 53 15.0499 52.4736 12.5324 51.4208C10.0148 50.368 7.82928 48.955 6.00337 47.1265C4.17746 45.3257 2.7112 43.137 1.63225 40.6158C0.553306 38.0946 0 35.3795 0 32.4982ZM6.25236 24.3806C6.25236 26.6801 6.72267 28.5086 7.69096 29.8939C8.65924 31.2514 10.1255 31.9441 12.0897 31.9441C14.0816 31.9441 15.5479 31.2514 16.5439 29.8939C17.5121 28.5363 18.0101 26.7078 18.0378 24.3806C18.01 22.0533 17.5121 20.2248 16.5439 18.8395C15.5756 17.482 14.0816 16.7893 12.0897 16.7893C10.1255 16.7893 8.65924 17.482 7.69096 18.8395C6.72267 20.2248 6.25236 22.0533 6.25236 24.3806ZM10.5958 24.3806C10.5958 23.965 10.5958 23.6325 10.5958 23.4109C10.5958 23.1892 10.6235 22.8845 10.6511 22.4966C10.6788 22.1087 10.7065 21.804 10.7895 21.61C10.8725 21.4161 10.9278 21.1668 11.0385 20.9451C11.1491 20.7235 11.2875 20.5295 11.4534 20.4464C11.6471 20.3356 11.8408 20.2802 12.0897 20.2802C12.4771 20.2802 12.7814 20.391 13.0027 20.6126C13.224 20.8342 13.39 21.1944 13.473 21.6654C13.556 22.1641 13.6113 22.552 13.639 22.9121C13.6668 23.2723 13.6668 23.7433 13.6668 24.3528C13.6668 24.99 13.6668 25.461 13.639 25.7935C13.6112 26.1259 13.556 26.5415 13.473 27.0402C13.39 27.5112 13.224 27.8714 13.0027 28.093C12.7814 28.3146 12.4771 28.4255 12.0897 28.4255C11.8407 28.4255 11.6471 28.3701 11.4534 28.2592C11.2598 28.1484 11.1215 27.9822 11.0385 27.7605C10.9278 27.5389 10.8448 27.2895 10.7895 27.0956C10.7341 26.874 10.6788 26.5692 10.6511 26.209C10.6235 25.8212 10.5958 25.5164 10.5958 25.3225C10.5958 25.1285 10.5958 24.7961 10.5958 24.3806ZM12.2281 45.8521H15.8799L29.6849 16.0967H25.9501L12.2281 45.8521ZM24.1242 37.5682C24.1519 39.8955 24.6775 41.724 25.6457 43.1092C26.614 44.4668 28.108 45.1594 30.0722 45.1594C32.0641 45.1594 33.5304 44.4668 34.4987 43.1092C35.4669 41.7517 35.9372 39.8955 35.9649 37.5682C35.9371 35.241 35.4669 33.4124 34.4987 32.0549C33.5304 30.6973 32.0641 30.0047 30.0722 30.0047C28.108 30.0047 26.614 30.6973 25.6457 32.0549C24.6498 33.4124 24.1518 35.241 24.1242 37.5682ZM28.4676 37.5682C28.4676 36.931 28.4676 36.46 28.4954 36.1275C28.5232 35.7951 28.5784 35.3795 28.6614 34.8808C28.7444 34.3821 28.9104 34.0497 29.1317 33.828C29.353 33.6064 29.6573 33.4956 30.0447 33.4956C30.2936 33.4956 30.515 33.551 30.7086 33.6618C30.9023 33.7726 31.0406 33.9389 31.1513 34.1882C31.2619 34.4376 31.3449 34.6592 31.4279 34.8531C31.5109 35.0471 31.5386 35.3518 31.5662 35.7397L31.594 36.6263V37.5682C31.594 38.0115 31.594 38.344 31.594 38.5379L31.5662 39.4245L31.4279 40.3111L31.1513 40.976L30.7086 41.5024L30.0447 41.6686C29.6574 41.6686 29.353 41.5578 29.1317 41.3362C28.9104 41.1146 28.7444 40.7544 28.6614 40.2834C28.5784 39.7847 28.5231 39.3691 28.4954 39.0367C28.4676 38.7042 28.4676 38.2054 28.4676 37.5682Z" fill="white"/>
</svg>
