<svg width="58" height="58" viewBox="0 0 58 58" fill="none" xmlns="http://www.w3.org/2000/svg">
<path d="M37.9 24.2001L30.3 37.1001C29.9 37.1001 29.5 37.0001 29 37.0001C26.2 37.0001 24 39.2001 24 42.0001C24 44.8001 26.2 47.0001 29 47.0001C31.8 47.0001 34 44.8001 34 42.0001C34 40.4001 33.2 39.0001 32.1 38.1001L39.4 25.7001C41.4 28.0001 42.7 30.9001 42.9 34.1001C42.9 34.6001 43.4 35.0001 43.9 35.0001H47.3C47.8 35.0001 48.1 34.7001 48.3 34.3001C48.8 32.6001 49 30.8001 49 29.0001C49 18.0001 40 9.00006 29 9.00006C18 9.00006 9 18.0001 9 29.0001C9 30.8001 9.2 32.6001 9.7 34.3001C9.8 34.7001 10.2 35.0001 10.7 35.0001H14C14.5 35.0001 15 34.6001 15 34.1001C15.5 26.7001 21.6 21.0001 29 21.0001C32.4 21.0001 35.5 22.2001 37.9 24.2001ZM29 45.0001C27.3 45.0001 26 43.7001 26 42.0001C26 40.3001 27.3 39.0001 29 39.0001C30.7 39.0001 32 40.3001 32 42.0001C32 43.7001 30.7 45.0001 29 45.0001ZM22.8 20.3001L19.9 13.6001C19.9 13.6001 19.9 13.5001 19.8 13.5001C22.2 12.1001 25 11.2001 27.9 11.0001V19.0001C26.2 19.2001 24.4 19.6001 22.8 20.3001ZM30 19.0001V11.0001C33 11.2001 35.7 12.0001 38.1 13.5001C38.1 13.5001 38.1 13.6001 38 13.6001L35.1 20.3001C33.6 19.6001 31.8 19.2001 30 19.0001ZM46.6 33.0001H44.9C44.6 30.7001 43.8 28.6001 42.7 26.7001L46.3 24.0001C46.8 25.6001 47 27.2001 47 29.0001C47 30.4001 46.8 31.7001 46.6 33.0001ZM45.6 22.1001C45.5 22.1001 45.4 22.2001 45.4 22.2001L41.5 25.1001C41.2 24.7001 40.8 24.3001 40.4 23.9001L41.8 21.5001C42.1 21.0001 41.9 20.4001 41.4 20.1001C40.9 19.8001 40.3 20.0001 40 20.5001L38.8 22.5001C38.2 22.0001 37.5 21.6001 36.9 21.2001L39.7 14.7001C42.4 16.6001 44.4 19.1001 45.6 22.1001ZM13.1 33.0001H11.4C11.1 31.7001 11 30.4001 11 29.0001C11 27.3001 11.3 25.6001 11.7 24.0001L15.3 26.7001C14.2 28.6001 13.4 30.7001 13.1 33.0001ZM16.5 25.1001L12.6 22.2001C12.5 22.1001 12.5 22.1001 12.4 22.1001C13.6 19.1001 15.7 16.6001 18.2 14.6001L21 21.1001C19.2 22.2001 17.7 23.5001 16.5 25.1001Z" fill="black"/>
<path d="M53 48.0001H46.7C51.8 43.3001 55 36.5001 55 29.0001C55 14.7001 43.3 3.00006 29 3.00006C27.9 3.00006 26.8 3.10006 25.7 3.20006C24.9 1.30006 23.1 6.10352e-05 21 6.10352e-05H20C17.8 6.10352e-05 16 1.80006 16 4.00006C16 4.80006 16.3 5.50006 16.8 6.00006C15.7 6.60006 14.7 7.20006 13.7 8.00006H1C0.4 8.00006 0 8.40006 0 9.00006C0 9.60006 0.4 10.0001 1 10.0001H11.3C6.2 14.7001 3 21.5001 3 29.0001C3 43.3001 14.7 55.0001 29 55.0001C34.7 55.0001 40 53.1001 44.3 50.0001H53C54.7 50.0001 56 51.3001 56 53.0001C56 54.7001 54.7 56.0001 53 56.0001H52C50.9 56.0001 50 55.1001 50 54.0001C50 53.4001 50.4 53.0001 51 53.0001C51.6 53.0001 52 52.6001 52 52.0001C52 51.4001 51.6 51.0001 51 51.0001C49.3 51.0001 48 52.3001 48 54.0001C48 56.2001 49.8 58.0001 52 58.0001H53C55.8 58.0001 58 55.8001 58 53.0001C58 50.2001 55.8 48.0001 53 48.0001ZM19 5.00006C18.4 5.00006 18 4.60006 18 4.00006C18 2.90006 18.9 2.00006 20 2.00006H21C22.1 2.00006 23.1 2.60006 23.6 3.60006C22 3.90006 20.5 4.40006 19 5.00006ZM23.9 5.50006C23.7 6.90006 22.5 8.00006 21 8.00006H17.4C19.4 6.90006 21.6 6.00006 23.9 5.50006ZM29 53.0001C15.8 53.0001 5 42.2001 5 29.0001C5 21.3001 8.7 14.4001 14.4 10.0001H21C23.7 10.0001 25.9 7.90006 26 5.20006C27 5.10006 28 5.00006 29 5.00006C42.2 5.00006 53 15.8001 53 29.0001C53 36.7001 49.3 43.6001 43.6 48.0001H25C24.4 48.0001 24 48.4001 24 49.0001C24 49.6001 24.4 50.0001 25 50.0001H40.6C37.2 51.9001 33.2 53.0001 29 53.0001Z" fill="black"/>
</svg>
