<svg width="46" height="59" viewBox="0 0 46 59" fill="none" xmlns="http://www.w3.org/2000/svg">
<path d="M41.2926 29.6481L22.2085 34.0324C20.3518 34.4589 18.6702 32.3963 18.6702 29.6925V15.8844C18.6702 13.181 20.3518 11.1184 22.2085 11.5448L41.2926 15.9288C42.0105 16.0937 42.664 16.6213 43.1358 17.4167C43.6076 18.2121 43.8667 19.2233 43.8668 20.2687V25.309C43.8667 26.3543 43.6075 27.3654 43.1358 28.1607C42.664 28.9559 42.0105 29.4833 41.2926 29.6481Z" fill="url(#paint0_linear_10_231)"/>
<path d="M19.2302 34.5149C18.916 34.5149 18.6058 34.4126 18.323 34.2156L6.12644 25.7378C5.77399 25.4928 5.4766 25.1102 5.26823 24.6336C5.05986 24.1571 4.94894 23.6059 4.94812 23.0429C4.94731 22.48 5.05665 21.9282 5.26364 21.4504C5.47062 20.9726 5.76691 20.5882 6.11865 20.341L18.382 11.7248C18.81 11.424 19.2966 11.3428 19.7611 11.4948C20.2256 11.6467 20.6399 12.0226 20.9353 12.5601C21.2306 13.0975 21.3892 13.764 21.3846 14.449C21.3801 15.1339 21.2127 15.796 20.9102 16.3252C20.5774 16.9046 20.3966 17.6338 20.3995 18.3853V27.6712C20.3972 28.3947 20.5647 29.0981 20.8749 29.6677C21.1156 30.1108 21.2649 30.6422 21.3057 31.2014C21.3465 31.7605 21.2773 32.3249 21.1058 32.8302C20.9344 33.3355 20.6676 33.7614 20.336 34.0592C20.0044 34.3571 19.6212 34.515 19.2302 34.5149ZM11.8077 23.0224L16.2268 26.0943V19.9174L11.8077 23.0224Z" fill="url(#paint1_linear_10_231)"/>
<path d="M34.977 55.2443H23.2242C22.6708 55.2443 22.1401 54.9283 21.7488 54.3656C21.3575 53.803 21.1377 53.0398 21.1377 52.2441C21.1377 51.4484 21.3575 50.6853 21.7488 50.1227C22.1401 49.56 22.6708 49.2439 23.2242 49.2439H34.977C35.1771 49.2478 35.3757 49.1945 35.5613 49.0872C35.7469 48.9798 35.9158 48.8205 36.0582 48.6184C36.2006 48.4164 36.3137 48.1757 36.3909 47.9103C36.4681 47.6449 36.5078 47.36 36.5078 47.0724C36.5078 46.7847 36.4681 46.4999 36.3909 46.2345C36.3137 45.9691 36.2006 45.7284 36.0582 45.5263C35.9158 45.3243 35.7469 45.165 35.5613 45.0576C35.3757 44.9502 35.1771 44.8969 34.977 44.9008C34.7625 44.8991 34.5502 44.964 34.3546 45.091C34.1591 45.2181 33.9849 45.4042 33.8439 45.6369C33.4769 46.2292 32.9617 46.5884 32.411 46.6359C31.8602 46.6834 31.3188 46.4153 30.9052 45.8903C30.4916 45.3652 30.2395 44.626 30.2039 43.8343C30.1684 43.0426 30.3524 42.2629 30.7156 41.6658C31.2491 40.7969 31.9049 40.1011 32.6396 39.6243C33.3742 39.1475 34.171 38.9008 34.977 38.9004C38.1109 38.9004 40.6602 42.5663 40.6602 47.0726C40.6602 51.5789 38.1109 55.2443 34.977 55.2443Z" fill="url(#paint2_linear_10_231)"/>
<path d="M11.9991 52.8294H9.12922V6.11014C9.12922 5.31443 8.9094 4.55132 8.51811 3.98867C8.12682 3.42602 7.59613 3.10992 7.04276 3.10992C6.4894 3.10992 5.9587 3.42602 5.56742 3.98867C5.17613 4.55132 4.95631 5.31443 4.95631 6.11014V52.8294H2.08646C1.53309 52.8294 1.00239 53.1455 0.611109 53.7082C0.219822 54.2708 0 55.0339 0 55.8296C0 56.6253 0.219822 57.3885 0.611109 57.9511C1.00239 58.5138 1.53309 58.8299 2.08646 58.8299H11.9991C12.5524 58.8299 13.0831 58.5138 13.4744 57.9511C13.8657 57.3885 14.0855 56.6253 14.0855 55.8296C14.0855 55.0339 13.8657 54.2708 13.4744 53.7082C13.0831 53.1455 12.5524 52.8294 11.9991 52.8294Z" fill="url(#paint3_linear_10_231)"/>
<path d="M40.3201 12.0709L35.8426 11.3084L27.1855 9.83314L23.4215 9.19309C22.5185 9.03916 21.6031 9.16207 20.7356 9.55374C19.868 9.94541 19.068 10.5969 18.3883 11.4654C17.7085 12.3339 17.1645 13.3996 16.7919 14.5923C16.4194 15.7851 16.2268 17.0778 16.2269 18.3853V27.6712C16.2215 29.7336 16.7004 31.7382 17.5861 33.3604C18.2669 34.6169 19.1617 35.5996 20.1839 36.2132C21.2061 36.8268 22.3212 37.0506 23.4212 36.863L27.1852 36.223L35.8426 34.7489L40.3196 33.9888C41.885 33.7219 43.328 32.6385 44.375 30.9438C45.4219 29.2491 46.0002 27.061 46 24.7942V21.2627C45.9996 18.9966 45.4212 16.8093 44.3744 15.1153C43.3276 13.4213 41.8851 12.3381 40.3201 12.0709ZM22.9305 30.9042C22.6128 30.9587 22.2907 30.9157 21.9854 30.778C21.6801 30.6404 21.3986 30.4113 21.1594 30.1058C20.9202 29.8003 20.7287 29.4254 20.5977 29.0057C20.4666 28.5861 20.3988 28.1312 20.3989 27.6712V18.3853C20.3961 17.6334 20.5771 16.9039 20.9102 16.3244C21.151 15.9001 21.4625 15.5702 21.8157 15.3655C22.1689 15.1608 22.5524 15.0878 22.9305 15.1535L24.8534 15.4807V30.5778L22.9305 30.9042ZM29.0263 16.1904L33.5108 16.9536V29.1025L29.0263 29.8661V16.1904ZM41.8271 24.7942C41.827 25.5909 41.6237 26.3598 41.2558 26.9555C40.8879 27.5511 40.3809 27.9322 39.8308 28.0264L37.6848 28.3916V17.6641L39.8308 18.0297C40.3812 18.1237 40.8886 18.5047 41.2568 19.1005C41.6249 19.6964 41.8284 20.4657 41.8285 21.2627L41.8271 24.7942Z" fill="url(#paint4_linear_10_231)"/>
<path d="M7.0483 12.609C9.33926 12.609 11.1965 9.93842 11.1965 6.64414C11.1965 3.34986 9.33926 0.679321 7.0483 0.679321C4.75734 0.679321 2.90015 3.34986 2.90015 6.64414C2.90015 9.93842 4.75734 12.609 7.0483 12.609Z" fill="url(#paint5_linear_10_231)"/>
<defs>
<linearGradient id="paint0_linear_10_231" x1="47.4493" y1="-7.5653" x2="-20.2749" y2="49.4396" gradientUnits="userSpaceOnUse">
<stop stop-color="#FFE88A"/>
<stop offset="1" stop-color="#FFE4C5"/>
</linearGradient>
<linearGradient id="paint1_linear_10_231" x1="4.62224" y1="51.5373" x2="30.5902" y2="15.7354" gradientUnits="userSpaceOnUse">
<stop offset="0.06" stop-color="#FF6800"/>
<stop offset="1" stop-color="#FFF100"/>
</linearGradient>
<linearGradient id="paint2_linear_10_231" x1="45.7326" y1="35.1013" x2="3.2639" y2="57.0544" gradientUnits="userSpaceOnUse">
<stop stop-color="#69BBFF"/>
<stop offset="1" stop-color="#1798FF"/>
</linearGradient>
<linearGradient id="paint3_linear_10_231" x1="24.3122" y1="-5.01465" x2="-11.9499" y2="37.6507" gradientUnits="userSpaceOnUse">
<stop stop-color="#69BBFF"/>
<stop offset="1" stop-color="#1798FF"/>
</linearGradient>
<linearGradient id="paint4_linear_10_231" x1="50.6528" y1="-12.4184" x2="-27.9672" y2="53.7582" gradientUnits="userSpaceOnUse">
<stop offset="0.06" stop-color="#FF6800"/>
<stop offset="1" stop-color="#FFF100"/>
</linearGradient>
<linearGradient id="paint5_linear_10_231" x1="17.0797" y1="-9.605" x2="-2.77396" y2="5.94778" gradientUnits="userSpaceOnUse">
<stop stop-color="#69BBFF"/>
<stop offset="1" stop-color="#1798FF"/>
</linearGradient>
</defs>
</svg>
