<svg width="58" height="58" fill="none" xmlns="http://www.w3.org/2000/svg"><path d="M37.9 24.2l-7.6 12.9c-.4 0-.8-.1-1.3-.1-2.8 0-5 2.2-5 5s2.2 5 5 5 5-2.2 5-5c0-1.6-.8-3-1.9-3.9l7.3-12.4c2 2.3 3.3 5.2 3.5 8.4 0 .5.5.9 1 .9h3.4c.5 0 .8-.3 1-.7.5-1.7.7-3.5.7-5.3 0-11-9-20-20-20S9 18 9 29c0 1.8.2 3.6.7 5.3.1.4.5.7 1 .7H14c.5 0 1-.4 1-.9.5-7.4 6.6-13.1 14-13.1 3.4 0 6.5 1.2 8.9 3.2zM29 45c-1.7 0-3-1.3-3-3s1.3-3 3-3 3 1.3 3 3-1.3 3-3 3zm-6.2-24.7l-2.9-6.7s0-.1-.1-.1c2.4-1.4 5.2-2.3 8.1-2.5v8c-1.7.2-3.5.6-5.1 1.3zM30 19v-8c3 .2 5.7 1 8.1 2.5 0 0 0 .1-.1.1l-2.9 6.7c-1.5-.7-3.3-1.1-5.1-1.3zm16.6 14h-1.7c-.3-2.3-1.1-4.4-2.2-6.3l3.6-2.7c.5 1.6.7 3.2.7 5 0 1.4-.2 2.7-.4 4zm-1-10.9c-.1 0-.2.1-.2.1l-3.9 2.9c-.3-.4-.7-.8-1.1-1.2l1.4-2.4c.3-.5.1-1.1-.4-1.4-.5-.3-1.1-.1-1.4.4l-1.2 2c-.6-.5-1.3-.9-1.9-1.3l2.8-6.5c2.7 1.9 4.7 4.4 5.9 7.4zM13.1 33h-1.7c-.3-1.3-.4-2.6-.4-4 0-1.7.3-3.4.7-5l3.6 2.7c-1.1 1.9-1.9 4-2.2 6.3zm3.4-7.9l-3.9-2.9c-.1-.1-.1-.1-.2-.1 1.2-3 3.3-5.5 5.8-7.5l2.8 6.5c-1.8 1.1-3.3 2.4-4.5 4z" fill="#000"/><path d="M53 48h-6.3c5.1-4.7 8.3-11.5 8.3-19C55 14.7 43.3 3 29 3c-1.1 0-2.2.1-3.3.2C24.9 1.3 23.1 0 21 0h-1c-2.2 0-4 1.8-4 4 0 .8.3 1.5.8 2-1.1.6-2.1 1.2-3.1 2H1c-.6 0-1 .4-1 1s.4 1 1 1h10.3C6.2 14.7 3 21.5 3 29c0 14.3 11.7 26 26 26 5.7 0 11-1.9 15.3-5H53c1.7 0 3 1.3 3 3s-1.3 3-3 3h-1c-1.1 0-2-.9-2-2 0-.6.4-1 1-1s1-.4 1-1-.4-1-1-1c-1.7 0-3 1.3-3 3 0 2.2 1.8 4 4 4h1c2.8 0 5-2.2 5-5s-2.2-5-5-5zM19 5c-.6 0-1-.4-1-1 0-1.1.9-2 2-2h1c1.1 0 2.1.6 2.6 1.6-1.6.3-3.1.8-4.6 1.4zm4.9.5C23.7 6.9 22.5 8 21 8h-3.6c2-1.1 4.2-2 6.5-2.5zM29 53C15.8 53 5 42.2 5 29c0-7.7 3.7-14.6 9.4-19H21c2.7 0 4.9-2.1 5-4.8 1-.1 2-.2 3-.2 13.2 0 24 10.8 24 24 0 7.7-3.7 14.6-9.4 19H25c-.6 0-1 .4-1 1s.4 1 1 1h15.6c-3.4 1.9-7.4 3-11.6 3z" fill="#000"/></svg>