<svg width="46" height="59" fill="none" xmlns="http://www.w3.org/2000/svg"><path d="M41.293 29.648l-19.084 4.384c-1.857.427-3.539-1.636-3.539-4.34V15.884c0-2.703 1.682-4.766 3.538-4.34l19.085 4.385c.718.165 1.371.692 1.843 1.488.472.795.73 1.806.73 2.852v5.04c0 1.045-.258 2.056-.73 2.852-.472.795-1.126 1.322-1.843 1.487z" fill="url(#paint0_linear_10_231)"/><path d="M19.23 34.515a1.58 1.58 0 01-.907-.3L6.126 25.739c-.352-.245-.65-.628-.858-1.104a4.02 4.02 0 01-.32-1.591c0-.563.109-1.115.316-1.593.207-.477.503-.862.855-1.109l12.263-8.616c.428-.301.915-.382 1.38-.23.464.152.878.528 1.173 1.065.296.537.454 1.204.45 1.889-.005.685-.172 1.347-.475 1.876-.333.58-.513 1.309-.51 2.06v9.286c-.003.724.165 1.427.475 1.997.24.443.39.974.43 1.533a4.164 4.164 0 01-.2 1.63c-.17.505-.437.93-.769 1.228-.332.298-.715.456-1.106.456zm-7.422-11.493l4.419 3.072v-6.177l-4.42 3.105z" fill="url(#paint1_linear_10_231)"/><path d="M34.977 55.244H23.224c-.553 0-1.084-.316-1.475-.878-.391-.563-.611-1.326-.611-2.122 0-.796.22-1.559.61-2.121.392-.563.923-.88 1.476-.88h11.753c.2.005.399-.049.584-.156.186-.107.355-.267.497-.469a2.36 2.36 0 00.333-.708 3.03 3.03 0 000-1.676 2.39 2.39 0 00-.333-.708 1.596 1.596 0 00-.497-.468 1.117 1.117 0 00-.584-.157 1.121 1.121 0 00-.622.19c-.196.127-.37.313-.511.546-.367.592-.882.951-1.433.999-.55.047-1.092-.22-1.506-.746-.413-.525-.666-1.264-.701-2.056-.036-.791.148-1.571.512-2.168.533-.87 1.189-1.565 1.924-2.042.734-.477 1.531-.723 2.337-.724 3.134 0 5.683 3.666 5.683 8.173 0 4.506-2.55 8.171-5.683 8.171z" fill="url(#paint2_linear_10_231)"/><path d="M12 52.83H9.13V6.11c0-.796-.22-1.559-.612-2.121-.391-.563-.922-.88-1.475-.88-.554 0-1.084.317-1.476.88-.39.562-.61 1.325-.61 2.121v46.72h-2.87c-.554 0-1.085.316-1.476.878C.22 54.271 0 55.034 0 55.83c0 .795.22 1.559.611 2.121.391.563.922.879 1.475.879H12c.553 0 1.084-.316 1.475-.879.392-.563.611-1.326.611-2.121 0-.796-.22-1.56-.61-2.122-.392-.563-.923-.879-1.476-.879z" fill="url(#paint3_linear_10_231)"/><path d="M40.32 12.07l-4.477-.762-8.658-1.475-3.763-.64a4.59 4.59 0 00-2.686.36c-.868.392-1.668 1.044-2.348 1.912-.68.869-1.224 1.935-1.596 3.127a12.789 12.789 0 00-.565 3.793v9.286c-.006 2.063.473 4.067 1.36 5.69.68 1.256 1.575 2.239 2.597 2.852 1.022.614 2.137.838 3.237.65l3.764-.64 8.658-1.474 4.477-.76c1.565-.267 3.008-1.35 4.055-3.045C45.422 29.249 46 27.06 46 24.794v-3.531c0-2.266-.579-4.454-1.626-6.148-1.046-1.694-2.489-2.777-4.054-3.044zM22.93 30.905c-.317.055-.64.012-.945-.126a2.228 2.228 0 01-.826-.672 3.458 3.458 0 01-.561-1.1 4.496 4.496 0 01-.2-1.335v-9.286c-.002-.752.18-1.481.512-2.06.241-.425.552-.755.906-.96a1.638 1.638 0 011.114-.212l1.923.328v15.097l-1.923.326zm6.096-14.714l4.485.764v12.148l-4.485.764V16.19zm12.801 8.604c0 .797-.203 1.566-.571 2.162-.368.595-.875.976-1.425 1.07l-2.146.366V17.664l2.146.366c.55.094 1.058.475 1.426 1.07.368.596.571 1.366.572 2.163l-.002 3.531z" fill="url(#paint4_linear_10_231)"/><path d="M7.048 12.609c2.291 0 4.149-2.67 4.149-5.965C11.197 3.35 9.338.68 7.048.68S2.9 3.35 2.9 6.644c0 3.294 1.857 5.965 4.148 5.965z" fill="url(#paint5_linear_10_231)"/><defs><linearGradient id="paint0_linear_10_231" x1="47.449" y1="-7.565" x2="-20.275" y2="49.44" gradientUnits="userSpaceOnUse"><stop stop-color="#FFE88A"/><stop offset="1" stop-color="#FFE4C5"/></linearGradient><linearGradient id="paint1_linear_10_231" x1="4.622" y1="51.537" x2="30.59" y2="15.735" gradientUnits="userSpaceOnUse"><stop offset=".06" stop-color="#FF6800"/><stop offset="1" stop-color="#FFF100"/></linearGradient><linearGradient id="paint2_linear_10_231" x1="45.733" y1="35.101" x2="3.264" y2="57.054" gradientUnits="userSpaceOnUse"><stop stop-color="#69BBFF"/><stop offset="1" stop-color="#1798FF"/></linearGradient><linearGradient id="paint3_linear_10_231" x1="24.312" y1="-5.015" x2="-11.95" y2="37.651" gradientUnits="userSpaceOnUse"><stop stop-color="#69BBFF"/><stop offset="1" stop-color="#1798FF"/></linearGradient><linearGradient id="paint4_linear_10_231" x1="50.653" y1="-12.418" x2="-27.967" y2="53.758" gradientUnits="userSpaceOnUse"><stop offset=".06" stop-color="#FF6800"/><stop offset="1" stop-color="#FFF100"/></linearGradient><linearGradient id="paint5_linear_10_231" x1="17.08" y1="-9.605" x2="-2.774" y2="5.948" gradientUnits="userSpaceOnUse"><stop stop-color="#69BBFF"/><stop offset="1" stop-color="#1798FF"/></linearGradient></defs></svg>