<svg width="206" height="201" viewBox="0 0 206 201" fill="none" xmlns="http://www.w3.org/2000/svg">
<path d="M110.354 32.1557V10.8425C110.354 4.89571 105.523 0.0737915 99.5573 0.0737915C93.5983 0.0737915 88.7608 4.89571 88.7608 10.8425V32.1557C92.2804 31.5964 95.8888 31.2962 99.5573 31.2962C103.232 31.2962 106.84 31.5932 110.354 32.1557Z" fill="#FFE239"/>
<path d="M145.054 149.599L160.91 163.842C165.334 167.816 172.15 167.444 176.136 163.006C180.118 158.573 179.764 151.752 175.34 147.778L159.484 133.535C157.548 136.528 155.36 139.412 152.909 142.142C150.453 144.875 147.821 147.361 145.054 149.599Z" fill="#FFE239"/>
<path d="M154.817 59.4883L169.956 44.3874C174.17 40.1817 174.17 33.3628 169.956 29.157C165.743 24.9512 158.906 24.9512 154.687 29.157L139.553 44.2547C145.414 48.4952 150.565 53.6426 154.817 59.4883Z" fill="#FFE239"/>
<path d="M95.0083 164.411L96.1249 185.765C96.438 191.71 101.511 196.267 107.455 195.943C113.4 195.619 117.968 190.533 117.659 184.584L116.541 163.236C109.47 164.762 102.198 165.155 95.0083 164.411Z" fill="#FFE239"/>
<path d="M44.298 59.4883C48.5558 53.6426 53.7101 48.4984 59.5677 44.2579L44.4343 29.1602C40.2145 24.9544 33.378 24.9544 29.1645 29.1602C24.9448 33.3659 24.9448 40.1849 29.1645 44.3906L44.298 59.4883Z" fill="#FFE239"/>
<path d="M168.863 82.1932C170.367 89.2671 170.749 96.5392 169.99 103.731L191.334 102.562C197.283 102.233 201.852 97.1471 201.538 91.2021C201.23 85.2523 196.157 80.6955 190.208 81.0242L168.863 82.1932Z" fill="#FFE239"/>
<path d="M10.7965 110.144H32.1678C31.6039 106.633 31.3093 103.041 31.3093 99.3752C31.3093 95.7098 31.607 92.117 32.1678 88.6064H10.7965C4.83119 88.6064 0 93.4284 0 99.3752C0 105.322 4.83119 110.144 10.7965 110.144Z" fill="#FFE239"/>
<path d="M44.298 139.259L29.1645 154.363C24.9448 158.565 24.9448 165.387 29.1645 169.59C31.2681 171.694 34.0337 172.747 36.7994 172.747C39.5587 172.747 42.3244 171.694 44.4343 169.59L59.5677 154.492C53.707 150.252 48.5526 145.104 44.298 139.259Z" fill="#FFE239"/>
<path d="M52.9022 99.3751C52.9022 103.088 53.3774 106.681 54.2074 110.144C55.3701 115.019 57.2962 119.592 59.8623 123.737C63.6924 129.934 68.9196 135.148 75.1257 138.968C75.9747 139.486 76.8079 140.004 77.6886 140.475C85.7068 130.711 96.3987 123.181 108.792 119.083C115.518 102.263 126.735 88.0628 140.795 77.6164C140.313 76.7221 139.788 75.8658 139.255 75.0064C135.432 68.8131 130.198 63.5961 123.992 59.7759C119.829 57.2164 115.248 55.2921 110.354 54.1356C106.882 53.3109 103.283 52.8306 99.5572 52.8306C95.8317 52.8306 92.2328 53.3109 88.7607 54.1356C83.8725 55.2921 79.2948 57.2164 75.1288 59.7759C68.9228 63.5961 63.6892 68.8131 59.8655 75.0064C57.2962 79.1521 55.3733 83.7244 54.2106 88.6C53.3806 92.0663 52.9022 95.6622 52.9022 99.3751Z" fill="#FFE239"/>
<path d="M147.836 101.117C147.836 97.4047 147.361 93.8119 146.531 90.3487C145.368 85.4731 143.442 80.9008 140.876 76.7551C137.046 70.5587 131.819 65.3449 125.613 61.5247C124.764 61.0065 123.931 60.4882 123.05 60.0174C115.032 69.7813 104.34 77.3112 91.9465 81.4096C85.2209 98.2294 74.003 112.43 59.9435 122.876C60.425 123.77 60.9509 124.627 61.4831 125.486C65.3069 131.679 70.5404 136.896 76.7465 140.717C80.9092 143.276 85.4901 145.2 90.3847 146.357C93.8568 147.182 97.4556 147.662 101.181 147.662C104.907 147.662 108.506 147.182 111.978 146.357C116.866 145.2 121.444 143.276 125.61 140.717C131.816 136.896 137.049 131.679 140.873 125.486C143.442 121.34 145.365 116.768 146.528 111.893C147.358 108.426 147.836 104.83 147.836 101.117Z" fill="#FFE239"/>
</svg>
