<svg width="207" height="130" viewBox="0 0 207 130" fill="none" xmlns="http://www.w3.org/2000/svg">
<path d="M173.818 49.9347C164.322 35.0111 147.606 25.795 129.87 25.795C122.03 25.795 114.536 27.5798 107.787 30.7506C105.362 31.8882 103.03 33.1958 100.818 34.6799C98.2166 36.4298 95.7967 38.4216 93.552 40.6053C86.7391 47.2324 81.6869 55.7076 79.3436 65.3595C73.6585 65.9501 68.4574 68.0008 64.0687 71.0954C61.2196 73.1046 58.7187 75.552 56.6645 78.3567C55.1075 80.488 53.8023 82.8133 52.8058 85.2998C51.3342 88.9784 50.5217 92.9926 50.5217 97.2073C50.5217 114.883 64.9754 129.264 82.738 129.264H166.832C167.892 129.264 168.941 129.21 169.981 129.129C190.74 127.517 207 110.017 207 89.2922C207 69.9513 192.829 53.2712 173.818 49.9347ZM166.832 112.392H82.738C74.3199 112.392 67.4763 105.58 67.4763 97.2051C67.4763 91.5957 70.5313 86.6684 75.1455 84.0402C76.6084 83.2077 78.2158 82.6062 79.9437 82.2881C80.3247 82.2183 80.7014 82.1529 81.089 82.1115C81.6321 82.0527 82.1796 82.0178 82.7359 82.0178C85.5412 82.0178 88.3049 82.8046 90.7204 84.2952C91.1869 84.5807 91.7081 84.7201 92.2271 84.7201C92.2358 84.7201 92.2446 84.7201 92.2534 84.7201C92.2577 84.7201 92.2621 84.7201 92.2709 84.7201C93.8498 84.7201 95.1331 83.4452 95.1331 81.8718C95.1331 81.6059 95.0937 81.3466 95.0258 81.1004C94.8966 79.88 94.8331 78.6792 94.8331 77.5264C94.8331 75.5498 95.0434 73.5754 95.3806 71.6249C95.4529 71.2109 95.4923 70.7881 95.5777 70.3784C97.1807 62.7335 101.309 56.1107 106.95 51.2466C113.17 45.8856 121.224 42.6625 129.868 42.6625C140.108 42.6625 149.816 47.13 156.506 54.9209C158.97 57.7888 160.937 61.0141 162.358 64.4987C162.789 65.5731 163.83 66.2814 164.984 66.2814C165.056 66.2814 165.128 66.277 165.203 66.2726L165.494 66.2552C165.995 66.2182 166.495 66.2007 166.996 66.2007C170.178 66.2007 173.365 66.9025 176.347 68.2449C184.671 71.9867 190.048 80.2483 190.048 89.2922C190.045 102.03 179.63 112.392 166.832 112.392Z" fill="#39ACFF"/>
<mask id="mask0_19_21" style="mask-type:alpha" maskUnits="userSpaceOnUse" x="0" y="0" width="140" height="110">
<path d="M32.1368 0.5L0.500002 66C0.500002 66 2 81 0.500001 81.5C-0.999999 82 11 99 11 99L37.5 110L52.5 105L104 46.5L131 37L139.5 0.5H32.1368Z" fill="#D9D9D9"/>
</mask>
<g mask="url(#mask0_19_21)">
<path d="M124.296 25.7007C114.801 10.7771 98.0847 1.56097 80.3484 1.56097C72.5083 1.56097 65.0143 3.3458 58.2649 6.51663C55.8406 7.6542 53.5084 8.96176 51.2965 10.4458C48.6949 12.1958 46.275 14.1876 44.0303 16.3713C37.2173 22.9984 32.1651 31.4736 29.8219 41.1255C24.1368 41.7161 18.9357 43.7668 14.547 46.8614C11.6979 48.8706 9.19697 51.318 7.1428 54.1227C5.58575 56.254 4.28054 58.5793 3.28411 61.0658C1.81247 64.7444 1 68.7586 1 72.9733C1 90.6493 15.4537 105.03 33.2163 105.03H117.31C118.37 105.03 119.419 104.976 120.459 104.895C141.218 103.283 157.478 85.783 157.478 65.0582C157.478 45.7172 143.307 29.0371 124.296 25.7007ZM117.31 88.1584H33.2163C24.7982 88.1584 17.9546 81.346 17.9546 72.9711C17.9546 67.3617 21.0095 62.4344 25.6238 59.8062C27.0867 58.9737 28.6941 58.3722 30.4219 58.0541C30.803 57.9843 31.1797 57.9189 31.5673 57.8775C32.1104 57.8187 32.6579 57.7838 33.2141 57.7838C36.0194 57.7838 38.7832 58.5705 41.1987 60.0612C41.6651 60.3466 42.1863 60.4861 42.7053 60.4861C42.7141 60.4861 42.7229 60.4861 42.7316 60.4861C42.736 60.4861 42.7404 60.4861 42.7491 60.4861C44.3281 60.4861 45.6114 59.2112 45.6114 57.6378C45.6114 57.3719 45.572 57.1126 45.5041 56.8664C45.3749 55.646 45.3114 54.4452 45.3114 53.2924C45.3114 51.3158 45.5216 49.3414 45.8589 47.3909C45.9311 46.9769 45.9706 46.5541 46.056 46.1444C47.659 38.4995 51.7871 31.8767 57.4284 27.0126C63.6478 21.6516 71.7024 18.4285 80.3462 18.4285C90.5863 18.4285 100.294 22.896 106.985 30.6868C109.448 33.5548 111.415 36.7801 112.836 40.2647C113.268 41.3391 114.308 42.0474 115.462 42.0474C115.534 42.0474 115.606 42.043 115.681 42.0386L115.972 42.0212C116.474 41.9842 116.973 41.9667 117.475 41.9667C120.657 41.9667 123.843 42.6684 126.826 44.0109C135.15 47.7527 140.526 56.0143 140.526 65.0582C140.524 77.796 130.108 88.1584 117.31 88.1584Z" fill="#39ACFF"/>
</g>
</svg>
