<svg width="206" height="158" viewBox="0 0 206 158" fill="none" xmlns="http://www.w3.org/2000/svg">
<mask id="mask0_19_151" style="mask-type:alpha" maskUnits="userSpaceOnUse" x="0" y="0" width="206" height="137">
<path d="M162.317 31.7794C149.816 12.1328 127.81 0 104.46 0C94.1391 0 84.2734 2.34968 75.3879 6.524C72.1964 8.02159 69.126 9.74297 66.2142 11.6967C62.7892 14.0005 59.6034 16.6227 56.6483 19.4974C47.6793 28.2219 41.0282 39.3792 37.9434 52.0858C30.459 52.8633 23.6119 55.563 17.8343 59.6369C14.0835 62.2821 10.7911 65.5039 8.08686 69.1962C6.03703 72.0021 4.31875 75.0633 3.00698 78.3367C1.0696 83.1795 0 88.4641 0 94.0127C0 117.283 19.0279 136.215 42.412 136.215H153.12C154.515 136.215 155.896 136.143 157.266 136.037C184.594 133.914 206 110.876 206 83.5927C206 58.1307 187.344 36.1717 162.317 31.7794ZM153.12 114.004H42.412C31.3297 114.004 22.3203 105.035 22.3203 94.0098C22.3203 86.6251 26.3421 80.1384 32.4166 76.6785C34.3425 75.5825 36.4586 74.7907 38.7333 74.3718C39.2349 74.28 39.7308 74.1939 40.2411 74.1394C40.9561 74.062 41.6769 74.0161 42.4091 74.0161C46.1023 74.0161 49.7406 75.0518 52.9206 77.0141C53.5347 77.39 54.2208 77.5736 54.9041 77.5736C54.9157 77.5736 54.9272 77.5736 54.9387 77.5736C54.9445 77.5736 54.9503 77.5736 54.9618 77.5736C57.0404 77.5736 58.7299 75.8952 58.7299 73.8239C58.7299 73.4738 58.678 73.1324 58.5886 72.8083C58.4185 71.2016 58.3349 69.6208 58.3349 68.1032C58.3349 65.501 58.6117 62.9018 59.0557 60.3341C59.1508 59.789 59.2027 59.2324 59.3151 58.693C61.4255 48.6287 66.86 39.91 74.2866 33.5065C82.4744 26.4489 93.0781 22.2057 104.457 22.2057C117.938 22.2057 130.719 28.087 139.526 38.3435C142.77 42.1191 145.359 46.3651 147.23 50.9526C147.798 52.367 149.167 53.2994 150.686 53.2994C150.782 53.2994 150.877 53.2936 150.975 53.2879L151.358 53.265C152.018 53.2162 152.676 53.1932 153.336 53.1932C157.525 53.1932 161.72 54.117 165.646 55.8843C176.605 60.8103 183.683 71.6865 183.683 83.5927C183.68 100.362 169.968 114.004 153.12 114.004Z" fill="#3941FF"/>
</mask>
<g mask="url(#mask0_19_151)">
<rect width="205.37" height="110.584" fill="#3941FF"/>
</g>
<rect x="19.7471" y="125.065" width="65.8238" height="10.5318" rx="5.26591" fill="#D9D9D9"/>
<rect x="102.685" y="125.065" width="102.685" height="10.5318" rx="5.26591" fill="#D9D9D9"/>
<rect x="60.5579" y="147.445" width="102.685" height="10.5318" rx="5.26591" fill="#D9D9D9"/>
</svg>
