<svg width="206" height="153" viewBox="0 0 206 153" fill="none" xmlns="http://www.w3.org/2000/svg">
<path d="M73.0652 21.0102V7.05955C73.0652 3.16702 69.8956 0.0108032 65.9819 0.0108032C62.0724 0.0108032 58.8986 3.16702 58.8986 7.05955V21.0102C61.2078 20.6441 63.5751 20.4476 65.9819 20.4476C68.3929 20.4476 70.7602 20.642 73.0652 21.0102Z" fill="#FFE239"/>
<path d="M102.236 38.9009L112.169 29.0165C114.933 26.2636 114.933 21.8002 112.169 19.0473C109.405 16.2944 104.919 16.2944 102.151 19.0473L92.2222 28.9296C96.0673 31.7053 99.4468 35.0745 102.236 38.9009Z" fill="#FFE239"/>
<path d="M29.7279 38.9009C32.5213 35.0746 35.9029 31.7074 39.7459 28.9318L29.8172 19.0495C27.0488 16.2966 22.5635 16.2966 19.7992 19.0495C17.0307 21.8024 17.0307 26.2658 19.7992 29.0186L29.7279 38.9009Z" fill="#FFE239"/>
<path d="M7.74842 72.0577H21.7695C21.3996 69.7598 21.2063 67.4082 21.2063 65.0089C21.2063 62.6097 21.4016 60.2581 21.7695 57.9602H7.74842C3.83474 57.9602 0.665131 61.1164 0.665131 65.0089C0.665131 68.9015 3.83474 72.0577 7.74842 72.0577Z" fill="#FFE239"/>
<path d="M29.7279 91.115L19.7992 101.001C17.0307 103.752 17.0307 108.218 19.7992 110.969C21.1793 112.346 22.9937 113.035 24.8082 113.035C26.6185 113.035 28.433 112.346 29.8172 110.969L39.7459 101.086C35.9008 98.3106 32.5192 94.9413 29.7279 91.115Z" fill="#FFE239"/>
<path d="M35.3728 65.009C35.3728 67.4392 35.6846 69.7909 36.2291 72.0577C36.9919 75.2491 38.2556 78.2419 39.9391 80.9555C42.452 85.0114 45.8814 88.4241 49.953 90.9247C50.51 91.2639 51.0567 91.6031 51.6345 91.9113C56.895 85.5202 63.9097 80.5915 72.0405 77.9089C76.453 66.8994 83.8127 57.6045 93.0368 50.7667C92.7209 50.1814 92.3759 49.6209 92.0267 49.0583C89.518 45.0045 86.0845 41.5897 82.0128 39.0891C79.2817 37.4138 76.2763 36.1542 73.0652 35.3972C70.7872 34.8574 68.4261 34.543 65.9819 34.543C63.5376 34.543 61.1765 34.8574 58.8986 35.3972C55.6916 36.1542 52.6882 37.4138 49.9551 39.0891C45.8834 41.5897 42.4499 45.0045 39.9412 49.0583C38.2556 51.7719 36.994 54.7647 36.2312 57.9561C35.6867 60.225 35.3728 62.5787 35.3728 65.009Z" fill="#FFE239"/>
<path d="M172.705 75.2573C163.693 61.0937 147.829 52.3469 130.995 52.3469C123.555 52.3469 116.442 54.0408 110.036 57.0502C107.736 58.1298 105.522 59.3708 103.423 60.7793C100.954 62.4401 98.657 64.3306 96.5266 66.403C90.0606 72.6927 85.2657 80.7363 83.0417 89.8967C77.6461 90.4572 72.7098 92.4035 68.5447 95.3405C65.8406 97.2474 63.4671 99.5701 61.5175 102.232C60.0397 104.255 58.801 106.462 57.8553 108.822C56.4586 112.313 55.6875 116.123 55.6875 120.123C55.6875 136.899 69.4051 150.547 86.2633 150.547H166.075C167.081 150.547 168.077 150.496 169.064 150.419C188.765 148.889 204.198 132.28 204.198 112.611C204.198 94.2546 190.748 78.4239 172.705 75.2573ZM166.075 134.535H86.2633C78.2738 134.535 71.7787 128.069 71.7787 120.121C71.7787 114.797 74.6781 110.12 79.0574 107.626C80.4458 106.836 81.9713 106.265 83.6112 105.963C83.9729 105.897 84.3304 105.835 84.6982 105.796C85.2137 105.74 85.7333 105.707 86.2612 105.707C88.9237 105.707 91.5467 106.453 93.8392 107.868C94.2819 108.139 94.7766 108.271 95.2691 108.271C95.2775 108.271 95.2858 108.271 95.2941 108.271C95.2982 108.271 95.3024 108.271 95.3107 108.271C96.8093 108.271 98.0272 107.061 98.0272 105.568C98.0272 105.316 97.9898 105.07 97.9254 104.836C97.8027 103.678 97.7425 102.538 97.7425 101.444C97.7425 99.5681 97.942 97.6942 98.2621 95.8431C98.3307 95.4501 98.3681 95.0488 98.4491 94.66C99.9706 87.4044 103.888 81.1189 109.242 76.5025C115.145 71.4145 122.79 68.3555 130.993 68.3555C140.712 68.3555 149.926 72.5955 156.275 79.9896C158.613 82.7115 160.48 85.7725 161.829 89.0798C162.238 90.0994 163.226 90.7716 164.321 90.7716C164.389 90.7716 164.458 90.7675 164.529 90.7633L164.805 90.7468C165.281 90.7116 165.755 90.6951 166.231 90.6951C169.251 90.6951 172.275 91.3611 175.106 92.6351C183.006 96.1864 188.109 104.027 188.109 112.611C188.106 124.7 178.221 134.535 166.075 134.535Z" fill="#39ACFF"/>
</svg>
