<svg width="206" height="187" viewBox="0 0 206 187" fill="none" xmlns="http://www.w3.org/2000/svg">
<path d="M154.5 135.188C150.94 135.188 148.062 138.039 148.062 141.689V154.436C148.062 158.028 150.914 160.938 154.5 160.938C158.06 160.938 160.938 158.086 160.938 154.436V141.689C160.938 138.097 158.086 135.188 154.5 135.188Z" fill="#0500FF"/>
<path d="M103 135.188C99.4401 135.188 96.5625 138.039 96.5625 141.689V154.436C96.5625 158.028 99.4208 160.938 103 160.938C106.56 160.938 109.438 158.086 109.438 154.436V141.689C109.438 138.097 106.586 135.188 103 135.188Z" fill="#0500FF"/>
<path d="M51.5 135.188C47.9401 135.188 45.0625 138.039 45.0625 141.689V154.436C45.0625 158.028 47.9208 160.938 51.5 160.938C55.0599 160.938 57.9375 158.086 57.9375 154.436V141.689C57.9375 138.097 55.0793 135.188 51.5 135.188Z" fill="#0500FF"/>
<path d="M129.438 161C125.878 161 123 163.852 123 167.502V180.248C123 183.84 125.858 186.75 129.438 186.75C132.997 186.75 135.875 183.898 135.875 180.248V167.502C135.875 163.91 133.023 161 129.438 161Z" fill="#0500FF"/>
<path d="M76.4375 161C72.8776 161 70 163.852 70 167.502V180.248C70 183.84 72.8583 186.75 76.4375 186.75C79.9974 186.75 82.875 183.898 82.875 180.248V167.502C82.875 163.91 80.0232 161 76.4375 161Z" fill="#0500FF"/>
<path d="M177.585 52.8647C171.624 37.0221 156.328 25.75 138.406 25.75C134.28 25.75 130.295 26.3487 126.523 27.4624C116.313 10.9759 98.0624 0 77.25 0C45.6805 0 19.9949 25.2608 19.3254 56.6693C7.77006 63.3579 0 75.8531 0 90.125C0 111.446 17.2976 128.75 38.625 128.75H167.375C188.696 128.75 206 111.414 206 90.125C206 72.3253 193.962 57.3388 177.585 52.8647ZM167.394 115.875H38.6057C24.4239 115.875 12.875 104.345 12.875 90.125C12.875 77.9453 21.3532 67.7096 32.7476 65.0445C32.3742 62.7334 32.1875 60.358 32.1875 57.9375C32.1875 33.0501 52.3626 12.875 77.25 12.875C97.6054 12.875 114.806 26.3744 120.394 44.9016C125.345 40.9683 131.589 38.625 138.406 38.625C153.316 38.625 165.605 49.8906 167.201 64.375H167.394C181.576 64.375 193.125 75.9046 193.125 90.125C193.125 104.32 181.608 115.875 167.394 115.875Z" fill="#8987FF"/>
</svg>
