<svg width="206" height="184" viewBox="0 0 206 184" fill="none" xmlns="http://www.w3.org/2000/svg">
<path d="M177.585 52.8647C171.624 37.0221 156.328 25.75 138.406 25.75C134.28 25.75 130.295 26.3487 126.523 27.4624C116.313 10.9759 98.0624 0 77.25 0C45.6805 0 19.9949 25.2608 19.3254 56.6693C7.77006 63.3579 0 75.8531 0 90.125C0 111.446 17.2976 128.75 38.625 128.75H167.375C188.696 128.75 206 111.414 206 90.125C206 72.3253 193.962 57.3388 177.585 52.8647ZM167.394 115.875H38.6057C24.4239 115.875 12.875 104.345 12.875 90.125C12.875 77.9453 21.3532 67.7096 32.7476 65.0445C32.3742 62.7334 32.1875 60.358 32.1875 57.9375C32.1875 33.0501 52.3626 12.875 77.25 12.875C97.6054 12.875 114.806 26.3744 120.394 44.9016C125.345 40.9683 131.589 38.625 138.406 38.625C153.316 38.625 165.605 49.8906 167.201 64.375H167.394C181.576 64.375 193.125 75.9046 193.125 90.125C193.125 104.32 181.608 115.875 167.394 115.875Z" fill="#8381FF"/>
<path d="M61.8268 141.51C61.3856 140.595 60.0611 140.138 58.7137 140.595L54.2759 143.362V138.31C54.2759 136.939 53.393 136 52.0454 136C50.6979 136 49.815 136.914 49.815 138.31V143.362L45.3773 140.595C44.4945 140.138 43.1469 140.595 42.264 141.51C41.8226 142.424 41.8226 143.819 43.1469 144.733L47.5845 147.5L43.1469 150.266C42.264 150.724 41.8226 152.095 42.264 153.49C42.7055 154.405 44.053 154.862 45.3773 154.405L49.815 151.638V156.69C49.815 158.061 50.6979 159 52.0454 159C53.393 159 54.2759 158.086 54.2759 156.69V151.638L58.7137 154.405C59.5966 154.862 60.9442 154.405 61.8268 153.49C62.2683 152.119 61.8268 150.724 60.9439 150.266L56.5063 147.5L60.9439 144.733C61.8268 144.276 62.2683 142.881 61.8268 141.51Z" fill="#00A3FF"/>
<path d="M112.827 141.51C112.386 140.595 111.061 140.138 109.714 140.595L105.276 143.362V138.31C105.276 136.939 104.393 136 103.045 136C101.698 136 100.815 136.914 100.815 138.31V143.362L96.3773 140.595C95.4945 140.138 94.1469 140.595 93.264 141.51C92.8226 142.424 92.8226 143.819 94.1469 144.733L98.5845 147.5L94.1469 150.266C93.264 150.724 92.8226 152.095 93.264 153.49C93.7055 154.405 95.053 154.862 96.3773 154.405L100.815 151.638V156.69C100.815 158.061 101.698 159 103.045 159C104.393 159 105.276 158.086 105.276 156.69V151.638L109.714 154.405C110.597 154.862 111.944 154.405 112.827 153.49C113.268 152.119 112.827 150.724 111.944 150.266L107.506 147.5L111.944 144.733C112.827 144.276 113.268 142.881 112.827 141.51Z" fill="#00A3FF"/>
<path d="M164.827 141.51C164.386 140.595 163.061 140.138 161.714 140.595L157.276 143.362V138.31C157.276 136.939 156.393 136 155.045 136C153.698 136 152.815 136.914 152.815 138.31V143.362L148.377 140.595C147.494 140.138 146.147 140.595 145.264 141.51C144.823 142.424 144.823 143.819 146.147 144.733L150.585 147.5L146.147 150.266C145.264 150.724 144.823 152.095 145.264 153.49C145.705 154.405 147.053 154.862 148.377 154.405L152.815 151.638V156.69C152.815 158.061 153.698 159 155.045 159C156.393 159 157.276 158.086 157.276 156.69V151.638L161.714 154.405C162.597 154.862 163.944 154.405 164.827 153.49C165.268 152.119 164.827 150.724 163.944 150.266L159.506 147.5L163.944 144.733C164.827 144.276 165.268 142.881 164.827 141.51Z" fill="#00A3FF"/>
<path d="M86.8268 166.51C86.3856 165.595 85.0611 165.138 83.7137 165.595L79.2759 168.362V163.31C79.2759 161.939 78.393 161 77.0454 161C75.6979 161 74.815 161.914 74.815 163.31V168.362L70.3773 165.595C69.4945 165.138 68.1469 165.595 67.264 166.51C66.8226 167.424 66.8226 168.819 68.1469 169.733L72.5845 172.5L68.1469 175.266C67.264 175.724 66.8226 177.095 67.264 178.49C67.7055 179.405 69.053 179.862 70.3773 179.405L74.815 176.638V181.69C74.815 183.061 75.6979 184 77.0454 184C78.393 184 79.2759 183.086 79.2759 181.69V176.638L83.7137 179.405C84.5966 179.862 85.9442 179.405 86.8268 178.49C87.2683 177.119 86.8268 175.724 85.9439 175.266L81.5063 172.5L85.9439 169.733C86.8268 169.276 87.2683 167.881 86.8268 166.51Z" fill="#00A3FF"/>
<path d="M138.827 166.51C138.386 165.595 137.061 165.138 135.714 165.595L131.276 168.362V163.31C131.276 161.939 130.393 161 129.045 161C127.698 161 126.815 161.914 126.815 163.31V168.362L122.377 165.595C121.494 165.138 120.147 165.595 119.264 166.51C118.823 167.424 118.823 168.819 120.147 169.733L124.585 172.5L120.147 175.266C119.264 175.724 118.823 177.095 119.264 178.49C119.705 179.405 121.053 179.862 122.377 179.405L126.815 176.638V181.69C126.815 183.061 127.698 184 129.045 184C130.393 184 131.276 183.086 131.276 181.69V176.638L135.714 179.405C136.597 179.862 137.944 179.405 138.827 178.49C139.268 177.119 138.827 175.724 137.944 175.266L133.506 172.5L137.944 169.733C138.827 169.276 139.268 167.881 138.827 166.51Z" fill="#00A3FF"/>
</svg>
