<svg width="206" height="167" viewBox="0 0 206 167" fill="none" xmlns="http://www.w3.org/2000/svg">
<mask id="mask0_19_150" style="mask-type:alpha" maskUnits="userSpaceOnUse" x="0" y="0" width="206" height="137">
<path d="M162.317 31.7794C149.816 12.1328 127.81 0 104.46 0C94.1391 0 84.2734 2.34968 75.3879 6.524C72.1964 8.02159 69.126 9.74297 66.2142 11.6967C62.7892 14.0005 59.6034 16.6227 56.6483 19.4974C47.6793 28.2219 41.0282 39.3792 37.9434 52.0858C30.459 52.8633 23.6119 55.563 17.8343 59.6369C14.0835 62.2821 10.7911 65.5039 8.08686 69.1962C6.03703 72.0021 4.31875 75.0633 3.00698 78.3367C1.0696 83.1795 0 88.4641 0 94.0127C0 117.283 19.0279 136.215 42.412 136.215H153.12C154.515 136.215 155.896 136.143 157.266 136.037C184.594 133.914 206 110.876 206 83.5927C206 58.1307 187.344 36.1717 162.317 31.7794ZM153.12 114.004H42.412C31.3297 114.004 22.3203 105.035 22.3203 94.0098C22.3203 86.6251 26.3421 80.1384 32.4166 76.6785C34.3425 75.5825 36.4586 74.7907 38.7333 74.3718C39.2349 74.28 39.7308 74.1939 40.2411 74.1394C40.9561 74.062 41.6769 74.0161 42.4091 74.0161C46.1023 74.0161 49.7406 75.0518 52.9206 77.0141C53.5347 77.39 54.2208 77.5736 54.9041 77.5736C54.9157 77.5736 54.9272 77.5736 54.9387 77.5736C54.9445 77.5736 54.9503 77.5736 54.9618 77.5736C57.0404 77.5736 58.7299 75.8952 58.7299 73.8239C58.7299 73.4738 58.678 73.1324 58.5886 72.8083C58.4185 71.2016 58.3349 69.6208 58.3349 68.1032C58.3349 65.501 58.6117 62.9018 59.0557 60.3341C59.1508 59.789 59.2027 59.2324 59.3151 58.693C61.4255 48.6287 66.86 39.91 74.2866 33.5065C82.4744 26.4489 93.0781 22.2057 104.457 22.2057C117.938 22.2057 130.719 28.087 139.526 38.3435C142.77 42.1191 145.359 46.3651 147.23 50.9526C147.798 52.367 149.167 53.2994 150.686 53.2994C150.782 53.2994 150.877 53.2936 150.975 53.2879L151.358 53.265C152.018 53.2162 152.676 53.1932 153.336 53.1932C157.525 53.1932 161.72 54.117 165.646 55.8843C176.605 60.8103 183.683 71.6865 183.683 83.5927C183.68 100.362 169.968 114.004 153.12 114.004Z" fill="#3941FF"/>
</mask>
<g mask="url(#mask0_19_150)">
<rect width="205.37" height="110.584" fill="#8487DA"/>
</g>
<path d="M140.649 112.616C149.679 112.616 157 119.915 157 128.922C157 137.928 149.679 145.228 140.649 145.228L140.482 145.227L139.928 145.264L133.579 145.266C134.618 147.294 135.205 149.588 135.205 152.02C135.205 160.334 128.927 167 120.636 167C112.439 167 107.48 162.208 106.146 155.57C105.703 153.363 107.136 151.214 109.349 150.772C111.56 150.329 113.713 151.76 114.157 153.968C114.774 157.04 116.643 158.847 120.636 158.847C124.297 158.847 127.035 155.94 127.035 152.02C127.035 148.279 123.942 145.228 120.104 145.228L52.0848 145.264C49.8288 145.264 48 143.439 48 141.188C48 139.124 49.5367 137.418 51.5305 137.148L52.0848 137.111L119.549 137.112L120.104 137.075C120.453 137.075 120.8 137.087 121.143 137.11L140.051 137.118L140.347 137.086L141.438 137.037C145.587 136.642 148.83 133.159 148.83 128.922C148.83 124.42 145.169 120.769 140.649 120.769C136.572 120.769 133.166 123.752 132.564 127.674L132.414 128.97C132.024 130.94 130.225 132.368 128.16 132.244C125.909 132.108 124.193 130.177 124.329 127.929C124.848 119.346 131.992 112.616 140.649 112.616ZM90.2821 153.381C92.538 153.381 94.3669 155.206 94.3669 157.458C94.3669 159.709 92.538 161.534 90.2821 161.534C88.0262 161.534 86.1973 159.709 86.1973 157.458C86.1973 155.206 88.0262 153.381 90.2821 153.381ZM102.538 80C114.571 80 124.325 89.7348 124.325 101.743C124.325 113.711 114.635 123.422 102.658 123.486H52.1881C49.9322 123.486 48.1034 121.661 48.1034 119.41C48.1034 117.346 49.6401 115.641 51.6339 115.37L52.1881 115.333H102.538L103.433 115.305C110.537 114.844 116.156 108.949 116.156 101.743C116.156 94.2376 110.059 88.1531 102.538 88.1531C95.0172 88.1531 88.9205 94.2376 88.9205 101.743C88.9205 103.995 87.0917 105.82 84.8357 105.82C82.5798 105.82 80.751 103.995 80.751 101.743C80.751 89.7348 90.5054 80 102.538 80ZM142.023 93.5919C144.278 93.5919 146.107 95.417 146.107 97.6684C146.107 99.9198 144.278 101.745 142.023 101.745C139.767 101.745 137.938 99.9198 137.938 97.6684C137.938 95.417 139.767 93.5919 142.023 93.5919ZM68.4967 85.4388C70.7526 85.4388 72.5814 87.264 72.5814 89.5153C72.5814 91.7667 70.7526 93.5919 68.4967 93.5919C66.2407 93.5919 64.4119 91.7667 64.4119 89.5153C64.4119 87.264 66.2407 85.4388 68.4967 85.4388Z" fill="#212121"/>
</svg>
