<svg width="260" height="194" fill="none" xmlns="http://www.w3.org/2000/svg"><path d="M208.683 69.795C193.997 46.43 168.145 32 140.715 32c-12.124 0-23.714 2.794-34.152 7.759a81.035 81.035 0 00-10.777 6.152c-4.024 2.74-7.766 5.858-11.238 9.277-10.536 10.376-18.35 23.646-21.974 38.757-8.792.925-16.836 4.136-23.623 8.981a49.932 49.932 0 00-17.419 22.24A50.597 50.597 0 0018 143.809C18 171.484 40.353 194 67.824 194h130.055c1.639 0 3.261-.085 4.87-.212C234.853 191.264 260 163.865 260 131.416c0-30.281-21.916-56.397-51.317-61.62zm-10.804 97.789H67.824c-13.02 0-23.603-10.666-23.603-23.778a23.736 23.736 0 0111.86-20.613 23.42 23.42 0 017.421-2.743 23.88 23.88 0 011.771-.276c.84-.092 1.687-.147 2.547-.147 4.339 0 8.613 1.232 12.349 3.566a4.413 4.413 0 002.33.665h.068c2.442 0 4.426-1.996 4.426-4.46 0-.416-.06-.822-.166-1.207a54.015 54.015 0 01-.298-5.596c0-3.095.326-6.186.847-9.24.112-.648.173-1.31.305-1.952 2.48-11.969 8.863-22.338 17.588-29.954 9.618-8.393 22.075-13.44 35.443-13.44 15.837 0 30.851 6.995 41.198 19.193a54.77 54.77 0 019.049 14.996c.667 1.682 2.276 2.79 4.061 2.79.112 0 .224-.006.339-.013l.45-.027a31.114 31.114 0 012.324-.085c4.921 0 9.849 1.098 14.461 3.2 12.874 5.858 21.188 18.794 21.188 32.953-.003 19.944-16.111 36.168-35.903 36.168zM43.358 32.002l18.36-18.344a7.931 7.931 0 002.35-5.656 7.94 7.94 0 00-2.35-5.658 7.954 7.954 0 00-5.66-2.342 7.97 7.97 0 00-5.664 2.342L32.03 20.688 13.668 2.344A7.959 7.959 0 008.002 0a7.955 7.955 0 00-5.66 2.344c-3.122 3.12-3.124 8.194 0 11.314l18.364 18.344L2.344 50.346c-3.124 3.124-3.124 8.198 0 11.316a7.962 7.962 0 005.662 2.342c2.138 0 4.15-.832 5.662-2.344L32.03 43.316l18.362 18.342a7.966 7.966 0 005.66 2.344c2.14 0 4.152-.832 5.664-2.344 3.124-3.124 3.124-8.198 0-11.314L43.358 32.002zM58.884 58.83c-1.512 1.51-4.148 1.512-5.664 0L33.446 39.074a1.995 1.995 0 00-2.832 0L10.836 58.832c-1.514 1.51-4.15 1.51-5.664 0a4.005 4.005 0 010-5.658L24.95 33.416c.376-.376.586-.88.586-1.414 0-.53-.21-1.04-.586-1.414L5.17 10.83a4.005 4.005 0 010-5.658A3.985 3.985 0 018.002 4c1.072 0 2.076.416 2.834 1.172L30.614 24.93a2.003 2.003 0 002.832 0L53.224 5.174c1.514-1.512 4.148-1.512 5.664-.002a3.986 3.986 0 011.172 2.83 3.981 3.981 0 01-1.172 2.828L39.11 30.588a1.994 1.994 0 000 2.828l19.778 19.756a4.002 4.002 0 01-.004 5.658z" fill="#FF3939"/></svg>