<svg width="1010" height="1010" viewBox="0 0 1010 1010" fill="none" xmlns="http://www.w3.org/2000/svg">
<path d="M919.411 1010C943.602 1010 966.342 1000.6 983.45 983.495C1000.58 966.352 1009.99 943.612 1009.99 919.402C1009.99 895.228 1000.58 872.454 983.45 855.345L800.317 672.213C783.209 655.104 760.47 645.672 736.278 645.672C712.086 645.672 689.33 655.105 672.203 672.177C636.893 707.541 636.911 765.034 672.203 800.326L855.336 983.495C872.462 1000.6 895.219 1010 919.411 1010ZM736.278 682.398C750.661 682.398 764.182 687.994 774.35 698.18L957.482 881.312C967.669 891.499 973.264 905.02 973.264 919.402C973.264 933.785 967.669 947.343 957.482 957.527C937.146 977.864 901.675 977.864 881.303 957.493L698.17 774.359C677.189 753.378 677.189 719.197 698.189 698.18C708.356 687.994 721.877 682.398 736.278 682.398Z" fill="#5C524C"/>
<path d="M666.752 736.197C668.348 736.197 669.961 735.982 671.558 735.553C677.906 733.83 682.855 728.846 684.523 722.497C687.016 712.922 691.625 704.743 698.188 698.144C704.716 691.652 712.911 687.061 722.523 684.514C728.872 682.829 733.839 677.879 735.561 671.53C737.264 665.182 735.453 658.404 730.808 653.778L672.06 595.028C668.401 591.334 663.362 589.361 658.162 589.649C652.979 589.935 648.137 592.375 644.855 596.391C630.383 614.073 614.082 630.392 596.382 644.847C592.365 648.146 589.926 652.988 589.657 658.153C589.406 663.353 591.343 668.375 595.019 672.069L653.768 730.818C657.247 734.297 661.945 736.197 666.752 736.197ZM686.083 660.986C681.062 664.251 676.418 667.98 672.221 672.177C668.007 676.409 664.241 681.071 660.977 686.058L634.956 660.055C643.708 652.092 652.082 643.699 660.062 634.948L686.083 660.986Z" fill="#5C524C"/>
<path d="M379.5 759.009C588.761 759.009 759 588.752 759 379.5C759 170.239 588.761 0 379.5 0C170.239 0 0 170.239 0 379.5C0 588.752 170.239 759.009 379.5 759.009ZM379.5 36.7271C568.496 36.7271 722.272 190.503 722.272 379.5C722.272 568.487 568.496 722.281 379.5 722.281C190.503 722.281 36.7256 568.487 36.7256 379.5C36.7256 190.503 190.503 36.7271 379.5 36.7271Z" fill="#5C524C"/>
<path d="M578.126 379.823C588.276 379.823 596.49 371.609 596.49 361.459C596.49 231.839 491.06 126.393 361.459 126.393C351.31 126.393 343.095 134.605 343.095 144.756C343.095 154.906 351.31 163.12 361.459 163.12C470.797 163.12 559.763 252.086 559.763 361.459C559.763 371.609 567.977 379.823 578.126 379.823Z" fill="#5C524C"/>
</svg>
