<svg width="78" height="78" viewBox="0 0 78 78" fill="none" xmlns="http://www.w3.org/2000/svg">
<path d="M71.0041 78C72.8724 78 74.6285 77.274 75.9497 75.9531C77.2726 74.6292 77.9993 72.873 77.9993 71.0033C77.9993 69.1364 77.2726 67.3776 75.9497 66.0563L61.8068 51.9135C60.4856 50.5922 58.7295 49.8638 56.8612 49.8638C54.9929 49.8638 53.2355 50.5923 51.9128 51.9107C49.1859 54.6418 49.1873 59.0818 51.9128 61.8073L66.0558 75.9531C67.3784 77.274 69.1358 78 71.0041 78ZM56.8612 52.7C57.972 52.7 59.0162 53.1322 59.8014 53.9188L73.9443 68.0617C74.731 68.8484 75.1631 69.8926 75.1631 71.0033C75.1631 72.1141 74.731 73.1611 73.9443 73.9476C72.3738 75.5182 69.6344 75.5182 68.0611 73.945L53.9182 59.802C52.2979 58.1817 52.2979 55.5419 53.9197 53.9188C54.7048 53.1322 55.749 52.7 56.8612 52.7Z" fill="white"/>
<path d="M51.4917 56.8549C51.6149 56.8549 51.7395 56.8383 51.8628 56.8051C52.3531 56.6721 52.7353 56.2872 52.8641 55.7968C53.0566 55.0574 53.4126 54.4257 53.9194 53.9161C54.4236 53.4148 55.0564 53.0602 55.7987 52.8635C56.2891 52.7334 56.6727 52.3511 56.8056 51.8608C56.9372 51.3705 56.7973 50.8471 56.4386 50.4898L51.9016 45.9527C51.619 45.6674 51.2299 45.5151 50.8283 45.5373C50.428 45.5594 50.0541 45.7478 49.8006 46.058C48.683 47.4235 47.4241 48.6838 46.0572 49.8001C45.7469 50.0549 45.5586 50.4288 45.5378 50.8277C45.5184 51.2293 45.668 51.6171 45.9519 51.9024L50.489 56.4395C50.7576 56.7081 51.1204 56.8549 51.4917 56.8549ZM52.9846 51.0465C52.5968 51.2986 52.2382 51.5866 51.914 51.9107C51.5886 52.2376 51.2978 52.5976 51.0457 52.9827L49.0361 50.9746C49.712 50.3596 50.3587 49.7115 50.975 49.0356L52.9846 51.0465Z" fill="white"/>
<path d="M29.3079 58.6165C45.4687 58.6165 58.6158 45.468 58.6158 29.3079C58.6158 13.1472 45.4687 0 29.3079 0C13.1472 0 0 13.1472 0 29.3079C0 45.468 13.1472 58.6165 29.3079 58.6165ZM29.3079 2.83635C43.9036 2.83635 55.7794 14.7121 55.7794 29.3079C55.7794 43.903 43.9036 55.7801 29.3079 55.7801C14.7121 55.7801 2.83623 43.903 2.83623 29.3079C2.83623 14.7121 14.7121 2.83635 29.3079 2.83635Z" fill="white"/>
<path d="M44.6472 29.3328C45.4311 29.3328 46.0655 28.6985 46.0655 27.9146C46.0655 17.9043 37.9233 9.76099 27.9145 9.76099C27.1308 9.76099 26.4963 10.3952 26.4963 11.1791C26.4963 11.963 27.1308 12.5973 27.9145 12.5973C36.3585 12.5973 43.2291 19.468 43.2291 27.9146C43.2291 28.6985 43.8635 29.3328 44.6472 29.3328Z" fill="white"/>
</svg>
