<svg width="206" height="201" fill="none" xmlns="http://www.w3.org/2000/svg"><path d="M110.354 32.156V10.843c0-5.947-4.831-10.77-10.797-10.77-5.959 0-10.796 4.823-10.796 10.77v21.313a68.78 68.78 0 0110.796-.86c3.675 0 7.283.297 10.797.86zm34.7 117.443l15.856 14.243c4.424 3.974 11.24 3.602 15.226-.836 3.982-4.433 3.628-11.254-.796-15.228l-15.856-14.243a68.838 68.838 0 01-6.575 8.607 68.331 68.331 0 01-7.855 7.457zm9.763-90.111l15.139-15.1a10.755 10.755 0 000-15.231c-4.213-4.206-11.05-4.206-15.269 0l-15.134 15.098a68.632 68.632 0 0115.264 15.233zM95.008 164.411l1.117 21.354c.313 5.945 5.386 10.502 11.33 10.178 5.945-.324 10.513-5.41 10.204-11.359l-1.118-21.348a68.62 68.62 0 01-21.533 1.175zM44.298 59.488a68.838 68.838 0 0115.27-15.23L44.434 29.16c-4.22-4.206-11.056-4.206-15.27 0a10.744 10.744 0 000 15.23l15.134 15.098zm124.565 22.705a68.847 68.847 0 011.127 21.538l21.344-1.169c5.949-.329 10.518-5.415 10.204-11.36a10.743 10.743 0 00-11.33-10.178l-21.345 1.17zM10.796 110.144h21.372a67.827 67.827 0 01-.859-10.769c0-3.665.298-7.258.859-10.769H10.797C4.83 88.606 0 93.428 0 99.376c0 5.946 4.831 10.768 10.796 10.768zm33.502 29.115l-15.134 15.104c-4.22 4.202-4.22 11.024 0 15.227a10.764 10.764 0 007.635 3.157c2.76 0 5.525-1.053 7.635-3.157l15.134-15.098a68.72 68.72 0 01-15.27-15.233zm8.604-39.884c0 3.713.475 7.306 1.305 10.769a46.133 46.133 0 005.655 13.593 46.745 46.745 0 0015.264 15.231c.849.518 1.682 1.036 2.563 1.507 8.018-9.764 18.71-17.294 31.103-21.392 6.726-16.82 17.943-31.02 32.003-41.467a49.66 49.66 0 00-1.54-2.61 46.712 46.712 0 00-15.263-15.23 46.365 46.365 0 00-13.638-5.64c-3.472-.825-7.071-1.305-10.797-1.305-3.725 0-7.324.48-10.796 1.305a46.427 46.427 0 00-13.632 5.64 46.72 46.72 0 00-15.264 15.23A46.052 46.052 0 0054.212 88.6c-.83 3.466-1.309 7.062-1.309 10.775z" fill="#FFE239"/><path d="M147.836 101.117c0-3.712-.475-7.305-1.305-10.768a46.148 46.148 0 00-5.655-13.594 46.75 46.75 0 00-15.263-15.23c-.849-.518-1.682-1.037-2.563-1.508-8.018 9.764-18.71 17.294-31.103 21.393-6.726 16.82-17.944 31.02-32.004 41.466a49.82 49.82 0 001.54 2.61 46.732 46.732 0 0015.264 15.231 46.382 46.382 0 0013.638 5.64c3.472.825 7.07 1.305 10.796 1.305 3.726 0 7.325-.48 10.797-1.305a46.456 46.456 0 0013.632-5.64 46.734 46.734 0 0015.263-15.231 46.075 46.075 0 005.655-13.593c.83-3.467 1.308-7.063 1.308-10.776z" fill="#FFE239"/></svg>