<svg width="207" height="130" fill="none" xmlns="http://www.w3.org/2000/svg"><path d="M173.818 49.935c-9.496-14.924-26.212-24.14-43.948-24.14-7.84 0-15.334 1.785-22.083 4.956a52.57 52.57 0 00-6.969 3.929 52.28 52.28 0 00-7.266 5.925c-6.813 6.627-11.865 15.103-14.208 24.755a32.212 32.212 0 00-15.275 5.735 32.09 32.09 0 00-7.405 7.262 31.872 31.872 0 00-3.858 6.943 31.973 31.973 0 00-2.284 11.907c0 17.676 14.453 32.057 32.216 32.057h84.094c1.06 0 2.109-.054 3.149-.135C190.74 127.517 207 110.017 207 89.292c0-19.34-14.171-36.02-33.182-39.357zm-6.986 62.457H82.738c-8.418 0-15.262-6.812-15.262-15.187 0-5.61 3.055-10.537 7.67-13.165a15.256 15.256 0 014.798-1.752 14.956 14.956 0 012.792-.27c2.805 0 5.569.787 7.984 2.277a2.88 2.88 0 001.507.425h.044a2.856 2.856 0 002.862-2.848c0-.266-.04-.525-.107-.772a34.075 34.075 0 01-.193-3.574c0-1.976.21-3.95.548-5.901.072-.414.111-.837.197-1.247 1.603-7.645 5.731-14.267 11.372-19.131 6.22-5.361 14.274-8.584 22.918-8.584a35.083 35.083 0 0126.638 12.258 34.888 34.888 0 015.852 9.578 2.836 2.836 0 002.626 1.782c.072 0 .144-.004.219-.008l.291-.018a20.371 20.371 0 011.502-.054c3.182 0 6.369.702 9.351 2.044 8.324 3.742 13.701 12.003 13.701 21.047-.003 12.738-10.418 23.1-23.216 23.1z" fill="#39ACFF"/><mask id="mask0_19_21" style="mask-type:alpha" maskUnits="userSpaceOnUse" x="0" y="0" width="140" height="110"><path d="M32.137.5L.5 66S2 81 .5 81.5 11 99 11 99l26.5 11 15-5L104 46.5l27-9.5L139.5.5H32.137z" fill="#D9D9D9"/></mask><g mask="url(#mask0_19_21)"><path d="M124.296 25.7C114.801 10.778 98.085 1.562 80.348 1.562c-7.84 0-15.334 1.785-22.083 4.956a52.61 52.61 0 00-6.968 3.929 52.277 52.277 0 00-7.267 5.925c-6.813 6.627-11.865 15.103-14.208 24.755a32.212 32.212 0 00-15.275 5.735 32.088 32.088 0 00-7.404 7.262 31.867 31.867 0 00-3.859 6.943A31.973 31.973 0 001 72.973C1 90.65 15.454 105.03 33.216 105.03h84.094c1.06 0 2.109-.054 3.149-.135 20.759-1.612 37.019-19.112 37.019-39.837 0-19.34-14.171-36.02-33.182-39.357zm-6.986 62.458H33.216c-8.418 0-15.261-6.812-15.261-15.187 0-5.61 3.055-10.537 7.669-13.165a15.259 15.259 0 014.798-1.752c.381-.07.758-.135 1.145-.177.543-.058 1.09-.093 1.647-.093 2.805 0 5.57.787 7.985 2.277a2.88 2.88 0 001.506.425h.044a2.856 2.856 0 002.862-2.848c0-.266-.039-.525-.107-.772a34.075 34.075 0 01-.193-3.574c0-1.976.21-3.95.548-5.901.072-.414.112-.837.197-1.247 1.603-7.645 5.731-14.267 11.372-19.131 6.22-5.361 14.274-8.585 22.918-8.585 10.24 0 19.948 4.468 26.639 12.259a34.91 34.91 0 015.851 9.578 2.837 2.837 0 002.626 1.782c.072 0 .144-.004.219-.008l.291-.018a20.399 20.399 0 011.503-.054c3.182 0 6.368.701 9.351 2.044 8.324 3.742 13.7 12.003 13.7 21.047-.002 12.738-10.418 23.1-23.216 23.1z" fill="#39ACFF"/></g></svg>