<svg width="207" height="129" fill="none" xmlns="http://www.w3.org/2000/svg"><path d="M173.448 49.435c-9.496-14.924-26.212-24.14-43.948-24.14-7.84 0-15.334 1.785-22.084 4.956a52.621 52.621 0 00-6.968 3.929 52.263 52.263 0 00-7.266 5.925c-6.813 6.627-11.865 15.103-14.209 24.755A32.212 32.212 0 0063.7 70.594a32.09 32.09 0 00-7.405 7.262 31.863 31.863 0 00-3.858 6.943 31.973 31.973 0 00-2.285 11.907c0 17.676 14.454 32.057 32.217 32.057h84.094c1.06 0 2.109-.054 3.149-.135 20.758-1.612 37.019-19.112 37.019-39.837 0-19.34-14.171-36.02-33.182-39.357zm-6.986 62.457H82.368c-8.418 0-15.262-6.812-15.262-15.187 0-5.61 3.055-10.537 7.67-13.165a15.256 15.256 0 014.797-1.752 14.956 14.956 0 012.793-.27c2.805 0 5.569.787 7.984 2.277a2.88 2.88 0 001.507.425h.044a2.856 2.856 0 002.862-2.848c0-.266-.04-.525-.107-.772a34.075 34.075 0 01-.193-3.574c0-1.976.21-3.95.547-5.901.073-.414.112-.837.197-1.247 1.604-7.645 5.732-14.267 11.373-19.131 6.219-5.361 14.274-8.584 22.918-8.584a35.083 35.083 0 0126.638 12.258 34.912 34.912 0 015.852 9.578 2.834 2.834 0 002.625 1.782c.073 0 .145-.004.219-.008l.292-.018a20.371 20.371 0 011.502-.054c3.182 0 6.368.702 9.351 2.044 8.324 3.742 13.7 12.003 13.7 21.047-.002 12.738-10.417 23.1-23.215 23.1z" fill="#3941FF"/><mask id="mask0_19_72" style="mask-type:alpha" maskUnits="userSpaceOnUse" x="0" y="0" width="140" height="110"><path d="M31.767 0L.13 65.5s1.5 15 0 15.5 10.5 17.5 10.5 17.5l26.5 11 15-5 51.5-58.5 27-9.5 8.5-36.5H31.767z" fill="#D9D9D9"/></mask><g mask="url(#mask0_19_72)"><path d="M123.926 25.2C114.43 10.278 97.714 1.062 79.978 1.062c-7.84 0-15.334 1.785-22.083 4.956a52.592 52.592 0 00-6.969 3.929 52.269 52.269 0 00-7.266 5.925c-6.813 6.627-11.865 15.103-14.208 24.755a32.212 32.212 0 00-15.275 5.735 32.086 32.086 0 00-7.404 7.262 31.867 31.867 0 00-3.86 6.943A31.973 31.973 0 00.63 72.473c0 17.676 14.453 32.057 32.216 32.057h84.094c1.06 0 2.109-.054 3.149-.135 20.759-1.612 37.019-19.112 37.019-39.837 0-19.34-14.171-36.02-33.182-39.357zm-6.986 62.458H32.846c-8.418 0-15.262-6.812-15.262-15.187 0-5.61 3.055-10.537 7.67-13.165a15.259 15.259 0 014.798-1.752c.38-.07.757-.135 1.145-.177.543-.058 1.09-.093 1.647-.093 2.805 0 5.569.787 7.984 2.277.467.286.988.425 1.507.425h.044a2.856 2.856 0 002.862-2.848c0-.266-.04-.525-.107-.772a34.076 34.076 0 01-.193-3.574c0-1.976.21-3.95.548-5.901.072-.414.111-.837.197-1.247 1.603-7.645 5.73-14.267 11.372-19.131 6.22-5.361 14.274-8.585 22.918-8.585a35.083 35.083 0 0126.638 12.259 34.89 34.89 0 015.852 9.578 2.836 2.836 0 002.626 1.782c.072 0 .144-.004.219-.008l.291-.018a20.371 20.371 0 011.502-.054c3.182 0 6.369.701 9.351 2.044 8.324 3.742 13.701 12.003 13.701 21.047-.003 12.738-10.418 23.1-23.216 23.1z" fill="#3941FF"/></g></svg>