<svg width="206" height="159" fill="none" xmlns="http://www.w3.org/2000/svg"><mask id="mask0_19_80" style="mask-type:alpha" maskUnits="userSpaceOnUse" x="0" y="0" width="206" height="137"><path d="M162.317 32.435C149.816 12.79 127.81.656 104.46.656c-10.32 0-20.187 2.35-29.072 6.524a69.246 69.246 0 00-9.174 5.173c-3.425 2.303-6.61 4.926-9.566 7.8-8.969 8.725-15.62 19.882-18.705 32.589a42.407 42.407 0 00-20.109 7.55 42.246 42.246 0 00-9.747 9.56 41.951 41.951 0 00-5.08 9.14A42.091 42.091 0 000 94.67c0 23.27 19.028 42.202 42.412 42.202H153.12a53.68 53.68 0 004.146-.178C184.594 134.57 206 111.532 206 84.249c0-25.462-18.656-47.421-43.683-51.814zm-9.197 82.225H42.412c-11.082 0-20.092-8.969-20.092-19.994 0-7.385 4.022-13.872 10.097-17.331a20.087 20.087 0 016.316-2.307c.502-.092.998-.178 1.508-.233a20.1 20.1 0 012.168-.123 20.02 20.02 0 0110.512 2.998c.614.376 1.3.56 1.983.56h.058c2.078 0 3.768-1.679 3.768-3.75 0-.35-.052-.692-.141-1.016a44.857 44.857 0 01-.254-4.705c0-2.602.277-5.201.72-7.769.096-.545.148-1.102.26-1.641 2.11-10.064 7.545-18.783 14.972-25.186 8.187-7.058 18.791-11.301 30.17-11.301 13.481 0 26.262 5.881 35.069 16.137a45.931 45.931 0 017.704 12.61 3.733 3.733 0 003.456 2.346c.096 0 .191-.005.289-.011l.383-.023c.66-.049 1.318-.072 1.978-.072 4.189 0 8.384.924 12.31 2.691 10.959 4.926 18.037 15.803 18.037 27.709-.003 16.769-13.715 30.411-30.563 30.411z" fill="#3941FF"/></mask><g mask="url(#mask0_19_80)"><path fill="#3941FF" d="M0 .656h205.37V111.24H0z"/></g><rect x="19.747" y="125.721" width="65.824" height="10.532" rx="5.266" fill="#D9D9D9"/><rect x="102.685" y="125.721" width="102.685" height="10.532" rx="5.266" fill="#D9D9D9"/><rect x="60.558" y="148.101" width="102.685" height="10.532" rx="5.266" fill="#D9D9D9"/></svg>