<svg width="206" height="161" fill="none" xmlns="http://www.w3.org/2000/svg"><path d="M154.5 135.188c-3.56 0-6.438 2.851-6.438 6.501v12.747c0 3.592 2.852 6.502 6.438 6.502 3.56 0 6.438-2.852 6.438-6.502v-12.747c0-3.592-2.852-6.501-6.438-6.501zm-51.5 0c-3.56 0-6.438 2.851-6.438 6.501v12.747c0 3.592 2.859 6.502 6.438 6.502 3.56 0 6.438-2.852 6.438-6.502v-12.747c0-3.592-2.852-6.501-6.438-6.501zm-51.5 0c-3.56 0-6.438 2.851-6.438 6.501v12.747c0 3.592 2.859 6.502 6.438 6.502 3.56 0 6.438-2.852 6.438-6.502v-12.747c0-3.592-2.859-6.501-6.438-6.501z" fill="#0500FF"/><path d="M177.585 52.865c-5.961-15.843-21.257-27.115-39.179-27.115-4.126 0-8.111.599-11.883 1.712C116.313 10.976 98.063 0 77.25 0 45.68 0 19.995 25.26 19.325 56.67 7.77 63.357 0 75.852 0 90.124c0 21.321 17.298 38.625 38.625 38.625h128.75c21.321 0 38.625-17.336 38.625-38.625 0-17.8-12.038-32.786-28.415-37.26zm-10.191 63.01H38.606c-14.182 0-25.731-11.53-25.731-25.75 0-12.18 8.478-22.415 19.873-25.08a44.552 44.552 0 01-.56-7.108c0-24.887 20.175-45.062 45.062-45.062 20.355 0 37.556 13.5 43.144 32.027a28.822 28.822 0 0118.012-6.277c14.91 0 27.199 11.266 28.795 25.75h.193c14.182 0 25.731 11.53 25.731 25.75 0 14.195-11.517 25.75-25.731 25.75z" fill="#8987FF"/></svg>