<svg width="206" height="151" fill="none" xmlns="http://www.w3.org/2000/svg"><path d="M161.176 125.139c-3.108-1.736-7.011-.649-8.791 2.538l-6.214 11.128c-1.752 3.137-.68 7.068 2.45 8.816 3.108 1.735 7.011.648 8.791-2.538l6.214-11.129c1.752-3.136.68-7.067-2.45-8.815zm-51.5 0c-3.108-1.736-7.011-.649-8.791 2.538l-6.214 11.128c-1.752 3.137-.675 7.071 2.45 8.816 3.108 1.735 7.011.648 8.791-2.538l6.214-11.129c1.752-3.136.68-7.067-2.45-8.815zm-51.499 0c-3.108-1.736-7.011-.649-8.791 2.538l-6.216 11.128c-1.751 3.136-.675 7.07 2.45 8.815 3.108 1.736 7.011.65 8.791-2.537l6.215-11.128c1.752-3.137.675-7.071-2.45-8.816z" fill="#504DFF"/><path d="M97.945 82.42h9.461v22.046c0 3.245 4.042 4.776 6.185 2.327L136.77 80.46c2.021-2.297.399-5.88-2.663-5.88h-9.462V52.535c0-3.245-4.042-4.776-6.185-2.327L95.28 76.54c-1.99 2.297-.367 5.88 2.665 5.88zm-2.511-28.416H74m18.372 48.992H74M83.186 78.5H74" stroke="#AFCC00" stroke-width="5.5" stroke-miterlimit="10" stroke-linecap="round" stroke-linejoin="round"/><mask id="mask0_19_227" style="mask-type:alpha" maskUnits="userSpaceOnUse" x="0" y="0" width="206" height="137"><path d="M162.317 31.78C149.816 12.132 127.81 0 104.46 0 94.14 0 84.273 2.35 75.388 6.524a69.243 69.243 0 00-9.174 5.173c-3.425 2.304-6.61 4.926-9.566 7.8-8.969 8.725-15.62 19.882-18.705 32.589a42.407 42.407 0 00-20.109 7.55 42.247 42.247 0 00-9.747 9.56 41.954 41.954 0 00-5.08 9.14A42.091 42.091 0 000 94.014c0 23.27 19.028 42.202 42.412 42.202H153.12a53.68 53.68 0 004.146-.178C184.594 133.914 206 110.876 206 83.593c0-25.462-18.656-47.421-43.683-51.814zm-9.197 82.224H42.412c-11.082 0-20.092-8.969-20.092-19.994 0-7.385 4.022-13.872 10.097-17.332a20.087 20.087 0 016.316-2.306c.502-.092.998-.178 1.508-.233a20.1 20.1 0 012.168-.123 20.02 20.02 0 0110.512 2.998c.614.376 1.3.56 1.983.56h.058c2.078 0 3.768-1.679 3.768-3.75 0-.35-.052-.692-.141-1.016a44.858 44.858 0 01-.254-4.705c0-2.602.277-5.201.72-7.769.096-.545.148-1.102.26-1.641 2.11-10.064 7.545-18.783 14.972-25.186 8.187-7.058 18.791-11.301 30.17-11.301 13.481 0 26.262 5.881 35.069 16.137a45.931 45.931 0 017.704 12.61 3.733 3.733 0 003.456 2.346c.096 0 .191-.005.289-.011l.383-.023c.66-.049 1.318-.072 1.978-.072 4.189 0 8.384.924 12.31 2.691 10.959 4.926 18.037 15.802 18.037 27.709-.003 16.769-13.715 30.411-30.563 30.411z" fill="#2475AF"/></mask><g mask="url(#mask0_19_227)"><path fill="#2475AF" d="M0 0h205.37v110.584H0z"/></g></svg>