<svg width="206" height="159" fill="none" xmlns="http://www.w3.org/2000/svg"><path d="M177.585 52.865c-5.961-15.843-21.257-27.115-39.179-27.115-4.126 0-8.111.599-11.883 1.712C116.313 10.976 98.063 0 77.25 0 45.68 0 19.995 25.26 19.325 56.67 7.77 63.357 0 75.852 0 90.124c0 21.321 17.298 38.625 38.625 38.625h128.75c21.321 0 38.625-17.336 38.625-38.625 0-17.8-12.038-32.786-28.415-37.26zm-10.191 63.01H38.606c-14.182 0-25.731-11.53-25.731-25.75 0-12.18 8.478-22.415 19.873-25.08a44.552 44.552 0 01-.56-7.108c0-24.887 20.175-45.062 45.062-45.062 20.355 0 37.556 13.5 43.144 32.027a28.822 28.822 0 0118.012-6.277c14.91 0 27.199 11.266 28.795 25.75h.193c14.182 0 25.731 11.53 25.731 25.75 0 14.195-11.517 25.75-25.731 25.75z" fill="#8381FF"/><path d="M61.827 141.51c-.441-.915-1.766-1.372-3.113-.915l-4.438 2.767v-5.052c0-1.371-.883-2.31-2.23-2.31-1.348 0-2.231.914-2.231 2.31v5.052l-4.438-2.767c-.883-.457-2.23 0-3.113.915-.441.914-.441 2.309.883 3.223l4.438 2.767-4.438 2.766c-.883.458-1.324 1.829-.883 3.224.441.915 1.789 1.372 3.113.915l4.438-2.767v5.052c0 1.371.883 2.31 2.23 2.31 1.348 0 2.23-.914 2.23-2.31v-5.052l4.439 2.767c.883.457 2.23 0 3.113-.915.441-1.371 0-2.766-.883-3.224l-4.438-2.766 4.438-2.767c.883-.457 1.324-1.852.883-3.223zm51 0c-.441-.915-1.766-1.372-3.113-.915l-4.438 2.767v-5.052c0-1.371-.883-2.31-2.231-2.31-1.347 0-2.23.914-2.23 2.31v5.052l-4.438-2.767c-.882-.457-2.23 0-3.113.915-.441.914-.441 2.309.883 3.223l4.438 2.767-4.438 2.766c-.883.458-1.324 1.829-.883 3.224.442.915 1.789 1.372 3.113.915l4.438-2.767v5.052c0 1.371.883 2.31 2.23 2.31 1.348 0 2.231-.914 2.231-2.31v-5.052l4.438 2.767c.883.457 2.23 0 3.113-.915.441-1.371 0-2.766-.883-3.224l-4.438-2.766 4.438-2.767c.883-.457 1.324-1.852.883-3.223zm52 0c-.441-.915-1.766-1.372-3.113-.915l-4.438 2.767v-5.052c0-1.371-.883-2.31-2.231-2.31-1.347 0-2.23.914-2.23 2.31v5.052l-4.438-2.767c-.883-.457-2.23 0-3.113.915-.441.914-.441 2.309.883 3.223l4.438 2.767-4.438 2.766c-.883.458-1.324 1.829-.883 3.224.441.915 1.789 1.372 3.113.915l4.438-2.767v5.052c0 1.371.883 2.31 2.23 2.31 1.348 0 2.231-.914 2.231-2.31v-5.052l4.438 2.767c.883.457 2.23 0 3.113-.915.441-1.371 0-2.766-.883-3.224l-4.438-2.766 4.438-2.767c.883-.457 1.324-1.852.883-3.223z" fill="#00A3FF"/><path d="M74.54 72.42H84v22.046c0 3.245 4.043 4.776 6.186 2.327l23.179-26.333c2.021-2.297.398-5.88-2.664-5.88h-9.461V42.535c0-3.245-4.042-4.776-6.185-2.327L71.875 66.54c-1.99 2.297-.367 5.88 2.664 5.88z" stroke="#AFCC00" stroke-width="5.5" stroke-miterlimit="10" stroke-linecap="round" stroke-linejoin="round"/></svg>