<svg version="1.0" xmlns="http://www.w3.org/2000/svg" width="933.333" height="933.333" viewBox="0 0 700 700"><path d="M152.5 1.6c-20.1 2.7-37.9 8.1-55 16.6-50 25-83.6 69.4-94.7 125L.5 154.5.2 343C0 472.7.2 534.8 1 542c8.5 83.7 72.4 147.8 156.2 156.9 12.8 1.4 372.3 1.5 385.8.1s23.7-3.6 37.4-8.1c64.8-21.2 111.3-79.3 118.6-148.1 1.3-12.6 1.3-373 0-385.6-8.7-82.6-72.8-147.1-155.2-156.1-15.6-1.7-378.3-1.3-391.3.5zM287.8 209c5.2 3.2 6.2 7 6.2 22.7v13.8h-26.1l.3-15.8.3-15.9 3.7-3.4c3.1-2.8 4.6-3.4 8-3.4 2.5 0 5.7.8 7.6 2zm-67.4 40.9l11 10.9-3.5 2.8c-4.3 3.6-8.7 8-12.2 12.3l-2.8 3.4-8.1-7.9c-11.1-10.9-13.8-14.8-13.8-19.6 0-7.8 5.2-12.7 13.4-12.8h4.9l11.1 10.9zm145.5-8.4c1.6 1.4 3.5 4.1 4.1 6 2.1 6.3.6 9.2-10.6 20.6L349 278.6l-9.3-9-9.4-9.1 7.6-7.9c10.9-11.3 14.4-13.6 20.2-13.6 3.6 0 5.5.6 7.8 2.5zM296 273.7c12.5 3.4 24.7 12.2 32.2 23.1l3.1 4.5-2.9 2.5C313 316.9 304 328 296 343.9l-4.1 8.1-7.4 3.4c-10 4.6-17.4 9.7-24.7 16.8-5.8 5.8-6.1 6-8.7 4.7-1.4-.8-6-4.8-10.2-8.9-11.3-11.2-16.9-24.3-16.9-39.5.1-37.7 35.8-64.9 72-54.8zm131.3 34.7c9.3 2.8 20.4 7.9 27.6 12.9 6.6 4.5 17.5 15.1 21.6 21.1 3.3 4.8 4.1 5.4 9.1 6.5 8.5 1.9 22.1 9.2 29.2 15.7 25.5 23 31.3 59.5 14.2 88.5-7.4 12.6-18.4 22.5-32.2 28.9-12.8 6-12.3 6-103.2 6-72.4 0-83.6-.2-89-1.6-24.9-6.4-42.6-29.2-42.6-54.9 0-26.3 18.4-49.3 43.9-55.1l7-1.6 1.6-5.6c3.9-13.3 13-27.5 24.6-38.8 12.5-12 27-19.8 43.9-23.5 12.5-2.8 32.2-2.1 44.3 1.5zm-229.8 19.7v13l-15.8-.3-15.9-.3-2.9-3.2c-5.1-5.8-5.1-13 .1-18.2 3.7-3.7 4.4-3.8 21-4l13.5-.1v13.1zm24.4 59l9.3 9.2-9.4 9.4c-12.2 12.5-17.4 14.7-24.5 10.3-5.5-3.3-7.9-10.9-5.2-16.3.8-1.6 19.8-21.7 20.5-21.7 0 0 4.2 4.1 9.3 9.1z"/><path d="M393 335.1c-13.2 2-25.8 8.8-36 19.5-11.4 12-16.9 26.3-17 43.9 0 11.2-1.5 12.4-10.6 8.3-10-4.4-22-2.1-29.9 5.7-5.2 5.3-7.6 11.2-7.6 18.9 0 11 5.2 19.6 14.9 24.3l5.7 2.8h164l5.8-2.3c28.8-11.7 35.9-48.2 13.2-69.1-7.2-6.7-15.2-9.9-26.8-11l-7.2-.6-4-7.5c-5.3-10-16.5-21.3-26-26.2-11.8-6.1-25.8-8.6-38.5-6.7z"/></svg>