<?xml version="1.0" standalone="no"?>
<!DOCTYPE svg PUBLIC "-//W3C//DTD SVG 20010904//EN"
 "http://www.w3.org/TR/2001/REC-SVG-20010904/DTD/svg10.dtd">
<svg version="1.0" xmlns="http://www.w3.org/2000/svg"
 width="700.000000pt" height="700.000000pt" viewBox="0 0 700.000000 700.000000"
 preserveAspectRatio="xMidYMid meet">
<metadata>
Created by potrace 1.14, written by Peter Selinger 2001-2017
</metadata>
<g transform="translate(0.000000,700.000000) scale(0.100000,-0.100000)"
fill="#000000" stroke="none">
<path d="M1525 6984 c-201 -27 -379 -81 -550 -166 -500 -250 -836 -694 -947
-1250 l-23 -113 -3 -1885 c-2 -1297 0 -1918 8 -1990 85 -837 724 -1478 1562
-1569 128 -14 3723 -15 3858 -1 135 14 237 36 374 81 648 212 1113 793 1186
1481 13 126 13 3730 0 3856 -87 826 -728 1471 -1552 1561 -156 17 -3783 13
-3913 -5z m1353 -2074 c52 -32 62 -70 62 -227 l0 -138 -131 0 -130 0 3 158 3
159 37 34 c31 28 46 34 80 34 25 0 57 -8 76 -20z m-674 -409 l110 -109 -35
-28 c-43 -36 -87 -80 -122 -123 l-28 -34 -81 79 c-111 109 -138 148 -138 196
0 78 52 127 134 128 l49 0 111 -109z m1455 84 c16 -14 35 -41 41 -60 21 -63 6
-92 -106 -206 l-104 -105 -93 90 -94 91 76 79 c109 113 144 136 202 136 36 0
55 -6 78 -25z m-699 -322 c125 -34 247 -122 322 -231 l31 -45 -29 -25 c-154
-131 -244 -242 -324 -401 l-41 -81 -74 -34 c-100 -46 -174 -97 -247 -168 -58
-58 -61 -60 -87 -47 -14 8 -60 48 -102 89 -113 112 -169 243 -169 395 1 377
358 649 720 548z m1313 -347 c93 -28 204 -79 276 -129 66 -45 175 -151 216
-211 33 -48 41 -54 91 -65 85 -19 221 -92 292 -157 255 -230 313 -595 142
-885 -74 -126 -184 -225 -322 -289 -128 -60 -123 -60 -1032 -60 -724 0 -836 2
-890 16 -249 64 -426 292 -426 549 0 263 184 493 439 551 l70 16 16 56 c39
133 130 275 246 388 125 120 270 198 439 235 125 28 322 21 443 -15z m-2298
-197 l0 -130 -158 3 -159 3 -29 32 c-51 58 -51 130 1 182 37 37 44 38 210 40
l135 1 0 -131z m244 -590 l93 -92 -94 -94 c-122 -125 -174 -147 -245 -103 -55
33 -79 109 -52 163 8 16 198 217 205 217 0 0 42 -41 93 -91z"/>
<path d="M3930 3649 c-132 -20 -258 -88 -360 -195 -114 -120 -169 -263 -170
-439 0 -112 -15 -124 -106 -83 -100 44 -220 21 -299 -57 -52 -53 -76 -112 -76
-189 0 -110 52 -196 149 -243 l57 -28 820 0 820 0 58 23 c288 117 359 482 132
691 -72 67 -152 99 -268 110 l-72 6 -40 75 c-53 100 -165 213 -260 262 -118
61 -258 86 -385 67z"/>
</g>
</svg>
