<svg width="101" height="101" viewBox="0 0 101 101" fill="none" xmlns="http://www.w3.org/2000/svg">
<path d="M62.6326 50.1063V37.5798H50.1067V50.1063H62.6326Z" fill="white"/>
<path d="M31.3164 50.1063H43.8435V37.5798H31.3164V50.1063Z" fill="white"/>
<path d="M6.26356 74.5364V31.3164H75.1596V43.8434H81.4232V19.4143C81.4232 15.6097 78.3888 12.5266 74.64 12.5266H72.0279V15.6589C72.0279 19.1082 69.2199 21.922 65.7654 21.922C62.3099 21.922 59.5021 19.1082 59.5021 15.6589V12.5266H21.9213V15.6589C21.9213 19.1082 19.1139 21.922 15.6588 21.922C12.2029 21.922 9.39519 19.1082 9.39519 15.6589V12.5266H6.78629C3.03729 12.5266 0 15.6097 0 19.4143V74.5366C0 78.3286 3.03729 81.4237 6.78629 81.4237H43.8435V75.1593H6.78629C6.50252 75.1591 6.26356 74.866 6.26356 74.5364Z" fill="white"/>
<path d="M12.5266 15.6586V3.13168C12.5266 1.40051 13.9271 0 15.6587 0C17.3894 0 18.79 1.40051 18.79 3.13168V15.6586C18.79 17.3893 17.3894 18.7898 15.6587 18.7898C13.9271 18.7901 12.5266 17.3893 12.5266 15.6586Z" fill="white"/>
<path d="M65.7653 18.7901C67.4956 18.7901 68.897 17.3895 68.897 15.6588V3.13168C68.897 1.40051 67.4956 0 65.7653 0C64.0341 0 62.6326 1.40051 62.6326 3.13168V15.6586C62.6326 17.3893 64.0341 18.7901 65.7653 18.7901Z" fill="white"/>
<path d="M84.5547 75.159H75.1595V65.7637C75.1595 64.0336 73.759 62.6331 72.0278 62.6331C70.2967 62.6331 68.897 64.0336 68.897 65.7637V78.2917C68.897 80.022 70.2967 81.4234 72.0278 81.4234H84.5547C86.2859 81.4234 87.6864 80.022 87.6864 78.2917C87.6864 76.5605 86.2859 75.159 84.5547 75.159Z" fill="white"/>
<path fill-rule="evenodd" clip-rule="evenodd" d="M100.213 75.159C100.213 88.9959 88.9953 100.213 75.1594 100.213C61.3245 100.213 50.1064 88.9959 50.1064 75.159C50.1064 61.3241 61.3243 50.1064 75.1594 50.1064C88.9953 50.1064 100.213 61.3239 100.213 75.159ZM75.1596 56.3693C85.5214 56.3693 93.9501 64.799 93.9501 75.159C93.9501 85.521 85.5214 93.9494 75.1596 93.9494C64.7986 93.9494 56.37 85.521 56.37 75.159C56.37 64.7988 64.7986 56.3693 75.1596 56.3693Z" fill="white"/>
<path d="M31.3164 68.8966H43.8435V56.3694H31.3164V68.8966Z" fill="white"/>
<path d="M12.5266 68.8966H25.0535V56.3694H12.5266V68.8966Z" fill="white"/>
<path d="M25.0535 37.5798H12.5266V50.1063H25.0535V37.5798Z" fill="white"/>
</svg>
