<svg width="101" height="101" viewBox="0 0 101 101" fill="none" xmlns="http://www.w3.org/2000/svg">
<path d="M63.4199 50.6064V38.0799H50.894V50.6064H63.4199Z" fill="white"/>
<path d="M32.1038 50.6064H44.6309V38.0799H32.1038V50.6064Z" fill="white"/>
<path d="M7.05097 75.0363V31.8163H75.947V44.3433H82.2106V19.9142C82.2106 16.1096 79.1762 13.0265 75.4274 13.0265H72.8153V16.1588C72.8153 19.6081 70.0073 22.4219 66.5528 22.4219C63.0973 22.4219 60.2895 19.6081 60.2895 16.1588V13.0265H22.7087V16.1588C22.7087 19.6081 19.9013 22.4219 16.4462 22.4219C12.9903 22.4219 10.1826 19.6081 10.1826 16.1588V13.0265H7.5737C3.8247 13.0265 0.787407 16.1096 0.787407 19.9142V75.0365C0.787407 78.8285 3.8247 81.9236 7.5737 81.9236H44.6309V75.6592H7.5737C7.28993 75.659 7.05097 75.3659 7.05097 75.0363Z" fill="black"/>
<path d="M13.3139 16.1586V3.63168C13.3139 1.90051 14.7144 0.5 16.446 0.5C18.1767 0.5 19.5773 1.90051 19.5773 3.63168V16.1586C19.5773 17.8893 18.1767 19.2898 16.446 19.2898C14.7144 19.2901 13.3139 17.8893 13.3139 16.1586Z" fill="white"/>
<path d="M66.5526 19.2901C68.2829 19.2901 69.6843 17.8895 69.6843 16.1588V3.63168C69.6843 1.90051 68.2829 0.5 66.5526 0.5C64.8214 0.5 63.4199 1.90051 63.4199 3.63168V16.1586C63.4199 17.8893 64.8214 19.2901 66.5526 19.2901Z" fill="white"/>
<path d="M85.342 75.659H75.9468V66.2637C75.9468 64.5336 74.5463 63.1331 72.8151 63.1331C71.084 63.1331 69.6843 64.5336 69.6843 66.2637V78.7917C69.6843 80.522 71.084 81.9234 72.8151 81.9234H85.342C87.0732 81.9234 88.4737 80.522 88.4737 78.7917C88.4737 77.0605 87.0732 75.659 85.342 75.659Z" fill="white"/>
<path fill-rule="evenodd" clip-rule="evenodd" d="M101 75.659C101 89.4959 89.7827 100.713 75.9468 100.713C62.1119 100.713 50.8938 89.4959 50.8938 75.659C50.8938 61.8241 62.1117 50.6064 75.9468 50.6064C89.7827 50.6064 101 61.8239 101 75.659ZM75.947 56.8693C86.3088 56.8693 94.7375 65.299 94.7375 75.659C94.7375 86.021 86.3088 94.4494 75.947 94.4494C65.586 94.4494 57.1574 86.021 57.1574 75.659C57.1574 65.2988 65.586 56.8693 75.947 56.8693Z" fill="black"/>
<path d="M32.1038 69.3965H44.6309V56.8693H32.1038V69.3965Z" fill="white"/>
<path d="M13.3139 69.3965H25.8408V56.8693H13.3139V69.3965Z" fill="white"/>
<path d="M25.8408 38.0799H13.3139V50.6064H25.8408V38.0799Z" fill="white"/>
</svg>
