<svg width="75" height="75" viewBox="0 0 75 75" fill="none" xmlns="http://www.w3.org/2000/svg">
<circle cx="37.5" cy="37.5" r="37" stroke="white"/>
<path d="M40.9773 5.27273V14H39.9545L35.1989 7.14773H35.1136V14H34.0568V5.27273H35.0795L39.8523 12.142H39.9375V5.27273H40.9773Z" fill="white"/>
<path d="M61.9709 42V33.2727H67.2379V34.2102H63.0277V37.1591H66.9652V38.0966H63.0277V41.0625H67.3061V42H61.9709Z" fill="white"/>
<path d="M39.5034 63.4545C39.4522 63.0227 39.2449 62.6875 38.8812 62.4489C38.5176 62.2102 38.0716 62.0909 37.5431 62.0909C37.1568 62.0909 36.8187 62.1534 36.5289 62.2784C36.242 62.4034 36.0176 62.5753 35.8556 62.794C35.6966 63.0128 35.617 63.2614 35.617 63.5398C35.617 63.7727 35.6724 63.973 35.7832 64.1406C35.8968 64.3054 36.0417 64.4432 36.2179 64.554C36.394 64.6619 36.5787 64.7514 36.7718 64.8224C36.965 64.8906 37.1426 64.946 37.3045 64.9886L38.1909 65.2273C38.4181 65.2869 38.671 65.3693 38.9494 65.4744C39.2306 65.5795 39.4991 65.723 39.7548 65.9048C40.0133 66.0838 40.2264 66.3139 40.394 66.5952C40.5616 66.8764 40.6454 67.2216 40.6454 67.6307C40.6454 68.1023 40.5218 68.5284 40.2747 68.9091C40.0304 69.2898 39.6724 69.5923 39.2008 69.8168C38.7321 70.0412 38.1625 70.1534 37.492 70.1534C36.867 70.1534 36.3258 70.0526 35.8684 69.8509C35.4139 69.6491 35.0559 69.3679 34.7946 69.0071C34.536 68.6463 34.3897 68.2273 34.3556 67.75H35.4466C35.475 68.0795 35.5858 68.3523 35.7789 68.5682C35.975 68.7812 36.2221 68.9403 36.5204 69.0455C36.8216 69.1477 37.1454 69.1989 37.492 69.1989C37.8954 69.1989 38.2576 69.1335 38.5787 69.0028C38.8997 68.8693 39.1539 68.6847 39.3414 68.4489C39.5289 68.2102 39.6227 67.9318 39.6227 67.6136C39.6227 67.3239 39.5417 67.0881 39.3798 66.9062C39.2179 66.7244 39.0048 66.5767 38.7406 66.4631C38.4764 66.3494 38.1909 66.25 37.8841 66.1648L36.8102 65.858C36.1284 65.6619 35.5886 65.3821 35.1909 65.0185C34.7931 64.6548 34.5943 64.179 34.5943 63.5909C34.5943 63.1023 34.7264 62.6761 34.9906 62.3125C35.2576 61.946 35.6156 61.6619 36.0645 61.4602C36.5162 61.2557 37.0204 61.1534 37.5772 61.1534C38.1397 61.1534 38.6397 61.2543 39.0772 61.456C39.5147 61.6548 39.8613 61.9276 40.117 62.2741C40.3755 62.6207 40.5119 63.0142 40.5261 63.4545H39.5034Z" fill="white"/>
<path d="M7.64205 42L5.25568 33.2727H6.32955L8.15341 40.3807H8.23864L10.0966 33.2727H11.2898L13.1477 40.3807H13.233L15.0568 33.2727H16.1307L13.7443 42H12.6534L10.7273 35.0455H10.6591L8.73295 42H7.64205Z" fill="white"/>
<path d="M49.3333 38C49.3333 39.4728 50.5272 40.6667 52 40.6667C53.4728 40.6667 54.6667 39.4728 54.6667 38C54.6667 36.5272 53.4728 35.3333 52 35.3333C50.5272 35.3333 49.3333 36.5272 49.3333 38ZM27 38.5H52V37.5H27V38.5Z" fill="white"/>
</svg>
