<svg width="302" height="403" viewBox="0 0 302 403" fill="none" xmlns="http://www.w3.org/2000/svg">
<path fill-rule="evenodd" clip-rule="evenodd" d="M99.6879 102.719C97.9484 100.98 97.0023 98.6521 97.0023 96.1932C97.0023 93.7397 97.9531 91.4075 99.6919 89.6751C100.549 88.8215 101.565 88.1451 102.684 87.6848C103.802 87.2246 105 86.9893 106.21 86.9927C108.663 86.9927 110.993 87.9435 112.728 89.6783L148.327 125.278C148.62 125.571 148.967 125.803 149.35 125.962C149.732 126.12 150.142 126.202 150.556 126.202C150.97 126.202 151.38 126.12 151.763 125.962C152.145 125.803 152.493 125.571 152.785 125.278L188.385 89.6783C189.24 88.823 190.257 88.1454 191.376 87.6845C192.494 87.2236 193.693 86.9885 194.903 86.9927C197.353 86.9927 199.679 87.9451 201.414 89.6751C202.272 90.5294 202.952 91.5454 203.415 92.6641C203.877 93.7829 204.114 94.9824 204.11 96.1932C204.115 97.4049 203.879 98.6056 203.417 99.7257C202.954 100.846 202.275 101.863 201.417 102.719L165.814 138.318C165.225 138.909 164.894 139.708 164.894 140.542C164.894 141.376 165.225 142.175 165.814 142.766L201.424 178.368C203.164 180.107 204.11 182.435 204.11 184.894C204.11 187.346 203.159 189.676 201.423 191.41C197.826 195.003 191.979 195.004 188.384 191.408L152.785 155.806C152.493 155.512 152.145 155.28 151.762 155.122C151.38 154.964 150.969 154.884 150.556 154.886C150.142 154.885 149.732 154.965 149.349 155.123C148.966 155.28 148.619 155.513 148.326 155.806L112.727 191.408C109.129 195.007 103.287 195.005 99.6879 191.41C98.8325 190.554 98.1548 189.538 97.6938 188.42C97.2327 187.302 96.9974 186.103 97.0015 184.894C97.0015 182.432 97.9531 180.109 99.6942 178.368L135.294 142.766C135.586 142.474 135.817 142.127 135.975 141.745C136.133 141.364 136.215 140.955 136.215 140.542C136.215 140.129 136.133 139.72 135.975 139.339C135.817 138.957 135.586 138.61 135.294 138.318L99.6879 102.719ZM261.932 140.54C261.932 79.1334 211.964 29.1647 150.557 29.1647C89.1501 29.1647 39.1822 79.1334 39.1822 140.54C39.1822 201.95 89.147 251.914 150.557 251.914C211.967 251.914 261.932 201.95 261.932 140.54ZM148.169 348.073L150.557 350.852L152.945 348.073C158.882 341.164 164.893 334.317 170.901 327.469C188.323 307.616 205.694 287.727 221.917 266.87C247.896 233.469 281.651 184.452 281.651 140.54C281.651 68.254 222.843 9.44604 150.557 9.44604C78.2707 9.44604 19.4628 68.254 19.4628 140.54C19.4628 184.452 53.2171 233.469 79.1964 266.869C95.4202 287.727 112.791 307.615 130.213 327.469C136.221 334.316 142.231 341.164 148.169 348.073Z" fill="#9BC9FF"/>
<path fill-rule="evenodd" clip-rule="evenodd" d="M48.6275 140.54C48.6275 84.3417 94.3514 38.606 150.557 38.606C206.766 38.606 252.487 84.3409 252.487 140.54C252.487 196.745 206.767 242.469 150.557 242.469C94.3514 242.469 48.6275 196.745 48.6275 140.54ZM265.081 140.54C265.081 77.3986 213.705 26.0163 150.556 26.0163C87.4075 26.0163 36.033 77.3986 36.033 140.54C36.033 203.688 87.4083 255.063 150.556 255.063C213.705 255.063 265.081 203.688 265.081 140.54ZM110.502 189.182L146.101 153.58C147.284 152.401 148.887 151.739 150.557 151.739C152.227 151.739 153.829 152.401 155.012 153.58L190.611 189.182C192.973 191.551 196.83 191.551 199.2 189.182C199.763 188.62 200.209 187.951 200.511 187.215C200.814 186.479 200.968 185.69 200.963 184.894C200.968 184.096 200.814 183.306 200.511 182.568C200.209 181.83 199.763 181.159 199.2 180.594L163.589 144.991C161.135 142.537 161.135 138.55 163.589 136.092L199.192 100.492C199.757 99.929 200.205 99.2587 200.509 98.5207C200.813 97.7826 200.967 96.9914 200.963 96.1932C200.963 94.5631 200.335 93.0369 199.192 91.905C198.059 90.7692 196.534 90.1411 194.904 90.1411C193.273 90.1411 191.747 90.7684 190.611 91.905L155.012 127.504C153.83 128.685 152.227 129.348 150.557 129.348C148.886 129.348 147.284 128.685 146.101 127.504L110.502 91.905C109.939 91.342 109.269 90.8963 108.533 90.5935C107.796 90.2907 107.006 90.137 106.21 90.1411C104.584 90.1411 103.054 90.7684 101.914 91.905C100.778 93.0377 100.151 94.5639 100.151 96.1932C100.151 97.8304 100.778 99.3495 101.914 100.492L137.52 136.092C139.978 138.55 139.978 142.537 137.52 144.991L101.921 180.594C101.355 181.157 100.908 181.828 100.604 182.566C100.3 183.304 100.145 184.096 100.15 184.894C100.15 186.524 100.777 188.049 101.913 189.182C104.283 191.55 108.13 191.55 110.502 189.182ZM181.704 198.086C188.985 205.367 200.821 205.367 208.103 198.086C211.619 194.573 213.557 189.884 213.557 184.894C213.557 179.893 211.619 175.211 208.103 171.691L176.948 140.54L208.103 109.393C211.619 105.877 213.557 101.191 213.557 96.194C213.557 91.2037 211.619 86.511 208.103 83.0021C204.583 79.4821 199.901 77.5474 194.904 77.5474C189.913 77.5474 185.221 79.4821 181.704 83.0021L150.556 114.149L119.409 83.0013C115.893 79.4813 111.199 77.5466 106.21 77.5466C101.213 77.5466 96.5301 79.4813 93.0101 83.0013C89.4902 86.5102 87.5563 91.2029 87.5563 96.1932C87.5563 101.191 89.491 105.876 93.0101 109.392L124.165 140.54L93.0101 171.69C89.4902 175.21 87.5563 179.892 87.5563 184.893C87.5563 189.883 89.491 194.572 93.0101 198.085C96.645 201.727 101.431 203.547 106.21 203.547C110.988 203.547 115.767 201.728 119.409 198.085L150.556 166.938L181.704 198.086ZM250.849 378.654C224.142 386.235 188.525 390.405 150.556 390.405C112.585 390.405 76.9705 386.236 50.2639 378.654C22.4546 370.768 12.5929 361.393 12.5929 355.771C12.5929 345.353 44.6274 327.776 113.327 322.534C116.631 326.314 119.899 330.041 123.111 333.702C131.223 342.944 138.891 351.68 145.748 359.796C146.341 360.493 147.077 361.053 147.908 361.438C148.738 361.823 149.641 362.022 150.556 362.024C151.471 362.022 152.375 361.822 153.205 361.438C154.035 361.053 154.772 360.493 155.365 359.796C162.222 351.68 169.889 342.944 178.002 333.702C181.267 329.982 184.528 326.26 187.786 322.534C256.485 327.777 288.523 345.353 288.523 355.771C288.523 361.393 278.658 370.768 250.849 378.654ZM22.6112 140.54C22.6112 200.069 86.1717 272.506 132.579 325.393C138.891 332.584 144.928 339.472 150.556 346.021C156.185 339.472 162.222 332.584 168.534 325.393C214.941 272.507 278.501 200.069 278.501 140.54C278.501 69.9912 221.104 12.5937 150.556 12.5937C80.0071 12.5937 22.6112 69.9912 22.6112 140.54ZM197.974 310.789C216.81 288.924 236.124 265.396 252.36 241.14C278.431 202.199 291.093 169.3 291.093 140.54C291.093 63.0481 228.056 0 150.556 0C73.057 0 10.0175 63.0481 10.0175 140.54C10.0175 169.3 22.6821 202.199 48.7534 241.14C64.9899 265.396 84.3079 288.924 103.143 310.789C53.0416 315.739 0 329.9 0 355.771C0 369.973 16.1877 382.081 46.8305 390.776C74.6178 398.655 111.461 402.999 150.557 402.999C189.654 402.999 226.496 398.655 254.284 390.776C284.923 382.081 301.114 369.973 301.114 355.771C301.113 329.9 248.072 315.739 197.974 310.789Z" fill="#57A4FF"/>
</svg>
