<svg width="26" height="40" viewBox="0 0 26 40" fill="none" xmlns="http://www.w3.org/2000/svg">
<path fill-rule="evenodd" clip-rule="evenodd" d="M5.90234 17.1875H8.74063C9.21875 18.443 9.68359 19.5492 10.4742 20.4789C9.05547 20.0258 7.95 19.3727 7.00703 18.443C6.52969 18.1164 6.21641 17.6617 5.90234 17.1875ZM7.00703 6.63359C7.95 5.67813 9.05547 4.89922 10.4742 4.57266C9.68359 5.52734 9.21875 6.63359 8.74063 7.73438H5.90234C6.21484 7.40781 6.69297 6.93047 7.00703 6.62969V6.63359ZM20.0844 7.73438H16.9328C16.6203 6.62969 15.9898 5.37344 15.3625 4.41875C16.7813 4.89609 18.05 5.52422 18.993 6.63047C19.3055 6.93125 19.7836 7.41172 20.0867 7.73516L20.0844 7.73438ZM17.7234 12.132C17.7239 10.8615 17.568 9.59575 17.2594 8.36328H20.4C21.0406 9.46875 21.518 10.8758 21.518 12.132H17.7234ZM17.7234 12.757H21.5156C21.5156 14.1891 21.0383 15.4445 20.3977 16.7016V16.5516H17.257C17.5695 15.4453 17.7211 14.1898 17.7211 12.7578L17.7234 12.757ZM13.3023 16.5508V12.7641H17.0961C17.0961 14.1961 16.9328 15.4516 16.6172 16.5578L13.3023 16.5508ZM13.3023 17.1758H16.3164C15.8391 18.582 15.1992 19.8391 14.4195 20.7938C14.107 20.7938 13.6289 20.7937 13.3023 20.9437V17.1758ZM8.57734 12.7539H12.6875V16.5477H9.21875C8.90625 15.4414 8.74141 14.1859 8.57734 12.7539ZM7.95234 12.1289H4.48438C4.63516 10.8727 4.96172 9.46562 5.59063 8.36016H8.57891C8.26641 9.61641 7.95391 10.8727 7.95391 12.1289H7.95234ZM12.6875 8.36719V12.1359H8.57813C8.74141 10.8797 8.90469 9.62344 9.22031 8.36719H12.6875ZM12.6875 7.73438H9.36953C9.83359 6.47891 10.6375 5.37344 11.4172 4.26719C11.7297 4.26719 12.2078 4.11641 12.6867 4.11641L12.6875 7.73438ZM16.6188 8.36328C16.9329 9.59503 17.0938 10.8609 17.0977 12.132H13.3023V8.36719L16.6188 8.36328ZM13.3023 7.73438V4.12031C13.6289 4.12031 14.1063 4.12031 14.4195 4.27109C15.2008 5.20078 15.8391 6.48281 16.3164 7.73828L13.3023 7.73438ZM4.48438 12.7641H7.95156C7.95156 14.1961 8.26406 15.4516 8.57656 16.5578H5.58828C4.95938 15.4516 4.63281 14.1961 4.48203 12.7641H4.48438ZM11.4172 20.8047C10.6359 19.6984 9.83438 18.593 9.36953 17.1867H12.6875V20.9555C12.2094 20.8055 11.732 20.8055 11.418 20.8055L11.4172 20.8047ZM18.9953 18.4422C17.9655 19.4412 16.7249 20.197 15.3648 20.6539C15.9898 19.5484 16.6203 18.4422 16.9352 17.1867H20.0867C19.7859 17.6648 19.3055 18.1156 18.993 18.4422H18.9953ZM13 40C13.8197 38.7966 14.5545 37.5376 15.1992 36.232C19.1563 29.775 25.6141 18.1156 25.6141 12.4625C25.6133 5.67813 19.9344 0 13 0C6.06563 0 0.386719 5.67813 0.386719 12.4625C0.386719 18.1156 6.84375 29.775 10.7898 36.232C11.4371 37.5384 12.1757 38.7975 13 40Z" fill="white"/>
</svg>
