<svg width="40" height="40" viewBox="0 0 40 40" fill="none" xmlns="http://www.w3.org/2000/svg">
<path fill-rule="evenodd" clip-rule="evenodd" d="M12.9023 17.1875H15.7406C16.2187 18.443 16.6836 19.5492 17.4742 20.4789C16.0555 20.0258 14.95 19.3727 14.007 18.443C13.5297 18.1164 13.2164 17.6617 12.9023 17.1875ZM14.007 6.63359C14.95 5.67813 16.0555 4.89922 17.4742 4.57266C16.6836 5.52734 16.2187 6.63359 15.7406 7.73438H12.9023C13.2148 7.40781 13.693 6.93047 14.007 6.62969V6.63359ZM27.0844 7.73438H23.9328C23.6203 6.62969 22.9898 5.37344 22.3625 4.41875C23.7812 4.89609 25.05 5.52422 25.993 6.63047C26.3055 6.93125 26.7836 7.41172 27.0867 7.73516L27.0844 7.73438ZM24.7234 12.132C24.7239 10.8615 24.568 9.59575 24.2594 8.36328H27.4C28.0406 9.46875 28.518 10.8758 28.518 12.132H24.7234ZM24.7234 12.757H28.5156C28.5156 14.1891 28.0383 15.4445 27.3977 16.7016V16.5516H24.257C24.5695 15.4453 24.7211 14.1898 24.7211 12.7578L24.7234 12.757ZM20.3023 16.5508V12.7641H24.0961C24.0961 14.1961 23.9328 15.4516 23.6172 16.5578L20.3023 16.5508ZM20.3023 17.1758H23.3164C22.8391 18.582 22.1992 19.8391 21.4195 20.7938C21.107 20.7938 20.6289 20.7937 20.3023 20.9437V17.1758ZM15.5773 12.7539H19.6875V16.5477H16.2188C15.9063 15.4414 15.7406 14.1859 15.5766 12.7539H15.5773ZM14.9523 12.1289H11.4844C11.6352 10.8727 11.9617 9.46563 12.5906 8.36016H15.5789C15.2664 9.61641 14.9539 10.8727 14.9539 12.1289H14.9523ZM19.6875 8.36719V12.1359H15.5781C15.7414 10.8797 15.9047 9.62344 16.2203 8.36719H19.6875ZM19.6875 7.73438H16.3695C16.8336 6.47891 17.6375 5.37344 18.4172 4.26719C18.7297 4.26719 19.2078 4.11641 19.6867 4.11641L19.6875 7.73438ZM23.6188 8.36328C23.9329 9.59503 24.0938 10.8609 24.0977 12.132H20.3023V8.36719L23.6188 8.36328ZM20.3023 7.73438V4.12031C20.6289 4.12031 21.1063 4.12031 21.4195 4.27109C22.2008 5.20078 22.8391 6.48281 23.3164 7.73828L20.3023 7.73438ZM11.4844 12.7641H14.9516C14.9516 14.1961 15.2641 15.4516 15.5766 16.5578H12.5883C11.9594 15.4516 11.6328 14.1961 11.482 12.7641H11.4844ZM18.4172 20.8047C17.6359 19.6984 16.8344 18.593 16.3695 17.1867H19.6875V20.9555C19.2094 20.8055 18.732 20.8055 18.418 20.8055L18.4172 20.8047ZM25.9953 18.4422C24.9655 19.4412 23.7249 20.197 22.3648 20.6539C22.9898 19.5484 23.6203 18.4422 23.9352 17.1867H27.0867C26.7859 17.6648 26.3055 18.1156 25.993 18.4422H25.9953ZM20 40C20.8197 38.7966 21.5545 37.5376 22.1992 36.232C26.1562 29.775 32.6141 18.1156 32.6141 12.4625C32.6133 5.67813 26.9344 0 20 0C13.0656 0 7.38672 5.67813 7.38672 12.4625C7.38672 18.1156 13.8438 29.775 17.7898 36.232C18.4371 37.5384 19.1757 38.7975 20 40Z" fill="#5B5B5F"/>
</svg>
